G04 Layer_Color=65535*
%FSLAX25Y25*%
%MOIN*%
G70*
G01*
G75*
%ADD10C,0.01000*%
%ADD13C,0.00000*%
%ADD27C,0.00787*%
%ADD28C,0.00500*%
%ADD29C,0.01575*%
%ADD30C,0.00591*%
G36*
X404210Y418308D02*
X404366Y418289D01*
X404521Y418211D01*
X404541D01*
X404560Y418192D01*
X404638Y418133D01*
X404755Y418036D01*
X404852Y417900D01*
X404871Y417861D01*
X404930Y417764D01*
X404988Y417628D01*
X405046Y417453D01*
Y417434D01*
X405066Y417414D01*
X405085Y417317D01*
X405105Y417162D01*
X405124Y416987D01*
Y416967D01*
Y416948D01*
Y416831D01*
X405105Y416676D01*
X405066Y416501D01*
X404288Y413526D01*
X404308D01*
X404385Y413546D01*
X404502Y413565D01*
X404638Y413585D01*
X404794Y413604D01*
X404969Y413643D01*
X405299Y413701D01*
X405318D01*
X405377Y413721D01*
X405474Y413740D01*
X405571Y413760D01*
X405707Y413779D01*
X405863Y413818D01*
X406193Y413876D01*
X406213D01*
X406271Y413896D01*
X406368Y413915D01*
X406485Y413935D01*
X406757Y413993D01*
X407029Y414051D01*
X407049D01*
X407088Y414071D01*
X407165Y414090D01*
X407243Y414110D01*
X407457Y414168D01*
X407651Y414207D01*
X407671D01*
X407690Y414226D01*
X407807Y414246D01*
X407943Y414265D01*
X408079Y414304D01*
X408118D01*
X408176Y414323D01*
X408273Y414343D01*
X408487D01*
X408584Y414323D01*
X408720Y414304D01*
X408759D01*
X408818Y414284D01*
X408915Y414265D01*
X409012Y414207D01*
X409031Y414187D01*
X409090Y414168D01*
X409168Y414110D01*
X409226Y414032D01*
X409245Y414012D01*
X409284Y413954D01*
X409304Y413857D01*
X409323Y413740D01*
Y413721D01*
Y413701D01*
X409304Y413585D01*
X409284Y413429D01*
X409226Y413273D01*
X409206Y413235D01*
X409148Y413157D01*
X409070Y413060D01*
X408954Y412943D01*
X408934Y412924D01*
X408857Y412865D01*
X408740Y412787D01*
X408604Y412710D01*
X408565Y412690D01*
X408487Y412651D01*
X408351Y412613D01*
X408196Y412574D01*
X408176D01*
X408079Y412554D01*
X407943Y412535D01*
X407768Y412476D01*
X407729D01*
X407671Y412457D01*
X407593Y412438D01*
X407399Y412399D01*
X407165Y412340D01*
X407146D01*
X407107Y412321D01*
X407049D01*
X406971Y412301D01*
X406757Y412243D01*
X406504Y412185D01*
X406485D01*
X406446Y412165D01*
X406368D01*
X406290Y412127D01*
X406077Y412088D01*
X405824Y412010D01*
X405804D01*
X405746Y411990D01*
X405649Y411971D01*
X405532Y411932D01*
X405260Y411874D01*
X404988Y411796D01*
X404969D01*
X404930Y411777D01*
X404871D01*
X404774Y411757D01*
X404580Y411718D01*
X404385Y411680D01*
X404347D01*
X404249Y411660D01*
X404133Y411641D01*
X403997Y411602D01*
X403899D01*
X403822Y411582D01*
X403744D01*
Y411563D01*
X403705Y411485D01*
X403666Y411368D01*
X403627Y411213D01*
X403569Y411038D01*
X403511Y410824D01*
X403394Y410396D01*
Y410377D01*
X403374Y410299D01*
X403355Y410183D01*
X403316Y410046D01*
X403277Y409871D01*
X403238Y409697D01*
X403141Y409308D01*
Y409288D01*
X403122Y409230D01*
X403102Y409133D01*
X403083Y409016D01*
X403044Y408725D01*
X402986Y408414D01*
Y408394D01*
Y408355D01*
X402966Y408278D01*
Y408200D01*
X402947Y407986D01*
Y407792D01*
Y407772D01*
Y407733D01*
Y407694D01*
Y407617D01*
X402966Y407442D01*
X403005Y407247D01*
Y407228D01*
X403025Y407208D01*
X403044Y407092D01*
X403102Y406955D01*
X403180Y406800D01*
X403199Y406761D01*
X403277Y406683D01*
X403394Y406586D01*
X403530Y406489D01*
X403549D01*
X403569Y406469D01*
X403686Y406450D01*
X403841Y406411D01*
X404074Y406392D01*
X404172D01*
X404288Y406411D01*
X404424Y406431D01*
X404599Y406469D01*
X404774Y406508D01*
X404988Y406586D01*
X405182Y406683D01*
X405202Y406703D01*
X405280Y406742D01*
X405377Y406800D01*
X405513Y406897D01*
X405668Y407014D01*
X405843Y407150D01*
X406213Y407461D01*
X406232Y407480D01*
X406290Y407539D01*
X406388Y407636D01*
X406504Y407772D01*
X406660Y407928D01*
X406815Y408103D01*
X407146Y408511D01*
X407165Y408530D01*
X407224Y408608D01*
X407301Y408725D01*
X407418Y408861D01*
X407535Y409016D01*
X407671Y409191D01*
X407962Y409580D01*
X407982Y409619D01*
X408040Y409677D01*
X408157Y409735D01*
X408293Y409774D01*
X408332D01*
X408429Y409735D01*
X408448D01*
X408487Y409716D01*
X408604Y409658D01*
X408623D01*
X408662Y409619D01*
X408720Y409580D01*
X408759Y409522D01*
X408779Y409502D01*
X408798Y409463D01*
X408818Y409405D01*
Y409327D01*
Y409308D01*
Y409288D01*
X408798Y409211D01*
Y409191D01*
X408759Y409094D01*
X408720Y408958D01*
X408682Y408802D01*
X408604Y408589D01*
X408507Y408375D01*
X408409Y408141D01*
X408273Y407889D01*
X408254Y407869D01*
X408215Y407772D01*
X408137Y407636D01*
X408060Y407480D01*
X407943Y407267D01*
X407826Y407053D01*
X407554Y406547D01*
Y406528D01*
X407535Y406508D01*
X407476Y406411D01*
X407360Y406256D01*
X407224Y406100D01*
X407185Y406061D01*
X407088Y405964D01*
X406932Y405828D01*
X406757Y405673D01*
X406738D01*
X406718Y405634D01*
X406601Y405536D01*
X406446Y405420D01*
X406252Y405264D01*
X406232D01*
X406213Y405245D01*
X406096Y405167D01*
X405941Y405050D01*
X405766Y404953D01*
X405746Y404934D01*
X405688Y404914D01*
X405610Y404856D01*
X405493Y404798D01*
X405377Y404739D01*
X405221Y404681D01*
X404871Y404584D01*
X404852D01*
X404794Y404564D01*
X404696D01*
X404580Y404545D01*
X404444Y404526D01*
X404288D01*
X403958Y404506D01*
X403841D01*
X403705Y404526D01*
X403549Y404545D01*
X403355Y404564D01*
X403161Y404603D01*
X402947Y404662D01*
X402733Y404739D01*
X402713Y404759D01*
X402655Y404778D01*
X402539Y404837D01*
X402422Y404914D01*
X402286Y405012D01*
X402130Y405128D01*
X401839Y405420D01*
X401819Y405439D01*
X401780Y405498D01*
X401703Y405595D01*
X401625Y405711D01*
X401547Y405848D01*
X401450Y406022D01*
X401353Y406217D01*
X401275Y406411D01*
Y406431D01*
X401236Y406508D01*
X401217Y406625D01*
X401178Y406781D01*
X401139Y406975D01*
X401119Y407189D01*
X401081Y407655D01*
Y407675D01*
Y407694D01*
Y407811D01*
X401100Y407986D01*
Y408219D01*
X401119Y408491D01*
X401158Y408822D01*
X401217Y409152D01*
X401275Y409502D01*
Y409522D01*
X401294Y409541D01*
Y409599D01*
X401314Y409677D01*
X401353Y409852D01*
X401411Y410105D01*
X401469Y410377D01*
X401547Y410688D01*
X401722Y411349D01*
X401605D01*
X401547Y411368D01*
X401353Y411388D01*
X401139Y411427D01*
X401119D01*
X401100Y411446D01*
X400983Y411485D01*
X400808Y411543D01*
X400633Y411621D01*
X400595Y411641D01*
X400497Y411718D01*
X400381Y411816D01*
X400245Y411932D01*
X400225Y411971D01*
X400186Y412068D01*
X400128Y412204D01*
X400109Y412379D01*
Y412399D01*
Y412438D01*
X400128Y412515D01*
X400147Y412613D01*
Y412632D01*
X400186Y412710D01*
X400206Y412807D01*
X400264Y412904D01*
X400283Y412924D01*
X400322Y413001D01*
X400381Y413079D01*
X400458Y413157D01*
X400478Y413176D01*
X400556Y413215D01*
X400633Y413235D01*
X400750Y413254D01*
X402227D01*
X402305Y413273D01*
X402383Y413332D01*
X402461Y413429D01*
X402480Y413468D01*
X402500Y413546D01*
X402539Y413643D01*
X402577Y413779D01*
Y413798D01*
X402597Y413876D01*
X402636Y413993D01*
X402655Y414129D01*
X402694Y414304D01*
X402733Y414479D01*
X402830Y414829D01*
Y414848D01*
X402850Y414907D01*
X402869Y414984D01*
X402908Y415101D01*
X402966Y415354D01*
X403025Y415606D01*
Y415626D01*
X403044Y415665D01*
X403083Y415781D01*
X403122Y415956D01*
X403161Y416112D01*
X403180Y416151D01*
X403199Y416228D01*
X403219Y416326D01*
Y416423D01*
Y416442D01*
Y416501D01*
Y416578D01*
X403199Y416676D01*
Y416695D01*
Y416773D01*
Y416889D01*
Y417045D01*
Y417142D01*
Y417162D01*
Y417200D01*
Y417278D01*
X403219Y417375D01*
Y417395D01*
X403238Y417473D01*
X403277Y417589D01*
X403316Y417764D01*
X403336Y417803D01*
X403374Y417881D01*
X403433Y417998D01*
X403549Y418133D01*
X403588Y418172D01*
X403686Y418231D01*
X403841Y418289D01*
X404055Y418328D01*
X404094D01*
X404210Y418308D01*
D02*
G37*
G36*
X384770Y413798D02*
X384945Y413779D01*
X385120Y413760D01*
X385470Y413662D01*
X385490D01*
X385548Y413643D01*
X385626Y413604D01*
X385742Y413565D01*
X385995Y413429D01*
X386228Y413254D01*
X386248Y413235D01*
X386287Y413215D01*
X386326Y413157D01*
X386403Y413079D01*
X386539Y412865D01*
X386676Y412613D01*
Y412593D01*
X386695Y412554D01*
X386734Y412476D01*
X386753Y412379D01*
X386792Y412263D01*
X386812Y412146D01*
X386831Y411835D01*
Y411816D01*
Y411777D01*
Y411699D01*
X386812Y411621D01*
X386792Y411388D01*
X386734Y411155D01*
Y411135D01*
X386695Y411057D01*
X386656Y410941D01*
X386598Y410805D01*
X386520Y410630D01*
X386423Y410455D01*
X386306Y410280D01*
X386170Y410105D01*
X386151Y410085D01*
X386092Y410027D01*
X386015Y409949D01*
X385917Y409833D01*
X385781Y409716D01*
X385606Y409580D01*
X385431Y409463D01*
X385237Y409327D01*
X385217Y409308D01*
X385140Y409269D01*
X385023Y409211D01*
X384887Y409133D01*
X384712Y409036D01*
X384498Y408958D01*
X384284Y408861D01*
X384051Y408764D01*
X384032D01*
X383934Y408725D01*
X383818Y408686D01*
X383643Y408647D01*
X383449Y408589D01*
X383235Y408511D01*
X382768Y408394D01*
X382749D01*
X382651Y408375D01*
X382535Y408355D01*
X382379Y408316D01*
X382185Y408278D01*
X381971Y408239D01*
X381524Y408161D01*
X381505D01*
X381427Y408141D01*
X381310D01*
X381174Y408122D01*
X381018Y408103D01*
X380843Y408083D01*
X380494Y408044D01*
X380474Y408005D01*
X380435Y407908D01*
X380377Y407753D01*
X380319Y407558D01*
Y407539D01*
Y407500D01*
X380299Y407461D01*
Y407383D01*
X380280Y407189D01*
X380260Y406994D01*
Y406975D01*
Y406897D01*
X380280Y406781D01*
X380319Y406644D01*
X380377Y406489D01*
X380474Y406333D01*
X380591Y406178D01*
X380746Y406042D01*
X380766Y406022D01*
X380843Y405983D01*
X380941Y405945D01*
X381096Y405886D01*
X381291Y405809D01*
X381524Y405770D01*
X381796Y405731D01*
X382107Y405711D01*
X382282D01*
X382399Y405731D01*
X382554D01*
X382710Y405750D01*
X383040Y405809D01*
X383060D01*
X383118Y405828D01*
X383215Y405848D01*
X383332Y405886D01*
X383604Y405983D01*
X383915Y406100D01*
X383934D01*
X383993Y406139D01*
X384071Y406158D01*
X384168Y406217D01*
X384401Y406333D01*
X384673Y406469D01*
X384693Y406489D01*
X384732Y406508D01*
X384809Y406547D01*
X384907Y406606D01*
X385120Y406742D01*
X385354Y406897D01*
X385373Y406917D01*
X385412Y406936D01*
X385490Y406994D01*
X385587Y407053D01*
X385820Y407189D01*
X386073Y407325D01*
X386092D01*
X386131Y407344D01*
X386190Y407383D01*
X386287Y407422D01*
X386481Y407480D01*
X386676Y407500D01*
X386714D01*
X386831Y407480D01*
X386948Y407442D01*
X387025Y407364D01*
X387045Y407344D01*
X387064Y407286D01*
X387084Y407189D01*
X387103Y407092D01*
Y407072D01*
Y407033D01*
X387084Y406917D01*
Y406897D01*
Y406878D01*
X387064Y406781D01*
Y406761D01*
Y406742D01*
X387025Y406606D01*
X386967Y406431D01*
X386851Y406236D01*
Y406217D01*
X386831Y406197D01*
X386753Y406081D01*
X386617Y405925D01*
X386462Y405770D01*
X386442D01*
X386403Y405731D01*
X386345Y405692D01*
X386267Y405634D01*
X386170Y405556D01*
X386053Y405478D01*
X385762Y405284D01*
X385412Y405089D01*
X385043Y404876D01*
X384615Y404681D01*
X384187Y404526D01*
X384168D01*
X384129Y404506D01*
X384071Y404487D01*
X383993Y404467D01*
X383876Y404448D01*
X383759Y404409D01*
X383449Y404351D01*
X383079Y404292D01*
X382671Y404234D01*
X382204Y404195D01*
X381718Y404176D01*
X381543D01*
X381349Y404195D01*
X381116Y404214D01*
X381057D01*
X380980Y404234D01*
X380902D01*
X380669Y404273D01*
X380396Y404331D01*
X380377D01*
X380338Y404351D01*
X380260Y404370D01*
X380163Y404389D01*
X379930Y404467D01*
X379658Y404584D01*
X379638D01*
X379599Y404623D01*
X379541Y404662D01*
X379444Y404701D01*
X379249Y404856D01*
X379016Y405050D01*
X378997Y405070D01*
X378977Y405109D01*
X378919Y405167D01*
X378861Y405264D01*
X378783Y405362D01*
X378705Y405498D01*
X378569Y405789D01*
Y405809D01*
X378550Y405867D01*
X378511Y405964D01*
X378491Y406081D01*
X378452Y406236D01*
X378414Y406431D01*
X378394Y406625D01*
Y406839D01*
Y406858D01*
Y406936D01*
Y407033D01*
X378414Y407169D01*
X378433Y407325D01*
X378452Y407519D01*
X378530Y407947D01*
X378511D01*
X378452Y407966D01*
X378375Y408005D01*
X378277Y408083D01*
X378258Y408103D01*
X378219Y408180D01*
X378180Y408297D01*
X378161Y408452D01*
Y408472D01*
Y408530D01*
X378180Y408608D01*
X378200Y408725D01*
X378258Y408958D01*
X378316Y409094D01*
X378394Y409211D01*
X378414Y409230D01*
X378433Y409269D01*
X378491Y409327D01*
X378569Y409385D01*
X378783Y409541D01*
X378919Y409599D01*
X379055Y409658D01*
Y409677D01*
X379075Y409697D01*
X379113Y409755D01*
X379152Y409833D01*
X379249Y410027D01*
X379405Y410280D01*
X379424Y410299D01*
X379444Y410358D01*
X379502Y410435D01*
X379580Y410552D01*
X379658Y410669D01*
X379774Y410824D01*
X380008Y411155D01*
X380027Y411174D01*
X380066Y411232D01*
X380144Y411330D01*
X380241Y411446D01*
X380377Y411582D01*
X380513Y411738D01*
X380824Y412088D01*
X380843Y412107D01*
X380902Y412165D01*
X380999Y412263D01*
X381135Y412379D01*
X381271Y412496D01*
X381446Y412651D01*
X381835Y412943D01*
X381854Y412962D01*
X381932Y413001D01*
X382049Y413079D01*
X382204Y413176D01*
X382379Y413273D01*
X382574Y413371D01*
X383040Y413565D01*
X383079Y413585D01*
X383157Y413604D01*
X383274Y413643D01*
X383449Y413701D01*
X383662Y413740D01*
X383896Y413779D01*
X384148Y413798D01*
X384420Y413818D01*
X384634D01*
X384770Y413798D01*
D02*
G37*
G36*
X390754Y365199D02*
X390827D01*
X390921Y365186D01*
X391034Y365172D01*
X391154Y365152D01*
X391280Y365132D01*
X391420Y365099D01*
X391560Y365059D01*
X391707Y365006D01*
X391853Y364946D01*
X392000Y364879D01*
X392140Y364793D01*
X392273Y364700D01*
X392399Y364593D01*
X392406Y364586D01*
X392426Y364566D01*
X392459Y364533D01*
X392499Y364486D01*
X392552Y364426D01*
X392606Y364353D01*
X392659Y364267D01*
X392726Y364173D01*
X392786Y364067D01*
X392839Y363953D01*
X392899Y363827D01*
X392945Y363694D01*
X392985Y363554D01*
X393019Y363401D01*
X393039Y363241D01*
X393045Y363074D01*
Y363068D01*
Y363054D01*
Y363028D01*
Y362995D01*
X393039Y362954D01*
Y362901D01*
X393019Y362788D01*
X392999Y362648D01*
X392965Y362495D01*
X392919Y362329D01*
X392852Y362162D01*
Y362155D01*
X392845Y362142D01*
X392832Y362115D01*
X392819Y362089D01*
X392799Y362042D01*
X392772Y361996D01*
X392739Y361942D01*
X392706Y361882D01*
X392619Y361742D01*
X392512Y361583D01*
X392379Y361409D01*
X392226Y361230D01*
X392219Y361223D01*
X392206Y361210D01*
X392179Y361176D01*
X392146Y361136D01*
X392093Y361090D01*
X392033Y361030D01*
X391966Y360957D01*
X391886Y360877D01*
X391787Y360783D01*
X391680Y360683D01*
X391567Y360570D01*
X391434Y360450D01*
X391294Y360324D01*
X391134Y360184D01*
X390967Y360037D01*
X390781Y359878D01*
X390774Y359871D01*
X390741Y359844D01*
X390701Y359811D01*
X390641Y359764D01*
X390574Y359704D01*
X390501Y359638D01*
X390415Y359565D01*
X390328Y359491D01*
X390142Y359331D01*
X389962Y359172D01*
X389882Y359098D01*
X389802Y359025D01*
X389742Y358965D01*
X389689Y358912D01*
X389675Y358899D01*
X389649Y358872D01*
X389602Y358819D01*
X389549Y358752D01*
X389489Y358679D01*
X389422Y358592D01*
X389356Y358499D01*
X389296Y358406D01*
X393059D01*
Y357500D01*
X387984D01*
Y357507D01*
Y357513D01*
Y357533D01*
Y357560D01*
Y357627D01*
X387990Y357706D01*
X388004Y357806D01*
X388024Y357920D01*
X388050Y358033D01*
X388090Y358153D01*
Y358159D01*
X388097Y358179D01*
X388110Y358206D01*
X388130Y358239D01*
X388150Y358286D01*
X388177Y358346D01*
X388203Y358406D01*
X388243Y358472D01*
X388323Y358632D01*
X388437Y358799D01*
X388563Y358985D01*
X388710Y359172D01*
X388716Y359178D01*
X388730Y359192D01*
X388756Y359225D01*
X388790Y359258D01*
X388836Y359305D01*
X388889Y359365D01*
X388949Y359431D01*
X389023Y359505D01*
X389109Y359585D01*
X389196Y359671D01*
X389302Y359771D01*
X389409Y359871D01*
X389529Y359978D01*
X389655Y360091D01*
X389795Y360211D01*
X389942Y360331D01*
X389948D01*
X389955Y360344D01*
X389995Y360377D01*
X390062Y360430D01*
X390142Y360504D01*
X390248Y360590D01*
X390361Y360690D01*
X390488Y360803D01*
X390621Y360923D01*
X390761Y361050D01*
X390907Y361183D01*
X391047Y361316D01*
X391187Y361456D01*
X391314Y361589D01*
X391434Y361722D01*
X391540Y361842D01*
X391633Y361962D01*
X391640Y361969D01*
X391653Y361989D01*
X391673Y362022D01*
X391700Y362062D01*
X391733Y362115D01*
X391773Y362182D01*
X391813Y362249D01*
X391853Y362329D01*
X391933Y362502D01*
X392006Y362695D01*
X392033Y362795D01*
X392053Y362895D01*
X392066Y362995D01*
X392073Y363094D01*
Y363101D01*
Y363121D01*
Y363148D01*
X392066Y363188D01*
X392060Y363234D01*
X392053Y363294D01*
X392040Y363354D01*
X392026Y363421D01*
X391973Y363574D01*
X391946Y363647D01*
X391906Y363727D01*
X391860Y363807D01*
X391807Y363887D01*
X391746Y363967D01*
X391673Y364040D01*
X391667Y364047D01*
X391653Y364060D01*
X391633Y364073D01*
X391600Y364100D01*
X391560Y364127D01*
X391513Y364160D01*
X391460Y364200D01*
X391394Y364233D01*
X391320Y364267D01*
X391240Y364306D01*
X391154Y364340D01*
X391061Y364367D01*
X390967Y364393D01*
X390861Y364413D01*
X390747Y364420D01*
X390628Y364426D01*
X390561D01*
X390514Y364420D01*
X390461Y364413D01*
X390395Y364406D01*
X390315Y364393D01*
X390235Y364373D01*
X390062Y364327D01*
X389975Y364293D01*
X389882Y364253D01*
X389795Y364207D01*
X389709Y364147D01*
X389622Y364087D01*
X389542Y364014D01*
X389535Y364007D01*
X389522Y363994D01*
X389502Y363973D01*
X389482Y363940D01*
X389449Y363894D01*
X389416Y363847D01*
X389376Y363787D01*
X389342Y363720D01*
X389302Y363640D01*
X389262Y363554D01*
X389229Y363461D01*
X389202Y363361D01*
X389176Y363254D01*
X389156Y363134D01*
X389142Y363015D01*
X389136Y362881D01*
X388163Y362981D01*
Y362995D01*
X388170Y363028D01*
X388177Y363088D01*
X388190Y363161D01*
X388203Y363248D01*
X388230Y363354D01*
X388257Y363467D01*
X388290Y363594D01*
X388337Y363727D01*
X388383Y363860D01*
X388443Y364000D01*
X388516Y364133D01*
X388596Y364273D01*
X388683Y364400D01*
X388790Y364520D01*
X388903Y364633D01*
X388909Y364639D01*
X388936Y364660D01*
X388969Y364686D01*
X389023Y364719D01*
X389089Y364766D01*
X389169Y364813D01*
X389262Y364866D01*
X389369Y364919D01*
X389482Y364972D01*
X389615Y365026D01*
X389762Y365072D01*
X389915Y365119D01*
X390082Y365152D01*
X390261Y365179D01*
X390448Y365199D01*
X390648Y365206D01*
X390694D01*
X390754Y365199D01*
D02*
G37*
G36*
X403588Y357500D02*
X402642D01*
Y363501D01*
X402636Y363494D01*
X402629Y363487D01*
X402609Y363467D01*
X402582Y363447D01*
X402542Y363414D01*
X402502Y363381D01*
X402456Y363341D01*
X402402Y363294D01*
X402269Y363201D01*
X402116Y363088D01*
X401943Y362968D01*
X401743Y362848D01*
X401736Y362841D01*
X401717Y362835D01*
X401690Y362815D01*
X401650Y362795D01*
X401603Y362768D01*
X401550Y362741D01*
X401483Y362702D01*
X401417Y362668D01*
X401264Y362588D01*
X401097Y362508D01*
X400924Y362428D01*
X400758Y362362D01*
Y363274D01*
X400764Y363281D01*
X400791Y363294D01*
X400837Y363314D01*
X400891Y363341D01*
X400957Y363374D01*
X401037Y363421D01*
X401124Y363467D01*
X401224Y363527D01*
X401330Y363587D01*
X401437Y363661D01*
X401670Y363814D01*
X401910Y363987D01*
X402136Y364173D01*
X402143Y364180D01*
X402163Y364200D01*
X402189Y364227D01*
X402236Y364267D01*
X402283Y364313D01*
X402336Y364367D01*
X402396Y364433D01*
X402462Y364500D01*
X402602Y364660D01*
X402742Y364833D01*
X402869Y365019D01*
X402929Y365112D01*
X402975Y365206D01*
X403588D01*
Y357500D01*
D02*
G37*
G36*
X386326Y400610D02*
X386481D01*
X386676Y400591D01*
X387064Y400513D01*
X387084D01*
X387161Y400494D01*
X387259Y400474D01*
X387375Y400435D01*
X387686Y400319D01*
X387997Y400163D01*
X388017Y400144D01*
X388075Y400124D01*
X388134Y400066D01*
X388231Y400008D01*
X388445Y399794D01*
X388639Y399541D01*
X388658Y399522D01*
X388678Y399483D01*
X388717Y399386D01*
X388775Y399288D01*
X388814Y399152D01*
X388853Y398997D01*
X388872Y398802D01*
X388892Y398608D01*
Y398589D01*
Y398569D01*
Y398452D01*
X388872Y398277D01*
X388833Y398044D01*
X388775Y397792D01*
X388678Y397500D01*
X388561Y397208D01*
X388386Y396917D01*
X388367Y396878D01*
X388289Y396781D01*
X388192Y396645D01*
X388036Y396450D01*
X387823Y396236D01*
X387589Y396003D01*
X387317Y395770D01*
X386987Y395517D01*
X386967D01*
X386948Y395498D01*
X386889Y395459D01*
X386831Y395400D01*
X386637Y395284D01*
X386365Y395128D01*
X386053Y394934D01*
X385684Y394739D01*
X385256Y394526D01*
X384790Y394312D01*
X384770D01*
X384732Y394292D01*
X384654Y394253D01*
X384576Y394215D01*
X384440Y394156D01*
X384304Y394098D01*
X384148Y394040D01*
X383954Y393962D01*
X383546Y393806D01*
X383060Y393612D01*
X382535Y393418D01*
X381952Y393223D01*
X382010D01*
X382068Y393204D01*
X382165Y393184D01*
X382263Y393165D01*
X382399Y393145D01*
X382690Y393087D01*
X383021Y393029D01*
X383390Y392951D01*
X383759Y392854D01*
X384109Y392757D01*
X384129D01*
X384148Y392737D01*
X384265Y392718D01*
X384420Y392659D01*
X384634Y392582D01*
X384868Y392504D01*
X385120Y392387D01*
X385373Y392290D01*
X385606Y392154D01*
X385626Y392134D01*
X385703Y392096D01*
X385820Y392018D01*
X385937Y391921D01*
X386092Y391804D01*
X386228Y391668D01*
X386365Y391512D01*
X386481Y391357D01*
X386501Y391337D01*
X386520Y391279D01*
X386578Y391182D01*
X386637Y391065D01*
X386676Y390910D01*
X386734Y390735D01*
X386753Y390560D01*
X386773Y390346D01*
Y390307D01*
Y390210D01*
X386753Y390054D01*
X386714Y389860D01*
X386656Y389627D01*
X386578Y389355D01*
X386481Y389082D01*
X386326Y388771D01*
X386306Y388733D01*
X386248Y388635D01*
X386131Y388480D01*
X385976Y388285D01*
X385781Y388052D01*
X385529Y387799D01*
X385237Y387547D01*
X384887Y387275D01*
X384868D01*
X384829Y387236D01*
X384770Y387197D01*
X384673Y387138D01*
X384557Y387061D01*
X384440Y386983D01*
X384129Y386808D01*
X384109Y386789D01*
X384051Y386769D01*
X383973Y386711D01*
X383857Y386652D01*
X383701Y386575D01*
X383546Y386497D01*
X383176Y386302D01*
X383157Y386283D01*
X383099Y386264D01*
X382982Y386205D01*
X382846Y386147D01*
X382690Y386069D01*
X382515Y385991D01*
X382107Y385817D01*
X382088Y385797D01*
X382010Y385778D01*
X381893Y385739D01*
X381757Y385680D01*
X381582Y385622D01*
X381388Y385544D01*
X380960Y385408D01*
X380941D01*
X380863Y385389D01*
X380746Y385350D01*
X380591Y385311D01*
X380416Y385253D01*
X380221Y385214D01*
X379813Y385117D01*
X379794D01*
X379716Y385097D01*
X379619Y385078D01*
X379483Y385058D01*
X379327Y385039D01*
X379152Y385019D01*
X378783Y385000D01*
X378647D01*
X378511Y385019D01*
X378375Y385039D01*
X378355D01*
X378277Y385078D01*
X378161Y385117D01*
X378044Y385175D01*
X378025Y385194D01*
X377966Y385253D01*
X377869Y385331D01*
X377753Y385447D01*
X377733Y385467D01*
X377675Y385564D01*
X377578Y385680D01*
X377461Y385855D01*
X377442D01*
X377422Y385817D01*
X377305Y385758D01*
X377131Y385661D01*
X376917Y385583D01*
X376897D01*
X376878Y385564D01*
X376819Y385544D01*
X376742D01*
X376567Y385505D01*
X376353Y385486D01*
X376022D01*
X375964Y385505D01*
X375906Y385544D01*
X375886Y385564D01*
X375867Y385583D01*
X375770Y385680D01*
Y385700D01*
X375731Y385739D01*
X375673Y385855D01*
Y385875D01*
Y385933D01*
X375653Y386069D01*
Y386089D01*
Y386166D01*
Y386264D01*
X375673Y386400D01*
X375692Y386555D01*
X375711Y386711D01*
X375809Y387080D01*
Y387100D01*
X375828Y387158D01*
X375867Y387275D01*
X375906Y387391D01*
X375964Y387547D01*
X376022Y387722D01*
X376158Y388071D01*
Y388091D01*
X376178Y388110D01*
X376217Y388227D01*
X376275Y388402D01*
X376353Y388635D01*
X376431Y388927D01*
X376528Y389238D01*
X376644Y389588D01*
X376761Y389957D01*
Y389977D01*
X376781Y389996D01*
X376800Y390054D01*
X376819Y390132D01*
X376878Y390327D01*
X376956Y390579D01*
X377033Y390871D01*
X377131Y391221D01*
X377247Y391571D01*
X377344Y391940D01*
Y391960D01*
X377364Y391979D01*
X377383Y392037D01*
X377403Y392115D01*
X377442Y392309D01*
X377519Y392562D01*
X377597Y392873D01*
X377694Y393204D01*
X377791Y393554D01*
X377889Y393923D01*
Y393942D01*
X377908Y393962D01*
Y394020D01*
X377927Y394098D01*
X377986Y394273D01*
X378064Y394526D01*
X378141Y394798D01*
X378219Y395109D01*
X378394Y395770D01*
X378686Y396994D01*
Y397033D01*
Y397072D01*
X378666Y397169D01*
Y397189D01*
Y397267D01*
Y397383D01*
X378647Y397500D01*
Y397539D01*
Y397597D01*
X378627Y397714D01*
Y397811D01*
X378608Y397947D01*
X378666Y398141D01*
X378647Y398122D01*
X378666Y398161D01*
X378686Y398258D01*
X378744Y398394D01*
X378802Y398550D01*
Y398569D01*
X378822Y398589D01*
X378861Y398705D01*
X378938Y398861D01*
X379036Y399016D01*
Y399036D01*
X379055Y399055D01*
X379133Y399133D01*
X379211Y399250D01*
X379327Y399366D01*
X379366Y399386D01*
X379444Y399444D01*
X379560Y399502D01*
X379697Y399522D01*
X379813D01*
X379969Y399502D01*
X380144Y399483D01*
X380319D01*
X380474Y399463D01*
X380882D01*
X380941Y399483D01*
X381018Y399502D01*
X381116Y399522D01*
X381135D01*
X381232Y399561D01*
X381349Y399580D01*
X381524Y399638D01*
X381543D01*
X381563Y399658D01*
X381621Y399677D01*
X381699Y399697D01*
X381893Y399774D01*
X382165Y399872D01*
X382185Y399891D01*
X382263Y399910D01*
X382379Y399949D01*
X382535Y399988D01*
X382710Y400047D01*
X382885Y400105D01*
X383274Y400221D01*
X383293D01*
X383351Y400241D01*
X383449Y400280D01*
X383585Y400299D01*
X383721Y400338D01*
X383896Y400377D01*
X384226Y400455D01*
X384245D01*
X384304Y400474D01*
X384401Y400494D01*
X384518Y400513D01*
X384790Y400552D01*
X385101Y400591D01*
X385179D01*
X385256Y400610D01*
X385509D01*
X385645Y400630D01*
X386190D01*
X386326Y400610D01*
D02*
G37*
G36*
X396007Y396042D02*
X396201Y396003D01*
X396415Y395964D01*
X396648Y395886D01*
X396882Y395770D01*
X397095Y395634D01*
X397115Y395614D01*
X397193Y395556D01*
X397290Y395459D01*
X397426Y395342D01*
X397581Y395187D01*
X397737Y394992D01*
X397892Y394759D01*
X398048Y394506D01*
Y394487D01*
X398067Y394467D01*
X398126Y394370D01*
X398184Y394215D01*
X398262Y394040D01*
X398281Y394001D01*
X398320Y393903D01*
X398378Y393748D01*
X398417Y393573D01*
Y393554D01*
X398437Y393534D01*
X398456Y393418D01*
X398495Y393243D01*
X398534Y393029D01*
Y393009D01*
Y392990D01*
X398553Y392932D01*
Y392854D01*
X398573Y392640D01*
Y392387D01*
Y392348D01*
Y392251D01*
X398553Y392076D01*
X398534Y391862D01*
X398515Y391610D01*
X398456Y391318D01*
X398398Y391007D01*
X398301Y390676D01*
X398281Y390638D01*
X398262Y390521D01*
X398203Y390365D01*
X398106Y390152D01*
X398009Y389879D01*
X397892Y389607D01*
X397737Y389296D01*
X397562Y388985D01*
X397543Y388946D01*
X397484Y388849D01*
X397368Y388674D01*
X397231Y388480D01*
X397057Y388227D01*
X396862Y387955D01*
X396629Y387683D01*
X396376Y387391D01*
X396337Y387352D01*
X396259Y387275D01*
X396104Y387119D01*
X395929Y386944D01*
X395696Y386730D01*
X395443Y386497D01*
X395151Y386264D01*
X394840Y386030D01*
X394821Y386011D01*
X394743Y385972D01*
X394626Y385894D01*
X394471Y385797D01*
X394277Y385700D01*
X394063Y385603D01*
X393810Y385505D01*
X393557Y385408D01*
X393518D01*
X393441Y385369D01*
X393305Y385350D01*
X393110Y385311D01*
X392877Y385272D01*
X392624Y385233D01*
X392333Y385214D01*
X392021Y385194D01*
X391885D01*
X391730Y385214D01*
X391535D01*
X391322Y385253D01*
X391088Y385292D01*
X390836Y385331D01*
X390602Y385408D01*
X390583Y385428D01*
X390505Y385447D01*
X390389Y385486D01*
X390252Y385564D01*
X390097Y385642D01*
X389922Y385739D01*
X389747Y385875D01*
X389592Y386011D01*
X389572Y386030D01*
X389533Y386089D01*
X389455Y386166D01*
X389378Y386283D01*
X389281Y386419D01*
X389183Y386594D01*
X389008Y386963D01*
Y386983D01*
X388969Y387061D01*
X388950Y387177D01*
X388911Y387333D01*
X388872Y387527D01*
X388853Y387741D01*
X388814Y387974D01*
Y388227D01*
Y388266D01*
Y388344D01*
X388833Y388480D01*
Y388655D01*
X388853Y388869D01*
X388892Y389102D01*
X388950Y389374D01*
X389008Y389646D01*
Y389685D01*
X389047Y389763D01*
X389067Y389899D01*
X389125Y390074D01*
X389203Y390268D01*
X389281Y390501D01*
X389378Y390754D01*
X389494Y391026D01*
X389514Y391065D01*
X389553Y391143D01*
X389630Y391299D01*
X389728Y391474D01*
X389844Y391707D01*
X390000Y391940D01*
X390175Y392212D01*
X390369Y392484D01*
X390389Y392523D01*
X390466Y392620D01*
X390583Y392757D01*
X390739Y392951D01*
X390933Y393165D01*
X391147Y393418D01*
X391399Y393670D01*
X391672Y393942D01*
X391710Y393981D01*
X391808Y394059D01*
X391963Y394195D01*
X392177Y394370D01*
X392430Y394584D01*
X392721Y394798D01*
X393071Y395031D01*
X393421Y395264D01*
X393460Y395284D01*
X393538Y395323D01*
X393693Y395400D01*
X393907Y395478D01*
X393927D01*
X393966Y395498D01*
X394024Y395517D01*
X394121Y395536D01*
X394335Y395595D01*
X394588Y395614D01*
X394607Y395634D01*
X394665Y395692D01*
X394763Y395750D01*
X394899Y395848D01*
X395054Y395925D01*
X395249Y395984D01*
X395462Y396042D01*
X395715Y396061D01*
X395851D01*
X396007Y396042D01*
D02*
G37*
G36*
X365966Y357500D02*
X364987D01*
Y363927D01*
X362742Y357500D01*
X361830D01*
X359612Y364040D01*
Y357500D01*
X358633D01*
Y365179D01*
X360158D01*
X361976Y359738D01*
Y359731D01*
X361990Y359704D01*
X362003Y359665D01*
X362016Y359611D01*
X362036Y359551D01*
X362063Y359478D01*
X362090Y359398D01*
X362116Y359312D01*
X362176Y359125D01*
X362236Y358939D01*
X362296Y358759D01*
X362323Y358672D01*
X362343Y358599D01*
Y358606D01*
X362349Y358619D01*
X362356Y358646D01*
X362369Y358679D01*
X362383Y358719D01*
X362403Y358772D01*
X362423Y358839D01*
X362442Y358912D01*
X362469Y358992D01*
X362503Y359085D01*
X362536Y359185D01*
X362576Y359298D01*
X362616Y359418D01*
X362656Y359545D01*
X362702Y359684D01*
X362756Y359831D01*
X364594Y365179D01*
X365966D01*
Y357500D01*
D02*
G37*
G36*
X409323Y396081D02*
X409420D01*
X409615Y396003D01*
X409692Y395964D01*
X409770Y395886D01*
X409790Y395848D01*
X409867Y395731D01*
X409926Y395575D01*
X409945Y395342D01*
Y395323D01*
Y395284D01*
Y395206D01*
X409926Y395128D01*
X409887Y394895D01*
X409809Y394662D01*
Y394642D01*
X409790Y394623D01*
X409712Y394487D01*
X409595Y394351D01*
X409459Y394195D01*
X409440Y394176D01*
X409401Y394156D01*
X409343Y394098D01*
X409265Y394040D01*
X409051Y393845D01*
X408779Y393612D01*
X408759Y393593D01*
X408720Y393554D01*
X408643Y393476D01*
X408565Y393398D01*
X408312Y393145D01*
X408040Y392873D01*
X408021Y392854D01*
X407982Y392815D01*
X407904Y392737D01*
X407807Y392640D01*
X407574Y392407D01*
X407301Y392134D01*
X407282Y392115D01*
X407243Y392076D01*
X407165Y391998D01*
X407088Y391921D01*
X406854Y391707D01*
X406621Y391474D01*
X406601Y391454D01*
X406543Y391396D01*
X406485Y391318D01*
X406407Y391240D01*
X406388Y391221D01*
X406368Y391162D01*
X406329Y391065D01*
X406310Y390929D01*
Y390910D01*
Y390871D01*
X406329Y390774D01*
X406368Y390676D01*
X406388Y390657D01*
X406407Y390579D01*
X406465Y390463D01*
X406524Y390327D01*
X406543Y390288D01*
X406582Y390210D01*
X406640Y390093D01*
X406699Y389957D01*
X406718Y389938D01*
X406757Y389860D01*
X406815Y389743D01*
X406854Y389627D01*
Y389607D01*
X406874Y389588D01*
X406913Y389510D01*
X406951Y389432D01*
X407068Y389218D01*
X407204Y388946D01*
X407224Y388927D01*
X407243Y388888D01*
X407282Y388810D01*
X407360Y388694D01*
X407418Y388577D01*
X407496Y388441D01*
X407671Y388130D01*
X407690Y388110D01*
X407710Y388052D01*
X407749Y387974D01*
X407807Y387858D01*
X407865Y387722D01*
X407943Y387585D01*
X408060Y387255D01*
Y387236D01*
X408079Y387177D01*
X408118Y387100D01*
X408157Y386983D01*
X408215Y386711D01*
X408235Y386419D01*
Y386400D01*
Y386380D01*
Y386264D01*
X408196Y386108D01*
X408157Y385933D01*
X408137Y385894D01*
X408098Y385817D01*
X408040Y385680D01*
X407962Y385564D01*
X407943Y385544D01*
X407885Y385467D01*
X407807Y385389D01*
X407710Y385311D01*
X407690Y385292D01*
X407632Y385272D01*
X407535Y385233D01*
X407437Y385214D01*
X407399D01*
X407282Y385233D01*
X407126Y385253D01*
X406990Y385292D01*
X406971Y385311D01*
X406893Y385331D01*
X406815Y385408D01*
X406718Y385486D01*
X406699Y385505D01*
X406660Y385564D01*
X406582Y385661D01*
X406524Y385778D01*
X406504Y385817D01*
X406465Y385894D01*
X406427Y386030D01*
X406349Y386205D01*
Y386225D01*
X406329Y386283D01*
X406290Y386361D01*
X406252Y386458D01*
X406193Y386594D01*
X406135Y386750D01*
X405979Y387100D01*
Y387119D01*
X405941Y387177D01*
X405902Y387294D01*
X405843Y387411D01*
X405766Y387566D01*
X405688Y387741D01*
X405513Y388091D01*
X405493Y388110D01*
X405474Y388169D01*
X405435Y388266D01*
X405377Y388402D01*
X405299Y388538D01*
X405221Y388694D01*
X405066Y389024D01*
Y389043D01*
X405027Y389102D01*
X405007Y389180D01*
X404949Y389277D01*
X404852Y389491D01*
X404794Y389588D01*
X404755Y389685D01*
X404735Y389666D01*
X404696Y389646D01*
X404638Y389607D01*
X404560Y389529D01*
X404366Y389374D01*
X404133Y389199D01*
X404113Y389180D01*
X404074Y389160D01*
X404016Y389102D01*
X403919Y389024D01*
X403802Y388927D01*
X403666Y388830D01*
X403491Y388694D01*
X403316Y388558D01*
X403297Y388538D01*
X403238Y388480D01*
X403122Y388402D01*
X402986Y388285D01*
X402791Y388149D01*
X402577Y387974D01*
X402325Y387780D01*
X402053Y387566D01*
X402014Y387547D01*
X401917Y387449D01*
X401742Y387333D01*
X401528Y387138D01*
X401236Y386925D01*
X400906Y386652D01*
X400517Y386361D01*
X400089Y386011D01*
X400070D01*
X400050Y385991D01*
X399992Y385953D01*
X399914Y385933D01*
X399700Y385855D01*
X399428Y385836D01*
X399331D01*
X399214Y385855D01*
X399098Y385894D01*
X399078Y385914D01*
X399020Y385953D01*
X398942Y386011D01*
X398864Y386089D01*
X398845Y386108D01*
X398806Y386186D01*
X398767Y386264D01*
X398709Y386380D01*
Y386400D01*
X398689Y386477D01*
X398670Y386575D01*
Y386691D01*
Y386711D01*
Y386730D01*
X398689Y386827D01*
X398709Y386944D01*
X398748Y387061D01*
X398767Y387080D01*
X398806Y387158D01*
X398884Y387236D01*
X398962Y387313D01*
X398981Y387333D01*
X399059Y387391D01*
X399137Y387449D01*
X399253Y387508D01*
X399273Y387527D01*
X399350Y387547D01*
X399448Y387605D01*
X399545Y387644D01*
X399564Y387663D01*
X399623Y387702D01*
X399700Y387760D01*
X399817Y387838D01*
X399973Y387916D01*
X400128Y388033D01*
X400497Y388305D01*
X400517Y388324D01*
X400595Y388383D01*
X400692Y388460D01*
X400828Y388577D01*
X401003Y388694D01*
X401178Y388849D01*
X401586Y389180D01*
X401605Y389199D01*
X401683Y389257D01*
X401800Y389355D01*
X401936Y389471D01*
X402111Y389607D01*
X402286Y389763D01*
X402694Y390113D01*
X402713Y390132D01*
X402791Y390191D01*
X402908Y390288D01*
X403044Y390404D01*
X403199Y390540D01*
X403374Y390696D01*
X403763Y391026D01*
X404230Y391454D01*
Y391474D01*
X404210Y391551D01*
X404172Y391649D01*
X404133Y391785D01*
X404035Y392076D01*
X403919Y392387D01*
Y392407D01*
X403899Y392445D01*
X403861Y392523D01*
X403822Y392620D01*
X403705Y392834D01*
X403588Y393068D01*
Y393087D01*
X403569Y393126D01*
X403530Y393184D01*
X403491Y393262D01*
X403394Y393437D01*
X403277Y393651D01*
Y393670D01*
X403258Y393690D01*
X403219Y393748D01*
X403180Y393826D01*
X403063Y394020D01*
X402927Y394234D01*
Y394253D01*
X402908Y394273D01*
X402830Y394390D01*
X402733Y394526D01*
X402655Y394642D01*
X402636Y394662D01*
X402616Y394739D01*
X402597Y394837D01*
X402577Y394953D01*
Y394973D01*
Y395031D01*
X402597Y395109D01*
X402616Y395206D01*
X402636Y395225D01*
X402655Y395303D01*
X402713Y395400D01*
X402791Y395498D01*
X402811Y395517D01*
X402869Y395595D01*
X402966Y395673D01*
X403083Y395750D01*
X403122Y395770D01*
X403199Y395809D01*
X403336Y395828D01*
X403491Y395848D01*
X403608D01*
X403686Y395828D01*
X403880Y395789D01*
X404074Y395711D01*
X404094D01*
X404113Y395692D01*
X404230Y395614D01*
X404385Y395498D01*
X404541Y395342D01*
X404560D01*
X404580Y395303D01*
X404658Y395206D01*
X404774Y395051D01*
X404891Y394856D01*
Y394837D01*
X404910Y394817D01*
X404988Y394701D01*
X405066Y394545D01*
X405163Y394370D01*
X405182Y394351D01*
X405202Y394292D01*
X405241Y394176D01*
X405299Y394040D01*
X405318Y394001D01*
X405338Y393903D01*
X405396Y393748D01*
X405435Y393573D01*
Y393554D01*
X405455Y393534D01*
X405474Y393437D01*
X405532Y393281D01*
X405571Y393107D01*
X405591Y393068D01*
X405610Y392970D01*
X405649Y392854D01*
X405688Y392718D01*
X405707Y392737D01*
X405766Y392795D01*
X405863Y392893D01*
X405979Y393009D01*
X406115Y393145D01*
X406271Y393301D01*
X406582Y393651D01*
X406601Y393670D01*
X406660Y393729D01*
X406757Y393845D01*
X406874Y393981D01*
X407029Y394137D01*
X407185Y394331D01*
X407379Y394545D01*
X407574Y394778D01*
Y394798D01*
X407593Y394817D01*
X407671Y394914D01*
X407787Y395051D01*
X407904Y395225D01*
Y395245D01*
X407943Y395264D01*
X408021Y395361D01*
X408157Y395498D01*
X408293Y395653D01*
X408312D01*
X408332Y395692D01*
X408429Y395770D01*
X408565Y395867D01*
X408720Y395964D01*
X408740D01*
X408759Y395984D01*
X408857Y396042D01*
X409012Y396081D01*
X409187Y396100D01*
X409245D01*
X409323Y396081D01*
D02*
G37*
G36*
X408543Y365199D02*
X408610Y365192D01*
X408683Y365186D01*
X408770Y365172D01*
X408869Y365152D01*
X408969Y365132D01*
X409076Y365106D01*
X409189Y365072D01*
X409309Y365033D01*
X409429Y364986D01*
X409549Y364933D01*
X409662Y364873D01*
X409782Y364799D01*
X409789Y364793D01*
X409808Y364779D01*
X409842Y364759D01*
X409882Y364726D01*
X409935Y364686D01*
X409995Y364633D01*
X410062Y364573D01*
X410135Y364506D01*
X410208Y364433D01*
X410288Y364347D01*
X410368Y364253D01*
X410448Y364147D01*
X410521Y364034D01*
X410594Y363920D01*
X410668Y363787D01*
X410728Y363654D01*
X410734Y363647D01*
X410741Y363620D01*
X410761Y363574D01*
X410781Y363514D01*
X410801Y363441D01*
X410834Y363341D01*
X410861Y363234D01*
X410894Y363108D01*
X410921Y362961D01*
X410954Y362801D01*
X410981Y362621D01*
X411001Y362428D01*
X411027Y362222D01*
X411041Y361996D01*
X411047Y361756D01*
X411054Y361496D01*
Y361489D01*
Y361483D01*
Y361456D01*
Y361429D01*
Y361396D01*
Y361356D01*
X411047Y361250D01*
Y361130D01*
X411041Y360983D01*
X411027Y360823D01*
X411014Y360650D01*
X410994Y360470D01*
X410974Y360277D01*
X410921Y359884D01*
X410881Y359691D01*
X410841Y359505D01*
X410787Y359325D01*
X410734Y359152D01*
X410728Y359145D01*
X410721Y359112D01*
X410701Y359065D01*
X410674Y359012D01*
X410641Y358939D01*
X410601Y358852D01*
X410554Y358759D01*
X410494Y358659D01*
X410434Y358552D01*
X410361Y358446D01*
X410281Y358332D01*
X410195Y358226D01*
X410108Y358119D01*
X410002Y358013D01*
X409895Y357913D01*
X409782Y357826D01*
X409775Y357820D01*
X409755Y357806D01*
X409715Y357786D01*
X409669Y357753D01*
X409609Y357720D01*
X409535Y357686D01*
X409455Y357640D01*
X409362Y357600D01*
X409256Y357560D01*
X409142Y357520D01*
X409023Y357480D01*
X408889Y357447D01*
X408756Y357413D01*
X408610Y357393D01*
X408457Y357380D01*
X408303Y357373D01*
X408263D01*
X408217Y357380D01*
X408150D01*
X408077Y357387D01*
X407984Y357400D01*
X407890Y357413D01*
X407777Y357433D01*
X407664Y357460D01*
X407544Y357493D01*
X407424Y357533D01*
X407298Y357587D01*
X407171Y357640D01*
X407051Y357706D01*
X406938Y357786D01*
X406825Y357873D01*
X406818Y357880D01*
X406798Y357900D01*
X406772Y357926D01*
X406732Y357966D01*
X406692Y358019D01*
X406638Y358079D01*
X406585Y358153D01*
X406525Y358239D01*
X406472Y358332D01*
X406412Y358439D01*
X406352Y358552D01*
X406299Y358679D01*
X406252Y358812D01*
X406205Y358959D01*
X406172Y359112D01*
X406145Y359278D01*
X407051Y359365D01*
Y359358D01*
X407058Y359338D01*
X407064Y359305D01*
X407071Y359258D01*
X407085Y359205D01*
X407104Y359145D01*
X407151Y359005D01*
X407204Y358852D01*
X407284Y358699D01*
X407371Y358552D01*
X407424Y358492D01*
X407484Y358432D01*
X407491D01*
X407497Y358419D01*
X407517Y358406D01*
X407544Y358386D01*
X407577Y358366D01*
X407617Y358339D01*
X407711Y358293D01*
X407830Y358239D01*
X407970Y358193D01*
X408137Y358159D01*
X408223Y358153D01*
X408317Y358146D01*
X408390D01*
X408430Y358153D01*
X408470Y358159D01*
X408576Y358173D01*
X408696Y358193D01*
X408823Y358226D01*
X408956Y358273D01*
X409083Y358339D01*
X409089D01*
X409096Y358346D01*
X409136Y358379D01*
X409196Y358419D01*
X409269Y358479D01*
X409356Y358559D01*
X409442Y358646D01*
X409535Y358752D01*
X409615Y358872D01*
Y358879D01*
X409622Y358885D01*
X409635Y358905D01*
X409649Y358932D01*
X409669Y358965D01*
X409689Y359005D01*
X409715Y359052D01*
X409742Y359112D01*
X409795Y359238D01*
X409855Y359391D01*
X409915Y359571D01*
X409968Y359771D01*
Y359778D01*
X409975Y359798D01*
X409982Y359824D01*
X409988Y359871D01*
X410002Y359918D01*
X410015Y359984D01*
X410028Y360051D01*
X410042Y360131D01*
X410048Y360211D01*
X410062Y360304D01*
X410088Y360497D01*
X410102Y360703D01*
X410108Y360923D01*
Y360937D01*
Y360970D01*
Y361030D01*
Y361103D01*
X410095Y361090D01*
X410081Y361070D01*
X410055Y361036D01*
X410028Y360997D01*
X409995Y360957D01*
X409902Y360850D01*
X409795Y360737D01*
X409662Y360617D01*
X409502Y360497D01*
X409329Y360384D01*
X409322D01*
X409309Y360370D01*
X409282Y360357D01*
X409242Y360337D01*
X409202Y360317D01*
X409142Y360297D01*
X409083Y360271D01*
X409016Y360244D01*
X408856Y360191D01*
X408683Y360151D01*
X408483Y360117D01*
X408277Y360104D01*
X408237D01*
X408183Y360111D01*
X408117Y360117D01*
X408037Y360124D01*
X407944Y360137D01*
X407837Y360164D01*
X407717Y360191D01*
X407597Y360224D01*
X407464Y360271D01*
X407331Y360331D01*
X407198Y360390D01*
X407058Y360470D01*
X406925Y360564D01*
X406791Y360670D01*
X406665Y360790D01*
X406658Y360797D01*
X406638Y360823D01*
X406605Y360863D01*
X406565Y360917D01*
X406512Y360983D01*
X406459Y361070D01*
X406398Y361170D01*
X406339Y361276D01*
X406272Y361403D01*
X406212Y361543D01*
X406159Y361689D01*
X406112Y361856D01*
X406066Y362029D01*
X406032Y362209D01*
X406012Y362408D01*
X406006Y362615D01*
Y362621D01*
Y362628D01*
Y362668D01*
X406012Y362728D01*
X406019Y362808D01*
X406026Y362908D01*
X406039Y363021D01*
X406066Y363148D01*
X406092Y363287D01*
X406125Y363434D01*
X406172Y363587D01*
X406232Y363740D01*
X406292Y363900D01*
X406372Y364053D01*
X406465Y364207D01*
X406572Y364353D01*
X406692Y364493D01*
X406698Y364500D01*
X406725Y364526D01*
X406765Y364560D01*
X406818Y364606D01*
X406885Y364660D01*
X406965Y364719D01*
X407058Y364786D01*
X407164Y364853D01*
X407284Y364919D01*
X407417Y364979D01*
X407557Y365039D01*
X407711Y365092D01*
X407870Y365139D01*
X408044Y365172D01*
X408223Y365199D01*
X408417Y365206D01*
X408490D01*
X408543Y365199D01*
D02*
G37*
G36*
X383235Y432566D02*
X383410Y432546D01*
X383585Y432527D01*
X383934Y432430D01*
X383954D01*
X384012Y432410D01*
X384090Y432371D01*
X384207Y432333D01*
X384459Y432196D01*
X384693Y432022D01*
X384712Y432002D01*
X384751Y431983D01*
X384790Y431924D01*
X384868Y431847D01*
X385004Y431633D01*
X385140Y431380D01*
Y431360D01*
X385159Y431322D01*
X385198Y431244D01*
X385217Y431147D01*
X385256Y431030D01*
X385276Y430913D01*
X385295Y430602D01*
Y430583D01*
Y430544D01*
Y430466D01*
X385276Y430388D01*
X385256Y430155D01*
X385198Y429922D01*
Y429903D01*
X385159Y429825D01*
X385120Y429708D01*
X385062Y429572D01*
X384984Y429397D01*
X384887Y429222D01*
X384770Y429047D01*
X384634Y428872D01*
X384615Y428853D01*
X384557Y428794D01*
X384479Y428717D01*
X384382Y428600D01*
X384245Y428483D01*
X384071Y428347D01*
X383896Y428231D01*
X383701Y428095D01*
X383682Y428075D01*
X383604Y428036D01*
X383487Y427978D01*
X383351Y427900D01*
X383176Y427803D01*
X382962Y427725D01*
X382749Y427628D01*
X382515Y427531D01*
X382496D01*
X382399Y427492D01*
X382282Y427453D01*
X382107Y427414D01*
X381913Y427356D01*
X381699Y427278D01*
X381232Y427162D01*
X381213D01*
X381116Y427142D01*
X380999Y427123D01*
X380843Y427084D01*
X380649Y427045D01*
X380435Y427006D01*
X379988Y426928D01*
X379969D01*
X379891Y426909D01*
X379774D01*
X379638Y426889D01*
X379483Y426870D01*
X379308Y426850D01*
X378958Y426812D01*
X378938Y426773D01*
X378900Y426676D01*
X378841Y426520D01*
X378783Y426326D01*
Y426306D01*
Y426267D01*
X378763Y426228D01*
Y426151D01*
X378744Y425956D01*
X378725Y425762D01*
Y425742D01*
Y425665D01*
X378744Y425548D01*
X378783Y425412D01*
X378841Y425256D01*
X378938Y425101D01*
X379055Y424945D01*
X379211Y424809D01*
X379230Y424790D01*
X379308Y424751D01*
X379405Y424712D01*
X379560Y424654D01*
X379755Y424576D01*
X379988Y424537D01*
X380260Y424498D01*
X380571Y424479D01*
X380746D01*
X380863Y424498D01*
X381018D01*
X381174Y424518D01*
X381505Y424576D01*
X381524D01*
X381582Y424595D01*
X381679Y424615D01*
X381796Y424654D01*
X382068Y424751D01*
X382379Y424868D01*
X382399D01*
X382457Y424906D01*
X382535Y424926D01*
X382632Y424984D01*
X382865Y425101D01*
X383137Y425237D01*
X383157Y425256D01*
X383196Y425276D01*
X383274Y425315D01*
X383371Y425373D01*
X383585Y425509D01*
X383818Y425665D01*
X383837Y425684D01*
X383876Y425703D01*
X383954Y425762D01*
X384051Y425820D01*
X384284Y425956D01*
X384537Y426092D01*
X384557D01*
X384595Y426112D01*
X384654Y426151D01*
X384751Y426190D01*
X384945Y426248D01*
X385140Y426267D01*
X385179D01*
X385295Y426248D01*
X385412Y426209D01*
X385490Y426131D01*
X385509Y426112D01*
X385529Y426053D01*
X385548Y425956D01*
X385567Y425859D01*
Y425840D01*
Y425801D01*
X385548Y425684D01*
Y425665D01*
Y425645D01*
X385529Y425548D01*
Y425528D01*
Y425509D01*
X385490Y425373D01*
X385431Y425198D01*
X385315Y425004D01*
Y424984D01*
X385295Y424965D01*
X385217Y424848D01*
X385081Y424693D01*
X384926Y424537D01*
X384907D01*
X384868Y424498D01*
X384809Y424459D01*
X384732Y424401D01*
X384634Y424323D01*
X384518Y424246D01*
X384226Y424051D01*
X383876Y423857D01*
X383507Y423643D01*
X383079Y423448D01*
X382651Y423293D01*
X382632D01*
X382593Y423274D01*
X382535Y423254D01*
X382457Y423235D01*
X382340Y423215D01*
X382224Y423176D01*
X381913Y423118D01*
X381543Y423060D01*
X381135Y423001D01*
X380669Y422962D01*
X380183Y422943D01*
X380008D01*
X379813Y422962D01*
X379580Y422982D01*
X379522D01*
X379444Y423001D01*
X379366D01*
X379133Y423040D01*
X378861Y423099D01*
X378841D01*
X378802Y423118D01*
X378725Y423137D01*
X378627Y423157D01*
X378394Y423235D01*
X378122Y423351D01*
X378102D01*
X378064Y423390D01*
X378005Y423429D01*
X377908Y423468D01*
X377714Y423623D01*
X377480Y423818D01*
X377461Y423837D01*
X377442Y423876D01*
X377383Y423934D01*
X377325Y424032D01*
X377247Y424129D01*
X377169Y424265D01*
X377033Y424556D01*
Y424576D01*
X377014Y424634D01*
X376975Y424731D01*
X376956Y424848D01*
X376917Y425004D01*
X376878Y425198D01*
X376858Y425392D01*
Y425606D01*
Y425626D01*
Y425703D01*
Y425801D01*
X376878Y425937D01*
X376897Y426092D01*
X376917Y426287D01*
X376994Y426714D01*
X376975D01*
X376917Y426734D01*
X376839Y426773D01*
X376742Y426850D01*
X376722Y426870D01*
X376683Y426948D01*
X376644Y427064D01*
X376625Y427220D01*
Y427239D01*
Y427298D01*
X376644Y427375D01*
X376664Y427492D01*
X376722Y427725D01*
X376781Y427861D01*
X376858Y427978D01*
X376878Y427997D01*
X376897Y428036D01*
X376956Y428095D01*
X377033Y428153D01*
X377247Y428308D01*
X377383Y428367D01*
X377519Y428425D01*
Y428444D01*
X377539Y428464D01*
X377578Y428522D01*
X377617Y428600D01*
X377714Y428794D01*
X377869Y429047D01*
X377889Y429067D01*
X377908Y429125D01*
X377966Y429203D01*
X378044Y429319D01*
X378122Y429436D01*
X378239Y429592D01*
X378472Y429922D01*
X378491Y429941D01*
X378530Y430000D01*
X378608Y430097D01*
X378705Y430214D01*
X378841Y430350D01*
X378977Y430505D01*
X379288Y430855D01*
X379308Y430874D01*
X379366Y430933D01*
X379463Y431030D01*
X379599Y431147D01*
X379735Y431263D01*
X379910Y431419D01*
X380299Y431710D01*
X380319Y431730D01*
X380396Y431769D01*
X380513Y431847D01*
X380669Y431944D01*
X380843Y432041D01*
X381038Y432138D01*
X381505Y432333D01*
X381543Y432352D01*
X381621Y432371D01*
X381738Y432410D01*
X381913Y432469D01*
X382127Y432508D01*
X382360Y432546D01*
X382613Y432566D01*
X382885Y432585D01*
X383099D01*
X383235Y432566D01*
D02*
G37*
G36*
X319400Y423200D02*
X320200D01*
Y422400D01*
Y421600D01*
X321000D01*
Y420800D01*
X321800D01*
Y420000D01*
X322600D01*
Y419200D01*
Y418400D01*
Y417600D01*
X323400D01*
Y416800D01*
Y416000D01*
Y415200D01*
Y414400D01*
Y413600D01*
X324200D01*
Y412800D01*
X325000D01*
Y412000D01*
Y411200D01*
X326600D01*
Y412000D01*
Y412800D01*
Y413600D01*
Y414400D01*
Y415200D01*
Y416000D01*
X327400D01*
Y416800D01*
Y417600D01*
X329000D01*
Y418400D01*
X333000D01*
Y417600D01*
X333800D01*
Y416800D01*
X337000D01*
Y416000D01*
Y415200D01*
Y414400D01*
Y413600D01*
Y412800D01*
Y412000D01*
Y411200D01*
Y410400D01*
X337800D01*
Y409600D01*
Y408800D01*
Y408000D01*
Y407200D01*
Y406400D01*
Y405600D01*
Y404800D01*
X337000D01*
Y404000D01*
Y403200D01*
Y402400D01*
Y401600D01*
Y400800D01*
X338600D01*
Y401600D01*
Y402400D01*
X339400D01*
Y403200D01*
X340200D01*
Y404000D01*
Y404800D01*
Y405600D01*
Y406400D01*
X341000D01*
Y407200D01*
Y408000D01*
X343400D01*
Y408800D01*
Y409600D01*
X344200D01*
Y410400D01*
X345800D01*
Y411200D01*
X347400D01*
Y412000D01*
X349000D01*
Y412800D01*
X349800D01*
Y413600D01*
X351400D01*
Y414400D01*
X353000D01*
Y413600D01*
X353800D01*
Y412800D01*
X354600D01*
Y412000D01*
Y411200D01*
X355400D01*
Y410400D01*
X356200D01*
Y409600D01*
Y408800D01*
Y408000D01*
X357000D01*
Y407200D01*
Y406400D01*
Y405600D01*
Y404800D01*
Y404000D01*
Y403200D01*
Y402400D01*
Y401600D01*
Y400800D01*
Y400000D01*
Y399200D01*
Y398400D01*
X356200D01*
Y397600D01*
X355400D01*
Y396800D01*
X353800D01*
Y396000D01*
X354600D01*
Y395200D01*
Y394400D01*
Y393600D01*
Y392800D01*
Y392000D01*
X353800D01*
Y391200D01*
Y390400D01*
X353000D01*
Y389600D01*
X351400D01*
Y388800D01*
X349800D01*
Y388000D01*
Y387200D01*
Y386400D01*
Y385600D01*
X350600D01*
Y384800D01*
Y384000D01*
Y383200D01*
Y382400D01*
X349800D01*
Y381600D01*
Y380800D01*
X349000D01*
Y380000D01*
X341000D01*
Y379200D01*
X338600D01*
Y378400D01*
X326600D01*
Y377600D01*
X325000D01*
Y376800D01*
Y376000D01*
X325800D01*
Y375200D01*
X326600D01*
Y374400D01*
Y373600D01*
Y372800D01*
Y372000D01*
Y371200D01*
Y370400D01*
Y369600D01*
Y368800D01*
Y368000D01*
Y367200D01*
Y366400D01*
Y365600D01*
Y364800D01*
Y364000D01*
Y363200D01*
X325800D01*
Y362400D01*
X325000D01*
Y361600D01*
X324200D01*
Y360800D01*
X323400D01*
Y360000D01*
X322600D01*
Y359200D01*
X319400D01*
Y358400D01*
X310600D01*
Y359200D01*
X307400D01*
Y358400D01*
X304200D01*
Y357600D01*
X302600D01*
Y356800D01*
X301000D01*
Y356000D01*
X294600D01*
Y356800D01*
X293800D01*
Y357600D01*
Y358400D01*
X295400D01*
Y357600D01*
X297000D01*
Y358400D01*
X299400D01*
Y359200D01*
X300200D01*
Y360000D01*
X301000D01*
Y360800D01*
Y361600D01*
Y362400D01*
Y363200D01*
Y364000D01*
Y364800D01*
X300200D01*
Y365600D01*
Y366400D01*
Y367200D01*
X299400D01*
Y368000D01*
Y368800D01*
X298600D01*
Y369600D01*
Y370400D01*
X297800D01*
Y371200D01*
Y372000D01*
Y372800D01*
X298600D01*
Y373600D01*
Y374400D01*
Y375200D01*
Y376000D01*
Y376800D01*
Y377600D01*
X299400D01*
Y378400D01*
X300200D01*
Y379200D01*
Y380000D01*
X301000D01*
Y380800D01*
X301800D01*
Y381600D01*
X302600D01*
Y382400D01*
X303400D01*
Y383200D01*
X304200D01*
Y384000D01*
X305000D01*
Y384800D01*
X307400D01*
Y385600D01*
X312200D01*
Y384800D01*
X315400D01*
Y384000D01*
X316200D01*
Y384800D01*
Y385600D01*
Y386400D01*
Y387200D01*
Y388000D01*
Y388800D01*
Y389600D01*
Y390400D01*
Y391200D01*
Y392000D01*
Y392800D01*
Y393600D01*
Y394400D01*
Y395200D01*
Y396000D01*
Y396800D01*
X315400D01*
Y397600D01*
Y398400D01*
X313800D01*
Y399200D01*
X312200D01*
Y400000D01*
X311400D01*
Y400800D01*
X310600D01*
Y401600D01*
X309800D01*
Y402400D01*
Y403200D01*
Y404000D01*
Y404800D01*
Y405600D01*
Y406400D01*
Y407200D01*
Y408000D01*
Y408800D01*
Y409600D01*
X310600D01*
Y410400D01*
X311400D01*
Y411200D01*
X313000D01*
Y410400D01*
X313800D01*
Y411200D01*
X314600D01*
Y412000D01*
Y412800D01*
Y413600D01*
X313800D01*
Y414400D01*
Y415200D01*
Y416000D01*
X313000D01*
Y416800D01*
X312200D01*
Y417600D01*
X311400D01*
Y418400D01*
X310600D01*
Y419200D01*
Y420000D01*
Y420800D01*
Y421600D01*
X311400D01*
Y422400D01*
X313000D01*
Y423200D01*
X316200D01*
Y424000D01*
X319400D01*
Y423200D01*
D02*
G37*
G36*
X364844Y439175D02*
X365039D01*
X365233Y439156D01*
X365466Y439137D01*
X365583D01*
X365680Y439117D01*
X365875Y439098D01*
X366108Y439059D01*
X366166D01*
X366225Y439039D01*
X366302D01*
X366477Y439000D01*
X366652Y438962D01*
X366672D01*
X366691Y438942D01*
X366788Y438903D01*
X366925Y438806D01*
X367061Y438651D01*
Y438631D01*
X367099Y438612D01*
X367158Y438495D01*
X367216Y438340D01*
X367255Y438145D01*
Y438106D01*
Y438009D01*
X367235Y437892D01*
X367216Y437737D01*
Y437698D01*
X367177Y437620D01*
X367138Y437504D01*
X367080Y437387D01*
X367061Y437367D01*
X367022Y437290D01*
X366925Y437212D01*
X366827Y437134D01*
X366808Y437115D01*
X366730Y437095D01*
X366613Y437076D01*
X366458Y437056D01*
X366400D01*
X366302Y437076D01*
X366205D01*
X366069Y437095D01*
X365933Y437115D01*
X365583Y437154D01*
X365564D01*
X365505Y437173D01*
X365408D01*
X365272Y437192D01*
X365136Y437212D01*
X364961D01*
X364592Y437231D01*
X363970D01*
X363678Y437212D01*
X363328D01*
X362978Y437192D01*
X362609Y437173D01*
X362434D01*
X362239Y437154D01*
X361987Y437134D01*
X361676Y437095D01*
X361326Y437037D01*
X360956Y436979D01*
X360568Y436901D01*
X360548Y436881D01*
X360529Y436843D01*
X360509Y436784D01*
Y436765D01*
X360490Y436726D01*
Y436668D01*
X360470Y436570D01*
Y436551D01*
Y436473D01*
Y436357D01*
X360451Y436221D01*
X360432Y436065D01*
Y435890D01*
X360373Y435540D01*
Y435521D01*
X360354Y435462D01*
Y435385D01*
X360334Y435268D01*
X360315Y435151D01*
X360276Y434996D01*
X360198Y434685D01*
Y434665D01*
X360179Y434607D01*
X360159Y434529D01*
X360121Y434413D01*
X360082Y434276D01*
X360043Y434121D01*
X359926Y433752D01*
Y433732D01*
X359907Y433654D01*
X359868Y433557D01*
X359829Y433402D01*
X359771Y433227D01*
X359712Y433013D01*
X359634Y432780D01*
X359557Y432527D01*
Y432488D01*
X359518Y432410D01*
X359479Y432255D01*
X359421Y432060D01*
X359362Y431808D01*
X359265Y431516D01*
X359168Y431186D01*
X359071Y430836D01*
Y430816D01*
X359051Y430797D01*
Y430738D01*
X359032Y430661D01*
X358993Y430563D01*
X358974Y430447D01*
X358896Y430175D01*
X358799Y429844D01*
X358701Y429436D01*
X358585Y428989D01*
X358449Y428483D01*
X357943Y426423D01*
Y426384D01*
X357924Y426306D01*
X357885Y426170D01*
X357846Y425995D01*
X357788Y425801D01*
X357749Y425587D01*
X357652Y425140D01*
Y425120D01*
X357632Y425042D01*
X357613Y424926D01*
X357593Y424790D01*
X357574Y424615D01*
X357554Y424440D01*
X357496Y424032D01*
X357477Y423993D01*
X357438Y423915D01*
X357321Y423818D01*
X357243Y423740D01*
X357146Y423682D01*
X357127D01*
X357107Y423662D01*
X357049Y423643D01*
X356971Y423604D01*
X356757Y423546D01*
X356505Y423526D01*
X356466D01*
X356369Y423546D01*
X356233Y423585D01*
X356096Y423643D01*
X356077Y423662D01*
X355999Y423740D01*
X355902Y423837D01*
X355805Y423954D01*
X355785Y423993D01*
X355747Y424090D01*
X355688Y424226D01*
X355630Y424382D01*
Y424401D01*
Y424420D01*
Y424518D01*
Y424673D01*
X355669Y424829D01*
Y424848D01*
X355688Y424906D01*
X355708Y425004D01*
X355747Y425140D01*
X355766Y425295D01*
X355824Y425490D01*
X355863Y425703D01*
X355921Y425937D01*
X355999Y426190D01*
X356058Y426481D01*
X356213Y427084D01*
X356388Y427725D01*
X356563Y428386D01*
Y428406D01*
X356582Y428464D01*
X356621Y428561D01*
X356641Y428697D01*
X356699Y428853D01*
X356757Y429047D01*
X356816Y429261D01*
X356874Y429494D01*
X356952Y429766D01*
X357030Y430039D01*
X357205Y430641D01*
X357379Y431283D01*
X357554Y431944D01*
Y431983D01*
X357593Y432060D01*
X357632Y432196D01*
X357671Y432371D01*
X357729Y432585D01*
X357788Y432799D01*
X357904Y433266D01*
Y433285D01*
X357924Y433363D01*
X357963Y433479D01*
X358001Y433635D01*
X358040Y433790D01*
X358079Y433985D01*
X358157Y434354D01*
Y434374D01*
X358176Y434432D01*
X358196Y434529D01*
X358215Y434646D01*
X358274Y434937D01*
X358313Y435229D01*
Y435249D01*
X358332Y435307D01*
Y435385D01*
X358351Y435482D01*
X358371Y435715D01*
Y435987D01*
Y436007D01*
Y436026D01*
Y436123D01*
Y436143D01*
Y436182D01*
Y436240D01*
Y436318D01*
X358351D01*
X358274Y436298D01*
X358196D01*
X358118Y436279D01*
X358021Y436240D01*
X357885Y436201D01*
X357865D01*
X357827Y436182D01*
X357749Y436162D01*
X357652Y436123D01*
X357516Y436065D01*
X357379Y436026D01*
X357030Y435890D01*
X357010D01*
X356952Y435851D01*
X356855Y435812D01*
X356718Y435773D01*
X356563Y435696D01*
X356388Y435637D01*
X355999Y435462D01*
X355980Y435443D01*
X355902Y435424D01*
X355805Y435385D01*
X355669Y435307D01*
X355513Y435249D01*
X355338Y435151D01*
X354988Y434976D01*
X354969D01*
X354930Y434937D01*
X354852Y434899D01*
X354774Y434860D01*
X354580Y434762D01*
X354366Y434646D01*
X354347D01*
X354327Y434626D01*
X354211Y434588D01*
X354075Y434510D01*
X353939Y434451D01*
X353919D01*
X353841Y434413D01*
X353725Y434393D01*
X353608Y434374D01*
X353511D01*
X353414Y434354D01*
X353239D01*
X353180Y434374D01*
X353103Y434393D01*
X352928Y434471D01*
X352831Y434529D01*
X352733Y434607D01*
Y434626D01*
X352694Y434646D01*
X352656Y434704D01*
X352617Y434782D01*
X352539Y434976D01*
X352519Y435112D01*
X352500Y435249D01*
Y435268D01*
Y435287D01*
Y435385D01*
X352519Y435521D01*
X352539Y435657D01*
X352558Y435696D01*
X352578Y435754D01*
X352636Y435871D01*
X352694Y435968D01*
X352714Y435987D01*
X352772Y436065D01*
X352850Y436143D01*
X352947Y436240D01*
X352986Y436259D01*
X353064Y436318D01*
X353200Y436396D01*
X353375Y436493D01*
X353414Y436512D01*
X353491Y436551D01*
X353647Y436629D01*
X353841Y436726D01*
X354075Y436843D01*
X354366Y436979D01*
X354697Y437115D01*
X355066Y437270D01*
X355455Y437445D01*
X355883Y437601D01*
X356330Y437776D01*
X356796Y437951D01*
X357788Y438262D01*
X358799Y438534D01*
X358837D01*
X358915Y438553D01*
X359071Y438592D01*
X359265Y438631D01*
X359518Y438689D01*
X359809Y438748D01*
X360140Y438806D01*
X360509Y438864D01*
X360917Y438923D01*
X361345Y438981D01*
X361812Y439039D01*
X362278Y439098D01*
X363289Y439175D01*
X364319Y439195D01*
X364631D01*
X364844Y439175D01*
D02*
G37*
G36*
X396682Y365199D02*
X396735D01*
X396795Y365192D01*
X396861Y365186D01*
X396941Y365172D01*
X397108Y365146D01*
X397288Y365099D01*
X397474Y365039D01*
X397654Y364952D01*
X397661D01*
X397674Y364939D01*
X397701Y364926D01*
X397734Y364906D01*
X397774Y364879D01*
X397820Y364853D01*
X397927Y364773D01*
X398054Y364666D01*
X398180Y364546D01*
X398307Y364400D01*
X398427Y364233D01*
X398433Y364227D01*
X398440Y364213D01*
X398453Y364187D01*
X398480Y364153D01*
X398500Y364107D01*
X398533Y364053D01*
X398566Y363987D01*
X398600Y363914D01*
X398640Y363840D01*
X398680Y363754D01*
X398720Y363654D01*
X398760Y363554D01*
X398833Y363334D01*
X398906Y363094D01*
Y363088D01*
X398913Y363061D01*
X398919Y363028D01*
X398933Y362975D01*
X398946Y362901D01*
X398959Y362821D01*
X398979Y362728D01*
X398993Y362615D01*
X399006Y362495D01*
X399026Y362355D01*
X399039Y362209D01*
X399053Y362049D01*
X399066Y361876D01*
X399073Y361689D01*
X399079Y361489D01*
Y361283D01*
Y361276D01*
Y361270D01*
Y361250D01*
Y361223D01*
Y361150D01*
X399073Y361056D01*
Y360943D01*
X399066Y360810D01*
X399059Y360664D01*
X399046Y360504D01*
X399033Y360331D01*
X399013Y360157D01*
X398959Y359791D01*
X398933Y359611D01*
X398893Y359431D01*
X398846Y359258D01*
X398799Y359098D01*
Y359092D01*
X398786Y359065D01*
X398773Y359018D01*
X398746Y358965D01*
X398720Y358892D01*
X398680Y358812D01*
X398640Y358725D01*
X398593Y358632D01*
X398473Y358426D01*
X398333Y358213D01*
X398160Y358006D01*
X398067Y357906D01*
X397967Y357820D01*
X397960Y357813D01*
X397940Y357800D01*
X397914Y357780D01*
X397867Y357753D01*
X397814Y357713D01*
X397747Y357680D01*
X397674Y357640D01*
X397587Y357600D01*
X397487Y357553D01*
X397388Y357513D01*
X397268Y357480D01*
X397148Y357447D01*
X397015Y357413D01*
X396875Y357393D01*
X396728Y357380D01*
X396575Y357373D01*
X396528D01*
X396468Y357380D01*
X396389Y357387D01*
X396295Y357400D01*
X396189Y357413D01*
X396069Y357440D01*
X395942Y357473D01*
X395802Y357513D01*
X395663Y357567D01*
X395516Y357627D01*
X395370Y357706D01*
X395223Y357793D01*
X395090Y357900D01*
X394957Y358019D01*
X394830Y358159D01*
X394824Y358173D01*
X394797Y358206D01*
X394763Y358266D01*
X394710Y358346D01*
X394657Y358452D01*
X394590Y358579D01*
X394524Y358732D01*
X394450Y358912D01*
X394377Y359118D01*
X394311Y359345D01*
X394244Y359605D01*
X394191Y359884D01*
X394164Y360037D01*
X394144Y360191D01*
X394124Y360357D01*
X394104Y360530D01*
X394091Y360710D01*
X394077Y360890D01*
X394071Y361083D01*
Y361283D01*
Y361290D01*
Y361296D01*
Y361316D01*
Y361343D01*
Y361416D01*
X394077Y361509D01*
Y361623D01*
X394084Y361756D01*
X394097Y361902D01*
X394104Y362069D01*
X394124Y362235D01*
X394138Y362415D01*
X394191Y362781D01*
X394224Y362961D01*
X394257Y363141D01*
X394304Y363314D01*
X394351Y363474D01*
X394357Y363481D01*
X394364Y363514D01*
X394377Y363554D01*
X394404Y363614D01*
X394430Y363681D01*
X394471Y363760D01*
X394510Y363847D01*
X394557Y363947D01*
X394677Y364153D01*
X394817Y364367D01*
X394990Y364573D01*
X395083Y364666D01*
X395183Y364753D01*
X395190Y364759D01*
X395210Y364773D01*
X395243Y364793D01*
X395283Y364826D01*
X395336Y364859D01*
X395403Y364899D01*
X395476Y364939D01*
X395563Y364979D01*
X395663Y365019D01*
X395769Y365066D01*
X395882Y365099D01*
X396002Y365132D01*
X396135Y365166D01*
X396275Y365186D01*
X396422Y365199D01*
X396575Y365206D01*
X396635D01*
X396682Y365199D01*
D02*
G37*
G36*
X369821Y439098D02*
X369860D01*
X369938Y439078D01*
X370035Y439059D01*
X370151Y439020D01*
X370171D01*
X370249Y438981D01*
X370326Y438942D01*
X370404Y438884D01*
X370424Y438864D01*
X370463Y438806D01*
X370501Y438728D01*
X370521Y438612D01*
Y438573D01*
Y438514D01*
X370501Y438437D01*
Y438417D01*
X370482Y438340D01*
X370463Y438242D01*
X370424Y438126D01*
Y438106D01*
X370404Y438028D01*
X370365Y437892D01*
X370326Y437737D01*
X370268Y437523D01*
X370210Y437270D01*
X370132Y436979D01*
X370054Y436668D01*
X369977Y436318D01*
X369879Y435948D01*
X369782Y435560D01*
X369666Y435132D01*
X369452Y434257D01*
X369199Y433343D01*
Y433324D01*
X369180Y433227D01*
X369141Y433091D01*
X369082Y432916D01*
X369024Y432682D01*
X368966Y432430D01*
X368888Y432119D01*
X368791Y431788D01*
X368693Y431419D01*
X368596Y431030D01*
X368480Y430602D01*
X368363Y430175D01*
X368130Y429261D01*
X367877Y428308D01*
X367916Y428347D01*
X367994Y428444D01*
X368130Y428600D01*
X368305Y428794D01*
X368499Y429008D01*
X368732Y429261D01*
X369238Y429766D01*
X369277Y429805D01*
X369355Y429883D01*
X369491Y430000D01*
X369685Y430155D01*
X369899Y430330D01*
X370132Y430525D01*
X370676Y430894D01*
X370715Y430913D01*
X370813Y430972D01*
X370949Y431069D01*
X371143Y431166D01*
X371376Y431302D01*
X371629Y431419D01*
X371901Y431535D01*
X372193Y431652D01*
X372232Y431672D01*
X372329Y431691D01*
X372484Y431730D01*
X372698Y431788D01*
X372951Y431847D01*
X373223Y431885D01*
X373515Y431905D01*
X373826Y431924D01*
X373923D01*
X374020Y431905D01*
X374137Y431885D01*
X374273Y431847D01*
X374409Y431769D01*
X374545Y431691D01*
X374662Y431574D01*
X374681Y431555D01*
X374720Y431516D01*
X374759Y431438D01*
X374817Y431341D01*
X374875Y431205D01*
X374934Y431049D01*
X374953Y430894D01*
X374973Y430700D01*
Y430680D01*
Y430661D01*
Y430544D01*
X374953Y430388D01*
X374914Y430214D01*
Y430194D01*
X374895Y430136D01*
X374856Y430039D01*
X374837Y429922D01*
X374778Y429766D01*
X374739Y429611D01*
X374623Y429261D01*
Y429242D01*
X374603Y429183D01*
X374564Y429086D01*
X374525Y428969D01*
X374467Y428833D01*
X374409Y428658D01*
X374292Y428308D01*
Y428289D01*
X374253Y428231D01*
X374234Y428133D01*
X374176Y428017D01*
X374137Y427861D01*
X374078Y427706D01*
X373942Y427336D01*
Y427317D01*
X373923Y427259D01*
X373884Y427162D01*
X373845Y427025D01*
X373806Y426870D01*
X373748Y426714D01*
X373651Y426326D01*
Y426306D01*
X373631Y426209D01*
X373592Y426092D01*
X373553Y425917D01*
X373515Y425723D01*
X373476Y425509D01*
X373417Y425062D01*
Y425042D01*
Y424965D01*
X373398Y424848D01*
X373379Y424712D01*
X373359Y424401D01*
X373340Y424246D01*
Y424109D01*
Y424090D01*
Y424051D01*
Y423993D01*
X373320Y423915D01*
X373301Y423721D01*
X373242Y423507D01*
Y423487D01*
X373223Y423468D01*
X373184Y423332D01*
X373106Y423176D01*
X373009Y423021D01*
X372990Y422982D01*
X372912Y422904D01*
X372795Y422788D01*
X372659Y422671D01*
X372620Y422651D01*
X372523Y422612D01*
X372348Y422554D01*
X372154Y422535D01*
X372057D01*
X371940Y422554D01*
X371784Y422574D01*
X371648Y422612D01*
X371493Y422651D01*
X371357Y422729D01*
X371240Y422826D01*
Y422846D01*
X371201Y422885D01*
X371162Y422943D01*
X371124Y423040D01*
X371085Y423137D01*
X371046Y423274D01*
X371026Y423429D01*
X371007Y423604D01*
Y423623D01*
Y423643D01*
Y423779D01*
X371026Y423954D01*
X371046Y424168D01*
Y424187D01*
X371065Y424226D01*
Y424284D01*
X371085Y424362D01*
X371143Y424576D01*
X371201Y424809D01*
Y424829D01*
X371221Y424906D01*
X371260Y425023D01*
X371299Y425159D01*
X371337Y425334D01*
X371396Y425509D01*
X371512Y425917D01*
Y425937D01*
X371551Y426015D01*
X371590Y426131D01*
X371629Y426267D01*
X371687Y426442D01*
X371746Y426637D01*
X371882Y427045D01*
Y427064D01*
X371921Y427142D01*
X371959Y427259D01*
X371998Y427395D01*
X372057Y427570D01*
X372115Y427764D01*
X372251Y428172D01*
Y428192D01*
X372290Y428270D01*
X372309Y428386D01*
X372368Y428542D01*
X372407Y428717D01*
X372465Y428911D01*
X372582Y429319D01*
Y429339D01*
Y429358D01*
Y429455D01*
Y429475D01*
Y429553D01*
X372543Y429611D01*
X372504Y429689D01*
X372484Y429708D01*
X372445Y429728D01*
X372387Y429747D01*
X372290Y429766D01*
X372251D01*
X372134Y429747D01*
X371979Y429728D01*
X371784Y429669D01*
X371765D01*
X371746Y429650D01*
X371629Y429611D01*
X371473Y429553D01*
X371337Y429475D01*
X371299Y429455D01*
X371221Y429397D01*
X371085Y429300D01*
X370910Y429183D01*
X370715Y429028D01*
X370501Y428872D01*
X370074Y428522D01*
X370054Y428503D01*
X369977Y428444D01*
X369879Y428347D01*
X369763Y428231D01*
X369607Y428075D01*
X369452Y427920D01*
X369102Y427550D01*
X369082Y427531D01*
X369024Y427472D01*
X368946Y427356D01*
X368830Y427220D01*
X368693Y427064D01*
X368557Y426870D01*
X368246Y426462D01*
X368227Y426442D01*
X368188Y426364D01*
X368110Y426248D01*
X367994Y426092D01*
X367877Y425898D01*
X367741Y425684D01*
X367585Y425451D01*
X367430Y425198D01*
X367410Y425159D01*
X367372Y425081D01*
X367294Y424945D01*
X367216Y424790D01*
X367138Y424595D01*
X367041Y424401D01*
X366944Y424207D01*
X366866Y424012D01*
Y423993D01*
X366847Y423934D01*
X366808Y423857D01*
X366769Y423740D01*
X366652Y423487D01*
X366536Y423254D01*
Y423235D01*
X366516Y423215D01*
X366439Y423099D01*
X366341Y422962D01*
X366205Y422846D01*
X366166Y422826D01*
X366069Y422788D01*
X365875Y422729D01*
X365622Y422710D01*
X365544D01*
X365486Y422729D01*
X365389Y422749D01*
X365194Y422807D01*
X365097Y422865D01*
X365019Y422943D01*
Y422962D01*
X365000Y422982D01*
X364961Y423040D01*
X364942Y423118D01*
X364864Y423312D01*
X364844Y423565D01*
Y423585D01*
Y423623D01*
Y423682D01*
X364864Y423760D01*
X364883Y423993D01*
X364942Y424246D01*
X368441Y438262D01*
Y438281D01*
X368480Y438340D01*
X368499Y438437D01*
X368557Y438534D01*
X368577Y438553D01*
X368616Y438631D01*
X368674Y438709D01*
X368752Y438806D01*
X368771Y438826D01*
X368849Y438884D01*
X368946Y438962D01*
X369063Y439020D01*
X369102Y439039D01*
X369180Y439078D01*
X369296Y439098D01*
X369452Y439117D01*
X369685D01*
X369821Y439098D01*
D02*
G37*
G36*
X350182Y364273D02*
X346019D01*
Y361896D01*
X349622D01*
Y360990D01*
X346019D01*
Y357500D01*
X345000D01*
Y365179D01*
X350182D01*
Y364273D01*
D02*
G37*
G36*
X354484Y365172D02*
X354557D01*
X354644Y365166D01*
X354737Y365159D01*
X354843Y365152D01*
X355070Y365119D01*
X355303Y365079D01*
X355536Y365019D01*
X355643Y364979D01*
X355749Y364939D01*
X355756D01*
X355776Y364926D01*
X355802Y364913D01*
X355836Y364893D01*
X355882Y364873D01*
X355936Y364839D01*
X356056Y364759D01*
X356189Y364660D01*
X356329Y364540D01*
X356462Y364393D01*
X356582Y364220D01*
X356588Y364213D01*
X356595Y364200D01*
X356608Y364173D01*
X356628Y364140D01*
X356655Y364093D01*
X356682Y364040D01*
X356708Y363980D01*
X356735Y363914D01*
X356788Y363760D01*
X356841Y363594D01*
X356875Y363407D01*
X356888Y363307D01*
Y363208D01*
Y363201D01*
Y363188D01*
Y363161D01*
X356881Y363121D01*
Y363081D01*
X356875Y363028D01*
X356868Y362968D01*
X356855Y362908D01*
X356821Y362768D01*
X356775Y362608D01*
X356708Y362448D01*
X356615Y362282D01*
Y362275D01*
X356602Y362262D01*
X356588Y362242D01*
X356568Y362209D01*
X356502Y362129D01*
X356415Y362035D01*
X356302Y361922D01*
X356162Y361802D01*
X355996Y361689D01*
X355809Y361583D01*
X355816D01*
X355842Y361576D01*
X355876Y361563D01*
X355922Y361543D01*
X355982Y361523D01*
X356049Y361489D01*
X356122Y361456D01*
X356209Y361416D01*
X356375Y361323D01*
X356555Y361203D01*
X356728Y361056D01*
X356808Y360970D01*
X356881Y360883D01*
X356888Y360877D01*
X356895Y360863D01*
X356915Y360837D01*
X356941Y360797D01*
X356968Y360750D01*
X357001Y360690D01*
X357035Y360630D01*
X357075Y360557D01*
X357108Y360470D01*
X357141Y360384D01*
X357174Y360291D01*
X357201Y360184D01*
X357228Y360077D01*
X357248Y359964D01*
X357254Y359844D01*
X357261Y359724D01*
Y359718D01*
Y359698D01*
Y359671D01*
X357254Y359631D01*
Y359585D01*
X357248Y359531D01*
X357241Y359465D01*
X357234Y359398D01*
X357201Y359245D01*
X357161Y359072D01*
X357108Y358899D01*
X357028Y358719D01*
Y358712D01*
X357015Y358699D01*
X357008Y358672D01*
X356988Y358646D01*
X356968Y358606D01*
X356941Y358559D01*
X356875Y358452D01*
X356788Y358339D01*
X356695Y358219D01*
X356582Y358106D01*
X356462Y357999D01*
X356455D01*
X356449Y357986D01*
X356429Y357973D01*
X356402Y357960D01*
X356369Y357940D01*
X356329Y357913D01*
X356235Y357860D01*
X356109Y357800D01*
X355969Y357740D01*
X355802Y357680D01*
X355623Y357627D01*
X355616D01*
X355603Y357620D01*
X355569Y357613D01*
X355529Y357607D01*
X355483Y357600D01*
X355423Y357587D01*
X355356Y357573D01*
X355276Y357567D01*
X355190Y357553D01*
X355097Y357540D01*
X354997Y357527D01*
X354890Y357520D01*
X354770Y357513D01*
X354650Y357507D01*
X354384Y357500D01*
X351460D01*
Y365179D01*
X354424D01*
X354484Y365172D01*
D02*
G37*
G36*
X375731Y419378D02*
X375886D01*
X376081Y419358D01*
X376469Y419280D01*
X376489D01*
X376567Y419261D01*
X376664Y419242D01*
X376781Y419203D01*
X377092Y419086D01*
X377403Y418931D01*
X377422Y418911D01*
X377480Y418892D01*
X377539Y418833D01*
X377636Y418775D01*
X377850Y418561D01*
X378044Y418308D01*
X378064Y418289D01*
X378083Y418250D01*
X378122Y418153D01*
X378180Y418056D01*
X378219Y417920D01*
X378258Y417764D01*
X378277Y417570D01*
X378297Y417375D01*
Y417356D01*
Y417337D01*
Y417220D01*
X378277Y417045D01*
X378239Y416812D01*
X378180Y416559D01*
X378083Y416267D01*
X377966Y415976D01*
X377791Y415684D01*
X377772Y415645D01*
X377694Y415548D01*
X377597Y415412D01*
X377442Y415217D01*
X377228Y415004D01*
X376994Y414770D01*
X376722Y414537D01*
X376392Y414284D01*
X376372D01*
X376353Y414265D01*
X376295Y414226D01*
X376236Y414168D01*
X376042Y414051D01*
X375770Y413896D01*
X375459Y413701D01*
X375089Y413507D01*
X374662Y413293D01*
X374195Y413079D01*
X374176D01*
X374137Y413060D01*
X374059Y413021D01*
X373981Y412982D01*
X373845Y412924D01*
X373709Y412865D01*
X373553Y412807D01*
X373359Y412729D01*
X372951Y412574D01*
X372465Y412379D01*
X371940Y412185D01*
X371357Y411990D01*
X371415D01*
X371473Y411971D01*
X371571Y411952D01*
X371668Y411932D01*
X371804Y411913D01*
X372095Y411854D01*
X372426Y411796D01*
X372795Y411718D01*
X373165Y411621D01*
X373515Y411524D01*
X373534D01*
X373553Y411505D01*
X373670Y411485D01*
X373826Y411427D01*
X374040Y411349D01*
X374273Y411271D01*
X374525Y411155D01*
X374778Y411057D01*
X375011Y410921D01*
X375031Y410902D01*
X375109Y410863D01*
X375225Y410785D01*
X375342Y410688D01*
X375498Y410571D01*
X375634Y410435D01*
X375770Y410280D01*
X375886Y410124D01*
X375906Y410105D01*
X375925Y410046D01*
X375984Y409949D01*
X376042Y409833D01*
X376081Y409677D01*
X376139Y409502D01*
X376158Y409327D01*
X376178Y409113D01*
Y409074D01*
Y408977D01*
X376158Y408822D01*
X376120Y408627D01*
X376061Y408394D01*
X375984Y408122D01*
X375886Y407850D01*
X375731Y407539D01*
X375711Y407500D01*
X375653Y407403D01*
X375536Y407247D01*
X375381Y407053D01*
X375186Y406819D01*
X374934Y406567D01*
X374642Y406314D01*
X374292Y406042D01*
X374273D01*
X374234Y406003D01*
X374176Y405964D01*
X374078Y405906D01*
X373962Y405828D01*
X373845Y405750D01*
X373534Y405575D01*
X373515Y405556D01*
X373456Y405536D01*
X373379Y405478D01*
X373262Y405420D01*
X373106Y405342D01*
X372951Y405264D01*
X372582Y405070D01*
X372562Y405050D01*
X372504Y405031D01*
X372387Y404973D01*
X372251Y404914D01*
X372095Y404837D01*
X371921Y404759D01*
X371512Y404584D01*
X371493Y404564D01*
X371415Y404545D01*
X371299Y404506D01*
X371162Y404448D01*
X370987Y404389D01*
X370793Y404312D01*
X370365Y404176D01*
X370346D01*
X370268Y404156D01*
X370151Y404117D01*
X369996Y404078D01*
X369821Y404020D01*
X369627Y403981D01*
X369218Y403884D01*
X369199D01*
X369121Y403865D01*
X369024Y403845D01*
X368888Y403826D01*
X368732Y403806D01*
X368557Y403787D01*
X368188Y403767D01*
X368052D01*
X367916Y403787D01*
X367780Y403806D01*
X367760D01*
X367683Y403845D01*
X367566Y403884D01*
X367449Y403942D01*
X367430Y403962D01*
X367372Y404020D01*
X367274Y404098D01*
X367158Y404214D01*
X367138Y404234D01*
X367080Y404331D01*
X366983Y404448D01*
X366866Y404623D01*
X366847D01*
X366827Y404584D01*
X366711Y404526D01*
X366536Y404428D01*
X366322Y404351D01*
X366302D01*
X366283Y404331D01*
X366225Y404312D01*
X366147D01*
X365972Y404273D01*
X365758Y404253D01*
X365428D01*
X365369Y404273D01*
X365311Y404312D01*
X365292Y404331D01*
X365272Y404351D01*
X365175Y404448D01*
Y404467D01*
X365136Y404506D01*
X365078Y404623D01*
Y404642D01*
Y404701D01*
X365058Y404837D01*
Y404856D01*
Y404934D01*
Y405031D01*
X365078Y405167D01*
X365097Y405323D01*
X365117Y405478D01*
X365214Y405848D01*
Y405867D01*
X365233Y405925D01*
X365272Y406042D01*
X365311Y406158D01*
X365369Y406314D01*
X365428Y406489D01*
X365564Y406839D01*
Y406858D01*
X365583Y406878D01*
X365622Y406994D01*
X365680Y407169D01*
X365758Y407403D01*
X365836Y407694D01*
X365933Y408005D01*
X366050Y408355D01*
X366166Y408725D01*
Y408744D01*
X366186Y408764D01*
X366205Y408822D01*
X366225Y408899D01*
X366283Y409094D01*
X366361Y409347D01*
X366439Y409638D01*
X366536Y409988D01*
X366652Y410338D01*
X366750Y410708D01*
Y410727D01*
X366769Y410746D01*
X366788Y410805D01*
X366808Y410882D01*
X366847Y411077D01*
X366925Y411330D01*
X367002Y411641D01*
X367099Y411971D01*
X367197Y412321D01*
X367294Y412690D01*
Y412710D01*
X367313Y412729D01*
Y412787D01*
X367333Y412865D01*
X367391Y413040D01*
X367469Y413293D01*
X367547Y413565D01*
X367624Y413876D01*
X367799Y414537D01*
X368091Y415762D01*
Y415801D01*
Y415840D01*
X368071Y415937D01*
Y415956D01*
Y416034D01*
Y416151D01*
X368052Y416267D01*
Y416306D01*
Y416364D01*
X368033Y416481D01*
Y416578D01*
X368013Y416714D01*
X368071Y416909D01*
X368052Y416889D01*
X368071Y416928D01*
X368091Y417026D01*
X368149Y417162D01*
X368208Y417317D01*
Y417337D01*
X368227Y417356D01*
X368266Y417473D01*
X368344Y417628D01*
X368441Y417784D01*
Y417803D01*
X368460Y417823D01*
X368538Y417900D01*
X368616Y418017D01*
X368732Y418133D01*
X368771Y418153D01*
X368849Y418211D01*
X368966Y418270D01*
X369102Y418289D01*
X369218D01*
X369374Y418270D01*
X369549Y418250D01*
X369724D01*
X369879Y418231D01*
X370288D01*
X370346Y418250D01*
X370424Y418270D01*
X370521Y418289D01*
X370540D01*
X370637Y418328D01*
X370754Y418347D01*
X370929Y418406D01*
X370949D01*
X370968Y418425D01*
X371026Y418445D01*
X371104Y418464D01*
X371299Y418542D01*
X371571Y418639D01*
X371590Y418658D01*
X371668Y418678D01*
X371784Y418717D01*
X371940Y418756D01*
X372115Y418814D01*
X372290Y418872D01*
X372679Y418989D01*
X372698D01*
X372757Y419008D01*
X372854Y419047D01*
X372990Y419067D01*
X373126Y419105D01*
X373301Y419144D01*
X373631Y419222D01*
X373651D01*
X373709Y419242D01*
X373806Y419261D01*
X373923Y419280D01*
X374195Y419319D01*
X374506Y419358D01*
X374584D01*
X374662Y419378D01*
X374914D01*
X375050Y419397D01*
X375595D01*
X375731Y419378D01*
D02*
G37*
G36*
X397193Y414187D02*
X397368Y414148D01*
X397387D01*
X397406Y414129D01*
X397484Y414090D01*
X397601Y414012D01*
X397698Y413915D01*
X397717Y413896D01*
X397776Y413818D01*
X397834Y413721D01*
X397892Y413585D01*
X397912Y413546D01*
X397931Y413468D01*
X397951Y413351D01*
Y413196D01*
Y413176D01*
Y413157D01*
X397931Y413021D01*
X397912Y412865D01*
X397853Y412671D01*
Y412651D01*
X397834Y412632D01*
X397815Y412515D01*
X397756Y412360D01*
X397698Y412165D01*
X396298Y406586D01*
Y406567D01*
Y406508D01*
X396279Y406431D01*
Y406314D01*
X396259Y406042D01*
X396221Y405750D01*
Y405731D01*
Y405692D01*
X396201Y405614D01*
Y405517D01*
X396162Y405284D01*
X396104Y405031D01*
Y405012D01*
X396084Y404973D01*
X396046Y404895D01*
X396007Y404798D01*
Y404778D01*
X395968Y404720D01*
X395929Y404623D01*
X395851Y404526D01*
X395832Y404506D01*
X395793Y404448D01*
X395696Y404370D01*
X395599Y404312D01*
X395579Y404292D01*
X395482Y404273D01*
X395365Y404234D01*
X395190Y404214D01*
X394996D01*
X394821Y404234D01*
X394665Y404273D01*
X394626D01*
X394549Y404292D01*
X394451Y404331D01*
X394354Y404370D01*
X394335Y404389D01*
X394296Y404428D01*
X394257Y404487D01*
X394218Y404545D01*
Y404564D01*
X394199Y404623D01*
X394179Y404701D01*
Y404817D01*
Y404837D01*
Y404876D01*
Y404934D01*
X394199Y405031D01*
Y405128D01*
X394218Y405264D01*
X394257Y405556D01*
Y405575D01*
X394277Y405634D01*
Y405731D01*
X394296Y405848D01*
X394315Y406003D01*
Y406197D01*
X394335Y406392D01*
Y406625D01*
X394315Y406606D01*
X394277Y406586D01*
X394199Y406528D01*
X394102Y406450D01*
X393985Y406372D01*
X393868Y406256D01*
X393557Y406022D01*
X393538Y406003D01*
X393479Y405964D01*
X393402Y405886D01*
X393285Y405809D01*
X393149Y405711D01*
X393013Y405595D01*
X392683Y405342D01*
X392663Y405323D01*
X392605Y405284D01*
X392508Y405225D01*
X392410Y405167D01*
X392255Y405070D01*
X392119Y404992D01*
X391769Y404817D01*
X391749D01*
X391691Y404778D01*
X391613Y404759D01*
X391497Y404720D01*
X391225Y404642D01*
X391088Y404623D01*
X390933Y404603D01*
X390816D01*
X390739Y404623D01*
X390544Y404642D01*
X390330Y404681D01*
X390311D01*
X390291Y404701D01*
X390155Y404759D01*
X390000Y404837D01*
X389844Y404953D01*
X389825Y404973D01*
X389747Y405031D01*
X389650Y405109D01*
X389533Y405225D01*
X389397Y405362D01*
X389261Y405498D01*
X389144Y405653D01*
X389028Y405828D01*
X389008Y405848D01*
X388989Y405906D01*
X388950Y406003D01*
X388911Y406120D01*
X388853Y406275D01*
X388814Y406469D01*
X388794Y406664D01*
X388775Y406878D01*
Y406897D01*
Y406917D01*
Y407033D01*
X388794Y407208D01*
X388814Y407422D01*
Y407442D01*
X388833Y407480D01*
Y407539D01*
X388853Y407617D01*
X388911Y407830D01*
X388969Y408083D01*
Y408103D01*
X388989Y408161D01*
X389008Y408239D01*
X389047Y408375D01*
X389086Y408511D01*
X389144Y408686D01*
X389222Y408880D01*
X389300Y409094D01*
X389494Y409580D01*
X389728Y410085D01*
X390019Y410630D01*
X390350Y411174D01*
X390369Y411194D01*
X390389Y411232D01*
X390447Y411310D01*
X390525Y411407D01*
X390622Y411543D01*
X390739Y411680D01*
X391030Y412029D01*
X391380Y412399D01*
X391788Y412807D01*
X392255Y413235D01*
X392780Y413624D01*
X392799Y413643D01*
X392877Y413682D01*
X392993Y413760D01*
X393130Y413837D01*
X393305Y413915D01*
X393499Y413993D01*
X393693Y414071D01*
X393907Y414110D01*
X393927D01*
X394004Y414129D01*
X394121Y414148D01*
X394257Y414168D01*
X394432Y414187D01*
X394626Y414207D01*
X395035Y414226D01*
X395190D01*
X395346Y414207D01*
X395560Y414187D01*
X395676D01*
X395754Y414168D01*
X395929Y414148D01*
X396123Y414129D01*
X396143D01*
X396162Y414148D01*
X396259Y414168D01*
X396395Y414187D01*
X396512Y414207D01*
X396532D01*
X396609Y414226D01*
X397018D01*
X397193Y414187D01*
D02*
G37*
%LPC*%
G36*
X384090Y412146D02*
X384012D01*
X383915Y412127D01*
X383798Y412107D01*
X383662Y412088D01*
X383507Y412049D01*
X383351Y411971D01*
X383176Y411893D01*
X383157Y411874D01*
X383099Y411854D01*
X383021Y411796D01*
X382904Y411738D01*
X382632Y411543D01*
X382321Y411291D01*
X382301Y411271D01*
X382263Y411232D01*
X382185Y411155D01*
X382088Y411057D01*
X381971Y410941D01*
X381854Y410824D01*
X381621Y410513D01*
X381602Y410494D01*
X381563Y410435D01*
X381524Y410358D01*
X381446Y410260D01*
X381291Y410027D01*
X381155Y409755D01*
X381193D01*
X381291Y409774D01*
X381427D01*
X381621Y409794D01*
X381835Y409833D01*
X382049Y409871D01*
X382535Y409949D01*
X382554D01*
X382651Y409969D01*
X382768Y410008D01*
X382924Y410046D01*
X383079Y410105D01*
X383274Y410163D01*
X383643Y410319D01*
X383662Y410338D01*
X383721Y410358D01*
X383818Y410396D01*
X383915Y410455D01*
X384168Y410610D01*
X384420Y410805D01*
X384440Y410824D01*
X384459Y410844D01*
X384518Y410902D01*
X384576Y410980D01*
X384693Y411174D01*
X384751Y411271D01*
X384790Y411388D01*
Y411407D01*
X384809Y411427D01*
Y411485D01*
Y411505D01*
Y411582D01*
Y411602D01*
Y411621D01*
X384790Y411738D01*
X384712Y411893D01*
X384673Y411952D01*
X384595Y412010D01*
X384557Y412029D01*
X384459Y412088D01*
X384284Y412127D01*
X384090Y412146D01*
D02*
G37*
G36*
X379308Y392018D02*
Y391998D01*
X379288Y391960D01*
X379269Y391882D01*
X379249Y391804D01*
X379211Y391687D01*
X379172Y391551D01*
X379075Y391221D01*
X378958Y390832D01*
X378841Y390404D01*
X378705Y389957D01*
X378589Y389510D01*
Y389491D01*
X378569Y389452D01*
Y389393D01*
X378530Y389316D01*
X378511Y389199D01*
X378472Y389063D01*
X378414Y388771D01*
X378316Y388402D01*
X378219Y387994D01*
X378102Y387566D01*
X377986Y387119D01*
X378686Y387041D01*
X378725D01*
X378822Y387022D01*
X378958D01*
X379113Y387002D01*
X379405D01*
X379483Y387022D01*
X379599Y387041D01*
X379735Y387061D01*
X379910Y387080D01*
X380260Y387158D01*
X380280D01*
X380358Y387177D01*
X380455Y387197D01*
X380591Y387236D01*
X380746Y387275D01*
X380921Y387333D01*
X381310Y387449D01*
X381329D01*
X381407Y387488D01*
X381524Y387527D01*
X381660Y387585D01*
X381835Y387644D01*
X382010Y387722D01*
X382418Y387897D01*
X382438Y387916D01*
X382515Y387935D01*
X382632Y387994D01*
X382768Y388052D01*
X382943Y388149D01*
X383118Y388227D01*
X383526Y388441D01*
X383546D01*
X383565Y388460D01*
X383662Y388519D01*
X383798Y388616D01*
X383954Y388733D01*
X383973D01*
X383993Y388771D01*
X384090Y388849D01*
X384207Y388985D01*
X384343Y389141D01*
Y389160D01*
X384382Y389180D01*
X384459Y389277D01*
X384557Y389413D01*
X384654Y389588D01*
Y389607D01*
X384673Y389627D01*
X384712Y389743D01*
X384751Y389899D01*
X384770Y390093D01*
Y390113D01*
Y390171D01*
X384751Y390249D01*
X384712Y390346D01*
X384654Y390463D01*
X384576Y390579D01*
X384479Y390715D01*
X384323Y390832D01*
X384304Y390851D01*
X384245Y390890D01*
X384148Y390949D01*
X384012Y391007D01*
X383857Y391085D01*
X383643Y391162D01*
X383429Y391240D01*
X383176Y391318D01*
X383157D01*
X383079Y391337D01*
X382962Y391357D01*
X382768Y391396D01*
X382749D01*
X382729Y391415D01*
X382671D01*
X382593Y391435D01*
X382379Y391474D01*
X382127Y391512D01*
X382107D01*
X382068Y391532D01*
X381991D01*
X381893Y391551D01*
X381757Y391571D01*
X381621Y391590D01*
X381310Y391629D01*
X381291D01*
X381232Y391649D01*
X381155D01*
X381038Y391668D01*
X380785Y391726D01*
X380474Y391765D01*
X380455D01*
X380416Y391785D01*
X380338D01*
X380241Y391804D01*
X380008Y391862D01*
X379755Y391901D01*
X379735D01*
X379697Y391921D01*
X379580Y391940D01*
X379444Y391979D01*
X379308Y392018D01*
D02*
G37*
G36*
X385276Y398744D02*
X385062D01*
X384926Y398725D01*
X384751Y398705D01*
X384537Y398686D01*
X384304Y398647D01*
X384071Y398608D01*
X384051D01*
X383954Y398589D01*
X383837Y398569D01*
X383662Y398530D01*
X383468Y398472D01*
X383235Y398414D01*
X382768Y398277D01*
X382749D01*
X382671Y398239D01*
X382554Y398200D01*
X382399Y398141D01*
X382224Y398083D01*
X382029Y398005D01*
X381660Y397830D01*
X381641Y397811D01*
X381582Y397792D01*
X381505Y397753D01*
X381407Y397694D01*
X381193Y397539D01*
X381096Y397461D01*
X381018Y397364D01*
X380999Y397325D01*
X380960Y397247D01*
X380921Y397131D01*
Y397092D01*
X380882Y397014D01*
X380843Y396897D01*
X380785Y396742D01*
X380766Y396703D01*
X380746Y396606D01*
X380688Y396470D01*
X380630Y396314D01*
X380610Y396275D01*
X380591Y396197D01*
X380533Y396100D01*
X380494Y396023D01*
Y396003D01*
X380474Y395945D01*
X380455Y395848D01*
X380396Y395692D01*
X380377Y395653D01*
X380358Y395556D01*
X380299Y395381D01*
X380241Y395187D01*
Y395167D01*
X380221Y395128D01*
X380202Y395070D01*
X380183Y394992D01*
X380124Y394778D01*
X380047Y394526D01*
Y394506D01*
X380027Y394467D01*
X380008Y394390D01*
X379969Y394312D01*
X379891Y394059D01*
X379813Y393787D01*
X379833D01*
X379910Y393826D01*
X380047Y393865D01*
X380202Y393903D01*
X380377Y393962D01*
X380591Y394040D01*
X381057Y394215D01*
X381096Y394234D01*
X381174Y394253D01*
X381310Y394312D01*
X381485Y394390D01*
X381679Y394487D01*
X381913Y394584D01*
X382418Y394798D01*
X382457Y394817D01*
X382535Y394856D01*
X382671Y394914D01*
X382865Y394992D01*
X383079Y395089D01*
X383312Y395206D01*
X383837Y395439D01*
X383876Y395459D01*
X383954Y395498D01*
X384109Y395575D01*
X384284Y395653D01*
X384498Y395770D01*
X384732Y395886D01*
X385256Y396139D01*
X385276D01*
X385295Y396159D01*
X385412Y396236D01*
X385567Y396334D01*
X385742Y396470D01*
X385762D01*
X385781Y396509D01*
X385898Y396606D01*
X386034Y396742D01*
X386190Y396897D01*
Y396917D01*
X386228Y396936D01*
X386306Y397053D01*
X386403Y397208D01*
X386501Y397383D01*
Y397403D01*
X386520Y397422D01*
X386578Y397539D01*
X386617Y397694D01*
X386637Y397869D01*
Y397889D01*
Y397967D01*
X386598Y398064D01*
X386559Y398180D01*
X386539Y398219D01*
X386501Y398277D01*
X386423Y398375D01*
X386326Y398472D01*
X386306Y398491D01*
X386209Y398550D01*
X386073Y398608D01*
X385898Y398666D01*
X385878D01*
X385859Y398686D01*
X385801D01*
X385723Y398705D01*
X385529Y398725D01*
X385276Y398744D01*
D02*
G37*
G36*
X395948Y394176D02*
X395929Y394156D01*
X395890Y394078D01*
X395832Y394001D01*
X395754Y393903D01*
X395735Y393884D01*
X395676Y393845D01*
X395599Y393787D01*
X395462Y393709D01*
X395424Y393690D01*
X395326Y393651D01*
X395171Y393593D01*
X394957Y393534D01*
X394899D01*
X394821Y393515D01*
X394724Y393495D01*
X394607Y393476D01*
X394451Y393456D01*
X394296Y393437D01*
X394102Y393418D01*
X394082D01*
X394043Y393398D01*
X393966Y393359D01*
X393888Y393320D01*
X393654Y393204D01*
X393382Y393048D01*
X393363Y393029D01*
X393324Y393009D01*
X393246Y392951D01*
X393168Y392893D01*
X392935Y392718D01*
X392683Y392484D01*
X392663Y392465D01*
X392624Y392426D01*
X392546Y392368D01*
X392469Y392271D01*
X392255Y392037D01*
X392021Y391765D01*
X392002Y391746D01*
X391963Y391707D01*
X391905Y391629D01*
X391827Y391532D01*
X391652Y391279D01*
X391458Y390987D01*
X391438Y390968D01*
X391419Y390929D01*
X391361Y390851D01*
X391302Y390754D01*
X391166Y390501D01*
X391011Y390210D01*
Y390191D01*
X390991Y390152D01*
X390952Y390074D01*
X390913Y389977D01*
X390836Y389763D01*
X390758Y389510D01*
Y389491D01*
Y389471D01*
X390719Y389374D01*
X390700Y389218D01*
X390661Y389043D01*
Y389005D01*
Y388907D01*
X390641Y388791D01*
Y388635D01*
Y388616D01*
Y388577D01*
Y388499D01*
X390661Y388421D01*
X390680Y388208D01*
X390739Y387974D01*
Y387955D01*
X390758Y387935D01*
X390816Y387799D01*
X390894Y387644D01*
X391030Y387469D01*
X391069Y387430D01*
X391166Y387352D01*
X391322Y387236D01*
X391516Y387119D01*
X391535D01*
X391574Y387100D01*
X391633Y387080D01*
X391730Y387061D01*
X391847Y387041D01*
X391963Y387022D01*
X392274Y387002D01*
X392410D01*
X392566Y387022D01*
X392760Y387061D01*
X392993Y387100D01*
X393246Y387177D01*
X393499Y387275D01*
X393771Y387411D01*
X393810Y387430D01*
X393888Y387488D01*
X394024Y387566D01*
X394179Y387683D01*
X394374Y387838D01*
X394588Y388013D01*
X394801Y388208D01*
X394996Y388421D01*
X395015Y388441D01*
X395093Y388538D01*
X395190Y388655D01*
X395307Y388830D01*
X395462Y389024D01*
X395618Y389238D01*
X395773Y389491D01*
X395910Y389743D01*
X395929Y389782D01*
X395968Y389860D01*
X396026Y389996D01*
X396123Y390171D01*
X396201Y390385D01*
X396279Y390599D01*
X396376Y390832D01*
X396434Y391046D01*
Y391065D01*
X396454Y391104D01*
X396473Y391182D01*
X396493Y391279D01*
X396551Y391493D01*
X396590Y391746D01*
Y391765D01*
X396609Y391804D01*
Y391862D01*
X396629Y391940D01*
X396648Y392134D01*
X396668Y392348D01*
Y392368D01*
Y392407D01*
X396648Y392523D01*
X396629Y392698D01*
X396551Y392873D01*
Y392893D01*
X396532Y392912D01*
X396493Y393029D01*
X396395Y393184D01*
X396298Y393398D01*
X396279Y393437D01*
X396240Y393515D01*
X396182Y393651D01*
X396104Y393787D01*
X396084Y393826D01*
X396046Y393903D01*
X396007Y394040D01*
X395948Y394176D01*
D02*
G37*
G36*
X408536Y364426D02*
X408476D01*
X408430Y364420D01*
X408377Y364413D01*
X408310Y364400D01*
X408243Y364386D01*
X408163Y364360D01*
X408077Y364333D01*
X407990Y364300D01*
X407897Y364260D01*
X407804Y364213D01*
X407711Y364153D01*
X407617Y364080D01*
X407524Y364007D01*
X407438Y363914D01*
X407431Y363907D01*
X407417Y363887D01*
X407398Y363860D01*
X407364Y363820D01*
X407331Y363767D01*
X407291Y363707D01*
X407251Y363634D01*
X407211Y363554D01*
X407164Y363461D01*
X407125Y363361D01*
X407085Y363254D01*
X407051Y363134D01*
X407018Y363008D01*
X406998Y362875D01*
X406985Y362735D01*
X406978Y362582D01*
Y362575D01*
Y362548D01*
Y362508D01*
X406985Y362462D01*
X406991Y362395D01*
X407005Y362329D01*
X407018Y362249D01*
X407031Y362155D01*
X407085Y361969D01*
X407118Y361869D01*
X407164Y361769D01*
X407211Y361669D01*
X407271Y361576D01*
X407338Y361476D01*
X407417Y361389D01*
X407424Y361383D01*
X407438Y361369D01*
X407464Y361350D01*
X407497Y361316D01*
X407537Y361283D01*
X407591Y361250D01*
X407651Y361203D01*
X407717Y361163D01*
X407797Y361123D01*
X407877Y361083D01*
X407970Y361043D01*
X408064Y361010D01*
X408170Y360977D01*
X408277Y360957D01*
X408390Y360943D01*
X408510Y360937D01*
X408570D01*
X408616Y360943D01*
X408676Y360950D01*
X408736Y360963D01*
X408810Y360977D01*
X408889Y360997D01*
X409056Y361050D01*
X409149Y361083D01*
X409236Y361130D01*
X409329Y361183D01*
X409415Y361243D01*
X409502Y361310D01*
X409582Y361389D01*
X409589Y361396D01*
X409602Y361409D01*
X409622Y361436D01*
X409649Y361476D01*
X409682Y361523D01*
X409715Y361576D01*
X409755Y361643D01*
X409795Y361722D01*
X409835Y361809D01*
X409875Y361902D01*
X409908Y362009D01*
X409942Y362122D01*
X409968Y362242D01*
X409988Y362375D01*
X410002Y362515D01*
X410008Y362662D01*
Y362668D01*
Y362695D01*
Y362741D01*
X410002Y362795D01*
X409995Y362861D01*
X409988Y362941D01*
X409975Y363035D01*
X409955Y363128D01*
X409902Y363334D01*
X409868Y363441D01*
X409828Y363547D01*
X409775Y363654D01*
X409715Y363754D01*
X409649Y363854D01*
X409575Y363947D01*
X409569Y363953D01*
X409555Y363967D01*
X409529Y363994D01*
X409495Y364020D01*
X409455Y364060D01*
X409409Y364100D01*
X409349Y364140D01*
X409282Y364187D01*
X409209Y364233D01*
X409129Y364273D01*
X408956Y364353D01*
X408856Y364380D01*
X408756Y364406D01*
X408650Y364420D01*
X408536Y364426D01*
D02*
G37*
G36*
X382554Y430913D02*
X382476D01*
X382379Y430894D01*
X382263Y430874D01*
X382127Y430855D01*
X381971Y430816D01*
X381816Y430738D01*
X381641Y430661D01*
X381621Y430641D01*
X381563Y430622D01*
X381485Y430563D01*
X381368Y430505D01*
X381096Y430311D01*
X380785Y430058D01*
X380766Y430039D01*
X380727Y430000D01*
X380649Y429922D01*
X380552Y429825D01*
X380435Y429708D01*
X380319Y429592D01*
X380085Y429280D01*
X380066Y429261D01*
X380027Y429203D01*
X379988Y429125D01*
X379910Y429028D01*
X379755Y428794D01*
X379619Y428522D01*
X379658D01*
X379755Y428542D01*
X379891D01*
X380085Y428561D01*
X380299Y428600D01*
X380513Y428639D01*
X380999Y428717D01*
X381018D01*
X381116Y428736D01*
X381232Y428775D01*
X381388Y428814D01*
X381543Y428872D01*
X381738Y428931D01*
X382107Y429086D01*
X382127Y429106D01*
X382185Y429125D01*
X382282Y429164D01*
X382379Y429222D01*
X382632Y429378D01*
X382885Y429572D01*
X382904Y429592D01*
X382924Y429611D01*
X382982Y429669D01*
X383040Y429747D01*
X383157Y429941D01*
X383215Y430039D01*
X383254Y430155D01*
Y430175D01*
X383274Y430194D01*
Y430252D01*
Y430272D01*
Y430350D01*
Y430369D01*
Y430388D01*
X383254Y430505D01*
X383176Y430661D01*
X383137Y430719D01*
X383060Y430777D01*
X383021Y430797D01*
X382924Y430855D01*
X382749Y430894D01*
X382554Y430913D01*
D02*
G37*
G36*
X396562Y364426D02*
X396535D01*
X396502Y364420D01*
X396455D01*
X396402Y364406D01*
X396335Y364400D01*
X396269Y364380D01*
X396189Y364360D01*
X396109Y364327D01*
X396022Y364293D01*
X395936Y364247D01*
X395849Y364193D01*
X395762Y364133D01*
X395683Y364053D01*
X395603Y363973D01*
X395523Y363874D01*
X395516Y363867D01*
X395503Y363840D01*
X395476Y363794D01*
X395449Y363734D01*
X395409Y363654D01*
X395370Y363554D01*
X395330Y363434D01*
X395283Y363287D01*
X395236Y363121D01*
X395196Y362935D01*
X395157Y362721D01*
X395116Y362488D01*
X395090Y362222D01*
X395063Y361936D01*
X395057Y361782D01*
X395050Y361623D01*
X395043Y361456D01*
Y361283D01*
Y361276D01*
Y361263D01*
Y361236D01*
Y361203D01*
Y361156D01*
Y361103D01*
X395050Y361043D01*
Y360977D01*
X395057Y360823D01*
X395070Y360650D01*
X395083Y360464D01*
X395096Y360257D01*
X395123Y360051D01*
X395150Y359838D01*
X395183Y359625D01*
X395230Y359425D01*
X395276Y359232D01*
X395336Y359052D01*
X395403Y358899D01*
X395443Y358825D01*
X395483Y358765D01*
X395490Y358759D01*
X395503Y358739D01*
X395529Y358705D01*
X395563Y358672D01*
X395603Y358619D01*
X395656Y358572D01*
X395716Y358512D01*
X395782Y358459D01*
X395862Y358399D01*
X395942Y358339D01*
X396036Y358293D01*
X396129Y358246D01*
X396235Y358206D01*
X396342Y358173D01*
X396455Y358153D01*
X396575Y358146D01*
X396602D01*
X396635Y358153D01*
X396682Y358159D01*
X396742Y358166D01*
X396801Y358179D01*
X396875Y358199D01*
X396955Y358226D01*
X397035Y358259D01*
X397121Y358299D01*
X397214Y358352D01*
X397308Y358412D01*
X397394Y358479D01*
X397487Y358566D01*
X397574Y358659D01*
X397661Y358772D01*
X397667Y358779D01*
X397681Y358805D01*
X397701Y358845D01*
X397734Y358899D01*
X397767Y358972D01*
X397800Y359072D01*
X397840Y359185D01*
X397887Y359318D01*
X397927Y359478D01*
X397967Y359658D01*
X398000Y359864D01*
X398040Y360097D01*
X398054Y360217D01*
X398067Y360350D01*
X398080Y360490D01*
X398087Y360637D01*
X398094Y360783D01*
X398100Y360943D01*
X398107Y361110D01*
Y361283D01*
Y361290D01*
Y361303D01*
Y361330D01*
Y361363D01*
Y361409D01*
Y361463D01*
X398100Y361523D01*
Y361589D01*
X398094Y361742D01*
X398080Y361916D01*
X398067Y362102D01*
X398054Y362309D01*
X398027Y362515D01*
X398000Y362728D01*
X397960Y362941D01*
X397920Y363141D01*
X397867Y363334D01*
X397807Y363514D01*
X397741Y363667D01*
X397701Y363740D01*
X397661Y363800D01*
X397654Y363807D01*
X397641Y363827D01*
X397614Y363860D01*
X397581Y363900D01*
X397541Y363947D01*
X397487Y364000D01*
X397428Y364053D01*
X397361Y364113D01*
X397281Y364173D01*
X397201Y364227D01*
X397108Y364280D01*
X397015Y364327D01*
X396908Y364367D01*
X396801Y364400D01*
X396682Y364420D01*
X396562Y364426D01*
D02*
G37*
G36*
X354384Y361043D02*
X352479D01*
Y358406D01*
X354557D01*
X354664Y358412D01*
X354777D01*
X354890Y358419D01*
X354997Y358426D01*
X355043Y358432D01*
X355083Y358439D01*
X355097D01*
X355117Y358446D01*
X355143Y358452D01*
X355210Y358466D01*
X355290Y358486D01*
X355383Y358519D01*
X355483Y358552D01*
X355576Y358592D01*
X355669Y358646D01*
X355683Y358652D01*
X355709Y358672D01*
X355756Y358705D01*
X355809Y358752D01*
X355869Y358812D01*
X355936Y358885D01*
X356002Y358972D01*
X356062Y359072D01*
Y359078D01*
X356069Y359085D01*
X356089Y359125D01*
X356109Y359185D01*
X356142Y359258D01*
X356169Y359358D01*
X356189Y359471D01*
X356209Y359591D01*
X356215Y359724D01*
Y359731D01*
Y359744D01*
Y359764D01*
Y359798D01*
X356209Y359831D01*
X356202Y359878D01*
X356189Y359978D01*
X356162Y360091D01*
X356122Y360217D01*
X356062Y360344D01*
X355989Y360464D01*
Y360470D01*
X355976Y360477D01*
X355949Y360517D01*
X355896Y360570D01*
X355829Y360637D01*
X355736Y360710D01*
X355629Y360790D01*
X355509Y360857D01*
X355370Y360910D01*
X355363D01*
X355350Y360917D01*
X355330Y360923D01*
X355296Y360930D01*
X355256Y360943D01*
X355210Y360950D01*
X355150Y360963D01*
X355083Y360977D01*
X355010Y360990D01*
X354930Y361003D01*
X354837Y361010D01*
X354737Y361023D01*
X354624Y361030D01*
X354510Y361036D01*
X354384Y361043D01*
D02*
G37*
G36*
X354157Y364273D02*
X352479D01*
Y361949D01*
X354304D01*
X354364Y361955D01*
X354510Y361962D01*
X354670Y361969D01*
X354830Y361989D01*
X354977Y362009D01*
X355043Y362022D01*
X355103Y362035D01*
X355110D01*
X355123Y362042D01*
X355143Y362049D01*
X355170Y362055D01*
X355236Y362089D01*
X355323Y362129D01*
X355416Y362175D01*
X355516Y362242D01*
X355609Y362322D01*
X355689Y362415D01*
X355696Y362428D01*
X355723Y362462D01*
X355756Y362522D01*
X355789Y362602D01*
X355829Y362702D01*
X355856Y362815D01*
X355882Y362941D01*
X355889Y363088D01*
Y363094D01*
Y363108D01*
Y363128D01*
Y363154D01*
X355882Y363228D01*
X355869Y363314D01*
X355842Y363421D01*
X355809Y363534D01*
X355763Y363647D01*
X355703Y363760D01*
Y363767D01*
X355696Y363774D01*
X355669Y363807D01*
X355623Y363860D01*
X355569Y363920D01*
X355489Y363987D01*
X355403Y364053D01*
X355296Y364113D01*
X355176Y364160D01*
X355170D01*
X355163Y364167D01*
X355143Y364173D01*
X355110Y364180D01*
X355070Y364187D01*
X355023Y364193D01*
X354970Y364207D01*
X354903Y364220D01*
X354830Y364227D01*
X354744Y364240D01*
X354650Y364247D01*
X354544Y364253D01*
X354424Y364260D01*
X354297Y364267D01*
X354157Y364273D01*
D02*
G37*
G36*
X374681Y417512D02*
X374467D01*
X374331Y417492D01*
X374156Y417473D01*
X373942Y417453D01*
X373709Y417414D01*
X373476Y417375D01*
X373456D01*
X373359Y417356D01*
X373242Y417337D01*
X373067Y417298D01*
X372873Y417239D01*
X372640Y417181D01*
X372173Y417045D01*
X372154D01*
X372076Y417006D01*
X371959Y416967D01*
X371804Y416909D01*
X371629Y416851D01*
X371435Y416773D01*
X371065Y416598D01*
X371046Y416578D01*
X370987Y416559D01*
X370910Y416520D01*
X370813Y416462D01*
X370599Y416306D01*
X370501Y416228D01*
X370424Y416131D01*
X370404Y416092D01*
X370365Y416015D01*
X370326Y415898D01*
Y415859D01*
X370288Y415781D01*
X370249Y415665D01*
X370190Y415509D01*
X370171Y415470D01*
X370151Y415373D01*
X370093Y415237D01*
X370035Y415082D01*
X370015Y415043D01*
X369996Y414965D01*
X369938Y414868D01*
X369899Y414790D01*
Y414770D01*
X369879Y414712D01*
X369860Y414615D01*
X369802Y414459D01*
X369782Y414421D01*
X369763Y414323D01*
X369704Y414148D01*
X369646Y413954D01*
Y413935D01*
X369627Y413896D01*
X369607Y413837D01*
X369588Y413760D01*
X369529Y413546D01*
X369452Y413293D01*
Y413273D01*
X369432Y413235D01*
X369413Y413157D01*
X369374Y413079D01*
X369296Y412826D01*
X369218Y412554D01*
X369238D01*
X369316Y412593D01*
X369452Y412632D01*
X369607Y412671D01*
X369782Y412729D01*
X369996Y412807D01*
X370463Y412982D01*
X370501Y413001D01*
X370579Y413021D01*
X370715Y413079D01*
X370890Y413157D01*
X371085Y413254D01*
X371318Y413351D01*
X371823Y413565D01*
X371862Y413585D01*
X371940Y413624D01*
X372076Y413682D01*
X372270Y413760D01*
X372484Y413857D01*
X372718Y413973D01*
X373242Y414207D01*
X373281Y414226D01*
X373359Y414265D01*
X373515Y414343D01*
X373690Y414421D01*
X373903Y414537D01*
X374137Y414654D01*
X374662Y414907D01*
X374681D01*
X374700Y414926D01*
X374817Y415004D01*
X374973Y415101D01*
X375148Y415237D01*
X375167D01*
X375186Y415276D01*
X375303Y415373D01*
X375439Y415509D01*
X375595Y415665D01*
Y415684D01*
X375634Y415703D01*
X375711Y415820D01*
X375809Y415976D01*
X375906Y416151D01*
Y416170D01*
X375925Y416189D01*
X375984Y416306D01*
X376022Y416462D01*
X376042Y416637D01*
Y416656D01*
Y416734D01*
X376003Y416831D01*
X375964Y416948D01*
X375945Y416987D01*
X375906Y417045D01*
X375828Y417142D01*
X375731Y417239D01*
X375711Y417259D01*
X375614Y417317D01*
X375478Y417375D01*
X375303Y417434D01*
X375284D01*
X375264Y417453D01*
X375206D01*
X375128Y417473D01*
X374934Y417492D01*
X374681Y417512D01*
D02*
G37*
G36*
X368713Y410785D02*
Y410766D01*
X368693Y410727D01*
X368674Y410649D01*
X368655Y410571D01*
X368616Y410455D01*
X368577Y410319D01*
X368480Y409988D01*
X368363Y409599D01*
X368246Y409172D01*
X368110Y408725D01*
X367994Y408278D01*
Y408258D01*
X367974Y408219D01*
Y408161D01*
X367935Y408083D01*
X367916Y407966D01*
X367877Y407830D01*
X367819Y407539D01*
X367722Y407169D01*
X367624Y406761D01*
X367508Y406333D01*
X367391Y405886D01*
X368091Y405809D01*
X368130D01*
X368227Y405789D01*
X368363D01*
X368519Y405770D01*
X368810D01*
X368888Y405789D01*
X369005Y405809D01*
X369141Y405828D01*
X369316Y405848D01*
X369666Y405925D01*
X369685D01*
X369763Y405945D01*
X369860Y405964D01*
X369996Y406003D01*
X370151Y406042D01*
X370326Y406100D01*
X370715Y406217D01*
X370735D01*
X370813Y406256D01*
X370929Y406295D01*
X371065Y406353D01*
X371240Y406411D01*
X371415Y406489D01*
X371823Y406664D01*
X371843Y406683D01*
X371921Y406703D01*
X372037Y406761D01*
X372173Y406819D01*
X372348Y406917D01*
X372523Y406994D01*
X372931Y407208D01*
X372951D01*
X372970Y407228D01*
X373067Y407286D01*
X373204Y407383D01*
X373359Y407500D01*
X373379D01*
X373398Y407539D01*
X373495Y407617D01*
X373612Y407753D01*
X373748Y407908D01*
Y407928D01*
X373787Y407947D01*
X373865Y408044D01*
X373962Y408180D01*
X374059Y408355D01*
Y408375D01*
X374078Y408394D01*
X374117Y408511D01*
X374156Y408666D01*
X374176Y408861D01*
Y408880D01*
Y408938D01*
X374156Y409016D01*
X374117Y409113D01*
X374059Y409230D01*
X373981Y409347D01*
X373884Y409483D01*
X373728Y409599D01*
X373709Y409619D01*
X373651Y409658D01*
X373553Y409716D01*
X373417Y409774D01*
X373262Y409852D01*
X373048Y409930D01*
X372834Y410008D01*
X372582Y410085D01*
X372562D01*
X372484Y410105D01*
X372368Y410124D01*
X372173Y410163D01*
X372154D01*
X372134Y410183D01*
X372076D01*
X371998Y410202D01*
X371784Y410241D01*
X371532Y410280D01*
X371512D01*
X371473Y410299D01*
X371396D01*
X371299Y410319D01*
X371162Y410338D01*
X371026Y410358D01*
X370715Y410396D01*
X370696D01*
X370637Y410416D01*
X370560D01*
X370443Y410435D01*
X370190Y410494D01*
X369879Y410533D01*
X369860D01*
X369821Y410552D01*
X369743D01*
X369646Y410571D01*
X369413Y410630D01*
X369160Y410669D01*
X369141D01*
X369102Y410688D01*
X368985Y410708D01*
X368849Y410746D01*
X368713Y410785D01*
D02*
G37*
G36*
X395462Y412710D02*
X395268D01*
X395151Y412690D01*
X394996Y412671D01*
X394821Y412632D01*
X394432Y412515D01*
X394413D01*
X394335Y412476D01*
X394238Y412438D01*
X394102Y412379D01*
X393946Y412301D01*
X393791Y412204D01*
X393421Y411971D01*
X393402Y411952D01*
X393343Y411913D01*
X393246Y411835D01*
X393130Y411757D01*
X392974Y411641D01*
X392819Y411505D01*
X392488Y411174D01*
X392469Y411155D01*
X392410Y411096D01*
X392333Y410999D01*
X392216Y410882D01*
X392099Y410727D01*
X391963Y410552D01*
X391672Y410183D01*
X391652Y410163D01*
X391613Y410085D01*
X391555Y409988D01*
X391458Y409852D01*
X391361Y409677D01*
X391263Y409502D01*
X391050Y409094D01*
X391030Y409074D01*
X391011Y408997D01*
X390972Y408899D01*
X390913Y408764D01*
X390836Y408589D01*
X390777Y408414D01*
X390661Y408025D01*
Y408005D01*
X390641Y407908D01*
X390602Y407772D01*
X390564Y407597D01*
Y407578D01*
Y407558D01*
X390544Y407500D01*
Y407422D01*
X390525Y407247D01*
Y407033D01*
Y407014D01*
Y406994D01*
X390544Y406878D01*
X390564Y406703D01*
X390602Y406528D01*
X390622Y406489D01*
X390680Y406411D01*
X390816Y406333D01*
X390894Y406314D01*
X390991Y406295D01*
X391069D01*
X391147Y406314D01*
X391263D01*
X391516Y406372D01*
X391808Y406489D01*
X391827D01*
X391866Y406528D01*
X391944Y406567D01*
X392041Y406625D01*
X392294Y406781D01*
X392546Y406975D01*
X392566Y406994D01*
X392624Y407033D01*
X392721Y407111D01*
X392838Y407208D01*
X392974Y407344D01*
X393130Y407480D01*
X393460Y407792D01*
X393479Y407811D01*
X393538Y407869D01*
X393635Y407966D01*
X393752Y408083D01*
X393888Y408239D01*
X394043Y408394D01*
X394354Y408764D01*
X394374Y408783D01*
X394432Y408861D01*
X394510Y408958D01*
X394607Y409094D01*
X394724Y409249D01*
X394840Y409424D01*
X395093Y409813D01*
X395112Y409833D01*
X395151Y409910D01*
X395210Y410008D01*
X395287Y410144D01*
X395365Y410319D01*
X395443Y410494D01*
X395579Y410882D01*
Y410902D01*
X395599Y410941D01*
Y410999D01*
X395618Y411096D01*
X395676Y411310D01*
X395715Y411582D01*
Y411602D01*
X395735Y411660D01*
Y411738D01*
X395754Y411835D01*
X395773Y412068D01*
Y412321D01*
Y412340D01*
Y412399D01*
X395754Y412476D01*
X395715Y412574D01*
X395696Y412593D01*
X395657Y412651D01*
X395579Y412690D01*
X395462Y412710D01*
D02*
G37*
%LPD*%
D10*
X386000Y373000D02*
G03*
X386000Y350500I11250J-11250D01*
G01*
X370000D02*
G03*
X370000Y373000I-11250J11250D01*
G01*
X375000Y370500D02*
X378000Y367500D01*
X381250Y370750D01*
X378250Y373750D02*
X381250Y370750D01*
X375000Y370500D02*
X378250Y373750D01*
X414002Y315000D02*
X420000D01*
Y317999D01*
X419000Y318999D01*
X418001D01*
X417001Y317999D01*
Y315000D01*
Y317999D01*
X416001Y318999D01*
X415002D01*
X414002Y317999D01*
Y315000D01*
Y320998D02*
Y324997D01*
Y322997D01*
X420000D01*
Y326996D02*
X414002D01*
X420000Y330995D01*
X414002D01*
X420000Y332994D02*
Y334994D01*
Y333994D01*
X414002D01*
X415002Y332994D01*
X308999Y29998D02*
X307999Y30998D01*
X306000D01*
X305000Y29998D01*
Y26000D01*
X306000Y25000D01*
X307999D01*
X308999Y26000D01*
X310998Y25000D02*
X312997D01*
X311998D01*
Y30998D01*
X310998Y29998D01*
X315996D02*
X316996Y30998D01*
X318995D01*
X319995Y29998D01*
Y26000D01*
X318995Y25000D01*
X316996D01*
X315996Y26000D01*
Y29998D01*
X313999Y59998D02*
X312999Y60998D01*
X311000D01*
X310000Y59998D01*
Y56000D01*
X311000Y55000D01*
X312999D01*
X313999Y56000D01*
X315998D02*
X316998Y55000D01*
X318997D01*
X319997Y56000D01*
Y59998D01*
X318997Y60998D01*
X316998D01*
X315998Y59998D01*
Y58999D01*
X316998Y57999D01*
X319997D01*
X313999Y94998D02*
X312999Y95998D01*
X311000D01*
X310000Y94998D01*
Y91000D01*
X311000Y90000D01*
X312999D01*
X313999Y91000D01*
X315998Y94998D02*
X316998Y95998D01*
X318997D01*
X319997Y94998D01*
Y93999D01*
X318997Y92999D01*
X319997Y91999D01*
Y91000D01*
X318997Y90000D01*
X316998D01*
X315998Y91000D01*
Y91999D01*
X316998Y92999D01*
X315998Y93999D01*
Y94998D01*
X316998Y92999D02*
X318997D01*
X313999Y124998D02*
X312999Y125998D01*
X311000D01*
X310000Y124998D01*
Y121000D01*
X311000Y120000D01*
X312999D01*
X313999Y121000D01*
X315998Y125998D02*
X319997D01*
Y124998D01*
X315998Y121000D01*
Y120000D01*
X313999Y154998D02*
X312999Y155998D01*
X311000D01*
X310000Y154998D01*
Y151000D01*
X311000Y150000D01*
X312999D01*
X313999Y151000D01*
X319997Y155998D02*
X317997Y154998D01*
X315998Y152999D01*
Y151000D01*
X316998Y150000D01*
X318997D01*
X319997Y151000D01*
Y151999D01*
X318997Y152999D01*
X315998D01*
X313999Y184998D02*
X312999Y185998D01*
X311000D01*
X310000Y184998D01*
Y181000D01*
X311000Y180000D01*
X312999D01*
X313999Y181000D01*
X319997Y185998D02*
X315998D01*
Y182999D01*
X317997Y183999D01*
X318997D01*
X319997Y182999D01*
Y181000D01*
X318997Y180000D01*
X316998D01*
X315998Y181000D01*
X313999Y214998D02*
X312999Y215998D01*
X311000D01*
X310000Y214998D01*
Y211000D01*
X311000Y210000D01*
X312999D01*
X313999Y211000D01*
X318997Y210000D02*
Y215998D01*
X315998Y212999D01*
X319997D01*
X313999Y244998D02*
X312999Y245998D01*
X311000D01*
X310000Y244998D01*
Y241000D01*
X311000Y240000D01*
X312999D01*
X313999Y241000D01*
X315998Y244998D02*
X316998Y245998D01*
X318997D01*
X319997Y244998D01*
Y243999D01*
X318997Y242999D01*
X317997D01*
X318997D01*
X319997Y241999D01*
Y241000D01*
X318997Y240000D01*
X316998D01*
X315998Y241000D01*
X313999Y279998D02*
X312999Y280998D01*
X311000D01*
X310000Y279998D01*
Y276000D01*
X311000Y275000D01*
X312999D01*
X313999Y276000D01*
X319997Y275000D02*
X315998D01*
X319997Y278999D01*
Y279998D01*
X318997Y280998D01*
X316998D01*
X315998Y279998D01*
X313999Y309998D02*
X312999Y310998D01*
X311000D01*
X310000Y309998D01*
Y306000D01*
X311000Y305000D01*
X312999D01*
X313999Y306000D01*
X315998Y305000D02*
X317997D01*
X316998D01*
Y310998D01*
X315998Y309998D01*
X414002Y30000D02*
X420000D01*
Y32999D01*
X419000Y33999D01*
X418001D01*
X417001Y32999D01*
Y30000D01*
Y32999D01*
X416001Y33999D01*
X415002D01*
X414002Y32999D01*
Y30000D01*
Y35998D02*
Y39997D01*
Y37997D01*
X420000D01*
Y41996D02*
X414002D01*
X420000Y45995D01*
X414002D01*
X420000Y47994D02*
Y49994D01*
Y48994D01*
X414002D01*
X415002Y47994D01*
Y52993D02*
X414002Y53992D01*
Y55992D01*
X415002Y56991D01*
X419000D01*
X420000Y55992D01*
Y53992D01*
X419000Y52993D01*
X415002D01*
X414002Y65000D02*
X420000D01*
Y67999D01*
X419000Y68999D01*
X418001D01*
X417001Y67999D01*
Y65000D01*
Y67999D01*
X416001Y68999D01*
X415002D01*
X414002Y67999D01*
Y65000D01*
Y70998D02*
Y74997D01*
Y72997D01*
X420000D01*
Y76996D02*
X414002D01*
X420000Y80995D01*
X414002D01*
X419000Y82994D02*
X420000Y83994D01*
Y85993D01*
X419000Y86993D01*
X415002D01*
X414002Y85993D01*
Y83994D01*
X415002Y82994D01*
X416001D01*
X417001Y83994D01*
Y86993D01*
X414002Y96667D02*
X420000D01*
Y99666D01*
X419000Y100665D01*
X418001D01*
X417001Y99666D01*
Y96667D01*
Y99666D01*
X416001Y100665D01*
X415002D01*
X414002Y99666D01*
Y96667D01*
Y102665D02*
Y106663D01*
Y104664D01*
X420000D01*
Y108663D02*
X414002D01*
X420000Y112662D01*
X414002D01*
X415002Y114661D02*
X414002Y115661D01*
Y117660D01*
X415002Y118660D01*
X416001D01*
X417001Y117660D01*
X418001Y118660D01*
X419000D01*
X420000Y117660D01*
Y115661D01*
X419000Y114661D01*
X418001D01*
X417001Y115661D01*
X416001Y114661D01*
X415002D01*
X417001Y115661D02*
Y117660D01*
X414002Y130000D02*
X420000D01*
Y132999D01*
X419000Y133999D01*
X418001D01*
X417001Y132999D01*
Y130000D01*
Y132999D01*
X416001Y133999D01*
X415002D01*
X414002Y132999D01*
Y130000D01*
Y135998D02*
Y139997D01*
Y137997D01*
X420000D01*
Y141996D02*
X414002D01*
X420000Y145995D01*
X414002D01*
Y147994D02*
Y151993D01*
X415002D01*
X419000Y147994D01*
X420000D01*
X414002Y160000D02*
X420000D01*
Y162999D01*
X419000Y163999D01*
X418001D01*
X417001Y162999D01*
Y160000D01*
Y162999D01*
X416001Y163999D01*
X415002D01*
X414002Y162999D01*
Y160000D01*
Y165998D02*
Y169997D01*
Y167997D01*
X420000D01*
Y171996D02*
X414002D01*
X420000Y175995D01*
X414002D01*
Y181993D02*
X415002Y179993D01*
X417001Y177994D01*
X419000D01*
X420000Y178994D01*
Y180993D01*
X419000Y181993D01*
X418001D01*
X417001Y180993D01*
Y177994D01*
X414002Y190000D02*
X420000D01*
Y192999D01*
X419000Y193999D01*
X418001D01*
X417001Y192999D01*
Y190000D01*
Y192999D01*
X416001Y193999D01*
X415002D01*
X414002Y192999D01*
Y190000D01*
Y195998D02*
Y199997D01*
Y197997D01*
X420000D01*
Y201996D02*
X414002D01*
X420000Y205995D01*
X414002D01*
Y211993D02*
Y207994D01*
X417001D01*
X416001Y209994D01*
Y210993D01*
X417001Y211993D01*
X419000D01*
X420000Y210993D01*
Y208994D01*
X419000Y207994D01*
X414002Y220000D02*
X420000D01*
Y222999D01*
X419000Y223999D01*
X418001D01*
X417001Y222999D01*
Y220000D01*
Y222999D01*
X416001Y223999D01*
X415002D01*
X414002Y222999D01*
Y220000D01*
Y225998D02*
Y229997D01*
Y227997D01*
X420000D01*
Y231996D02*
X414002D01*
X420000Y235995D01*
X414002D01*
X420000Y240993D02*
X414002D01*
X417001Y237994D01*
Y241993D01*
X414002Y250000D02*
X420000D01*
Y252999D01*
X419000Y253999D01*
X418001D01*
X417001Y252999D01*
Y250000D01*
Y252999D01*
X416001Y253999D01*
X415002D01*
X414002Y252999D01*
Y250000D01*
Y255998D02*
Y259997D01*
Y257997D01*
X420000D01*
Y261996D02*
X414002D01*
X420000Y265995D01*
X414002D01*
X415002Y267994D02*
X414002Y268994D01*
Y270993D01*
X415002Y271993D01*
X416001D01*
X417001Y270993D01*
Y269993D01*
Y270993D01*
X418001Y271993D01*
X419000D01*
X420000Y270993D01*
Y268994D01*
X419000Y267994D01*
X414002Y285000D02*
X420000D01*
Y287999D01*
X419000Y288999D01*
X418001D01*
X417001Y287999D01*
Y285000D01*
Y287999D01*
X416001Y288999D01*
X415002D01*
X414002Y287999D01*
Y285000D01*
Y290998D02*
Y294997D01*
Y292997D01*
X420000D01*
Y296996D02*
X414002D01*
X420000Y300995D01*
X414002D01*
X420000Y306993D02*
Y302994D01*
X416001Y306993D01*
X415002D01*
X414002Y305993D01*
Y303994D01*
X415002Y302994D01*
X299606Y32677D02*
Y38675D01*
X302605D01*
X303605Y37675D01*
Y35676D01*
X302605Y34677D01*
X299606D01*
X301606D02*
X303605Y32677D01*
X305604D02*
X307604D01*
X306604D01*
Y38675D01*
X305604Y37675D01*
X310603D02*
X311602Y38675D01*
X313602D01*
X314601Y37675D01*
Y33677D01*
X313602Y32677D01*
X311602D01*
X310603Y33677D01*
Y37675D01*
X300000Y65000D02*
Y70998D01*
X302999D01*
X303999Y69998D01*
Y67999D01*
X302999Y66999D01*
X300000D01*
X301999D02*
X303999Y65000D01*
X305998Y66000D02*
X306998Y65000D01*
X308997D01*
X309997Y66000D01*
Y69998D01*
X308997Y70998D01*
X306998D01*
X305998Y69998D01*
Y68999D01*
X306998Y67999D01*
X309997D01*
X300000Y100000D02*
Y105998D01*
X302999D01*
X303999Y104998D01*
Y102999D01*
X302999Y101999D01*
X300000D01*
X301999D02*
X303999Y100000D01*
X305998Y104998D02*
X306998Y105998D01*
X308997D01*
X309997Y104998D01*
Y103999D01*
X308997Y102999D01*
X309997Y101999D01*
Y101000D01*
X308997Y100000D01*
X306998D01*
X305998Y101000D01*
Y101999D01*
X306998Y102999D01*
X305998Y103999D01*
Y104998D01*
X306998Y102999D02*
X308997D01*
X300000Y130000D02*
Y135998D01*
X302999D01*
X303999Y134998D01*
Y132999D01*
X302999Y131999D01*
X300000D01*
X301999D02*
X303999Y130000D01*
X305998Y135998D02*
X309997D01*
Y134998D01*
X305998Y131000D01*
Y130000D01*
X300000Y160000D02*
Y165998D01*
X302999D01*
X303999Y164998D01*
Y162999D01*
X302999Y161999D01*
X300000D01*
X301999D02*
X303999Y160000D01*
X309997Y165998D02*
X307997Y164998D01*
X305998Y162999D01*
Y161000D01*
X306998Y160000D01*
X308997D01*
X309997Y161000D01*
Y161999D01*
X308997Y162999D01*
X305998D01*
X300000Y190000D02*
Y195998D01*
X302999D01*
X303999Y194998D01*
Y192999D01*
X302999Y191999D01*
X300000D01*
X301999D02*
X303999Y190000D01*
X309997Y195998D02*
X305998D01*
Y192999D01*
X307997Y193999D01*
X308997D01*
X309997Y192999D01*
Y191000D01*
X308997Y190000D01*
X306998D01*
X305998Y191000D01*
X300000Y220000D02*
Y225998D01*
X302999D01*
X303999Y224998D01*
Y222999D01*
X302999Y221999D01*
X300000D01*
X301999D02*
X303999Y220000D01*
X308997D02*
Y225998D01*
X305998Y222999D01*
X309997D01*
X300000Y255000D02*
Y260998D01*
X302999D01*
X303999Y259998D01*
Y257999D01*
X302999Y256999D01*
X300000D01*
X301999D02*
X303999Y255000D01*
X305998Y259998D02*
X306998Y260998D01*
X308997D01*
X309997Y259998D01*
Y258999D01*
X308997Y257999D01*
X307997D01*
X308997D01*
X309997Y256999D01*
Y256000D01*
X308997Y255000D01*
X306998D01*
X305998Y256000D01*
X300000Y285000D02*
Y290998D01*
X302999D01*
X303999Y289998D01*
Y287999D01*
X302999Y286999D01*
X300000D01*
X301999D02*
X303999Y285000D01*
X309997D02*
X305998D01*
X309997Y288999D01*
Y289998D01*
X308997Y290998D01*
X306998D01*
X305998Y289998D01*
X300000Y315000D02*
Y320998D01*
X302999D01*
X303999Y319998D01*
Y317999D01*
X302999Y316999D01*
X300000D01*
X301999D02*
X303999Y315000D01*
X305998D02*
X307997D01*
X306998D01*
Y320998D01*
X305998Y319998D01*
X-3700Y368300D02*
X-1701D01*
X-2700D01*
Y374298D01*
X-3700Y373298D01*
X-401Y118398D02*
X-1401Y119398D01*
X-3400D01*
X-4400Y118398D01*
Y114400D01*
X-3400Y113400D01*
X-1401D01*
X-401Y114400D01*
X1598Y113400D02*
X3597D01*
X2598D01*
Y119398D01*
X1598Y118398D01*
X6596Y113400D02*
X8596D01*
X7596D01*
Y119398D01*
X6596Y118398D01*
X26199Y42467D02*
X24199D01*
X25199D01*
Y37468D01*
X24199Y36468D01*
X23200D01*
X22200Y37468D01*
X28198Y36468D02*
X30197D01*
X29198D01*
Y42467D01*
X28198Y41467D01*
X33196D02*
X34196Y42467D01*
X36195D01*
X37195Y41467D01*
Y37468D01*
X36195Y36468D01*
X34196D01*
X33196Y37468D01*
Y41467D01*
X-15000Y175000D02*
X-9002D01*
Y172001D01*
X-10002Y171001D01*
X-12001D01*
X-13001Y172001D01*
Y175000D01*
X-9002Y169002D02*
Y167003D01*
Y168002D01*
X-15000D01*
Y169002D01*
Y167003D01*
X-9002Y164004D02*
X-15000Y160005D01*
X-9002D02*
X-15000Y164004D01*
Y155007D02*
X-9002D01*
X-12001Y158005D01*
Y154007D01*
X-15000Y205000D02*
X-9002D01*
Y202001D01*
X-10002Y201001D01*
X-12001D01*
X-13001Y202001D01*
Y205000D01*
X-9002Y199002D02*
Y197003D01*
Y198002D01*
X-15000D01*
Y199002D01*
Y197003D01*
X-9002Y194004D02*
X-15000Y190005D01*
X-9002D02*
X-15000Y194004D01*
X-10002Y188005D02*
X-9002Y187006D01*
Y185006D01*
X-10002Y184007D01*
X-11001D01*
X-12001Y185006D01*
Y186006D01*
Y185006D01*
X-13001Y184007D01*
X-14000D01*
X-15000Y185006D01*
Y187006D01*
X-14000Y188005D01*
X-15000Y235000D02*
X-9002D01*
Y232001D01*
X-10002Y231001D01*
X-12001D01*
X-13001Y232001D01*
Y235000D01*
X-9002Y229002D02*
Y227003D01*
Y228002D01*
X-15000D01*
Y229002D01*
Y227003D01*
X-9002Y224004D02*
X-15000Y220005D01*
X-9002D02*
X-15000Y224004D01*
Y214007D02*
Y218005D01*
X-11001Y214007D01*
X-10002D01*
X-9002Y215006D01*
Y217006D01*
X-10002Y218005D01*
X-15000Y265000D02*
X-9002D01*
Y262001D01*
X-10002Y261001D01*
X-12001D01*
X-13001Y262001D01*
Y265000D01*
X-9002Y259002D02*
Y257003D01*
Y258002D01*
X-15000D01*
Y259002D01*
Y257003D01*
X-9002Y254004D02*
X-15000Y250005D01*
X-9002D02*
X-15000Y254004D01*
Y248006D02*
Y246006D01*
Y247006D01*
X-9002D01*
X-10002Y248006D01*
X46001Y509002D02*
X50000D01*
Y515000D01*
X46001D01*
X50000Y512001D02*
X48001D01*
X44002Y515000D02*
Y509002D01*
X40003Y515000D01*
Y509002D01*
X34005Y510002D02*
X35005Y509002D01*
X37004D01*
X38004Y510002D01*
Y514000D01*
X37004Y515000D01*
X35005D01*
X34005Y514000D01*
X32006Y515000D02*
X30007D01*
X31006D01*
Y509002D01*
X32006Y510002D01*
X27007D02*
X26008Y509002D01*
X24008D01*
X23009Y510002D01*
Y514000D01*
X24008Y515000D01*
X26008D01*
X27007Y514000D01*
Y510002D01*
X83223Y509002D02*
X87222D01*
Y515000D01*
X83223D01*
X87222Y512001D02*
X85223D01*
X81224Y515000D02*
Y509002D01*
X77226Y515000D01*
Y509002D01*
X71227Y510002D02*
X72227Y509002D01*
X74226D01*
X75226Y510002D01*
Y514000D01*
X74226Y515000D01*
X72227D01*
X71227Y514000D01*
X69228D02*
X68228Y515000D01*
X66229D01*
X65229Y514000D01*
Y510002D01*
X66229Y509002D01*
X68228D01*
X69228Y510002D01*
Y511001D01*
X68228Y512001D01*
X65229D01*
X115446Y509002D02*
X119444D01*
Y515000D01*
X115446D01*
X119444Y512001D02*
X117445D01*
X113446Y515000D02*
Y509002D01*
X109448Y515000D01*
Y509002D01*
X103450Y510002D02*
X104449Y509002D01*
X106449D01*
X107448Y510002D01*
Y514000D01*
X106449Y515000D01*
X104449D01*
X103450Y514000D01*
X101450Y510002D02*
X100451Y509002D01*
X98451D01*
X97452Y510002D01*
Y511001D01*
X98451Y512001D01*
X97452Y513001D01*
Y514000D01*
X98451Y515000D01*
X100451D01*
X101450Y514000D01*
Y513001D01*
X100451Y512001D01*
X101450Y511001D01*
Y510002D01*
X100451Y512001D02*
X98451D01*
X147668Y509002D02*
X151667D01*
Y515000D01*
X147668D01*
X151667Y512001D02*
X149667D01*
X145669Y515000D02*
Y509002D01*
X141670Y515000D01*
Y509002D01*
X135672Y510002D02*
X136671Y509002D01*
X138671D01*
X139671Y510002D01*
Y514000D01*
X138671Y515000D01*
X136671D01*
X135672Y514000D01*
X133672Y509002D02*
X129674D01*
Y510002D01*
X133672Y514000D01*
Y515000D01*
X184890Y509002D02*
X188889D01*
Y515000D01*
X184890D01*
X188889Y512001D02*
X186890D01*
X182891Y515000D02*
Y509002D01*
X178892Y515000D01*
Y509002D01*
X172894Y510002D02*
X173894Y509002D01*
X175893D01*
X176893Y510002D01*
Y514000D01*
X175893Y515000D01*
X173894D01*
X172894Y514000D01*
X166896Y509002D02*
X168895Y510002D01*
X170895Y512001D01*
Y514000D01*
X169895Y515000D01*
X167896D01*
X166896Y514000D01*
Y513001D01*
X167896Y512001D01*
X170895D01*
X221001Y509002D02*
X225000D01*
Y515000D01*
X221001D01*
X225000Y512001D02*
X223001D01*
X219002Y515000D02*
Y509002D01*
X215003Y515000D01*
Y509002D01*
X209005Y510002D02*
X210005Y509002D01*
X212004D01*
X213004Y510002D01*
Y514000D01*
X212004Y515000D01*
X210005D01*
X209005Y514000D01*
X203007Y509002D02*
X207006D01*
Y512001D01*
X205007Y511001D01*
X204007D01*
X203007Y512001D01*
Y514000D01*
X204007Y515000D01*
X206006D01*
X207006Y514000D01*
X254335Y509002D02*
X258333D01*
Y515000D01*
X254335D01*
X258333Y512001D02*
X256334D01*
X252335Y515000D02*
Y509002D01*
X248337Y515000D01*
Y509002D01*
X242338Y510002D02*
X243338Y509002D01*
X245338D01*
X246337Y510002D01*
Y514000D01*
X245338Y515000D01*
X243338D01*
X242338Y514000D01*
X237340Y515000D02*
Y509002D01*
X240339Y512001D01*
X236340D01*
X286557Y509002D02*
X290556D01*
Y515000D01*
X286557D01*
X290556Y512001D02*
X288556D01*
X284558Y515000D02*
Y509002D01*
X280559Y515000D01*
Y509002D01*
X274561Y510002D02*
X275560Y509002D01*
X277560D01*
X278559Y510002D01*
Y514000D01*
X277560Y515000D01*
X275560D01*
X274561Y514000D01*
X272561Y510002D02*
X271562Y509002D01*
X269562D01*
X268563Y510002D01*
Y511001D01*
X269562Y512001D01*
X270562D01*
X269562D01*
X268563Y513001D01*
Y514000D01*
X269562Y515000D01*
X271562D01*
X272561Y514000D01*
X323779Y509002D02*
X327778D01*
Y515000D01*
X323779D01*
X327778Y512001D02*
X325778D01*
X321780Y515000D02*
Y509002D01*
X317781Y515000D01*
Y509002D01*
X311783Y510002D02*
X312783Y509002D01*
X314782D01*
X315782Y510002D01*
Y514000D01*
X314782Y515000D01*
X312783D01*
X311783Y514000D01*
X305785Y515000D02*
X309784D01*
X305785Y511001D01*
Y510002D01*
X306785Y509002D01*
X308784D01*
X309784Y510002D01*
X356001Y509002D02*
X360000D01*
Y515000D01*
X356001D01*
X360000Y512001D02*
X358001D01*
X354002Y515000D02*
Y509002D01*
X350003Y515000D01*
Y509002D01*
X344005Y510002D02*
X345005Y509002D01*
X347004D01*
X348004Y510002D01*
Y514000D01*
X347004Y515000D01*
X345005D01*
X344005Y514000D01*
X342006Y515000D02*
X340006D01*
X341006D01*
Y509002D01*
X342006Y510002D01*
X32800Y266400D02*
Y272398D01*
X35799D01*
X36799Y271398D01*
Y269399D01*
X35799Y268399D01*
X32800D01*
X34799D02*
X36799Y266400D01*
X38798D02*
X40797D01*
X39798D01*
Y272398D01*
X38798Y271398D01*
X43796Y266400D02*
X45796D01*
X44796D01*
Y272398D01*
X43796Y271398D01*
X32800Y206400D02*
Y212398D01*
X35799D01*
X36799Y211398D01*
Y209399D01*
X35799Y208399D01*
X32800D01*
X34799D02*
X36799Y206400D01*
X38798D02*
X40797D01*
X39798D01*
Y212398D01*
X38798Y211398D01*
X43796D02*
X44796Y212398D01*
X46795D01*
X47795Y211398D01*
Y210399D01*
X46795Y209399D01*
X45796D01*
X46795D01*
X47795Y208399D01*
Y207400D01*
X46795Y206400D01*
X44796D01*
X43796Y207400D01*
X32800Y176400D02*
Y182398D01*
X35799D01*
X36799Y181398D01*
Y179399D01*
X35799Y178399D01*
X32800D01*
X34799D02*
X36799Y176400D01*
X38798D02*
X40797D01*
X39798D01*
Y182398D01*
X38798Y181398D01*
X46795Y176400D02*
Y182398D01*
X43796Y179399D01*
X47795D01*
X32800Y236400D02*
Y242398D01*
X35799D01*
X36799Y241398D01*
Y239399D01*
X35799Y238399D01*
X32800D01*
X34799D02*
X36799Y236400D01*
X38798D02*
X40797D01*
X39798D01*
Y242398D01*
X38798Y241398D01*
X47795Y236400D02*
X43796D01*
X47795Y240399D01*
Y241398D01*
X46795Y242398D01*
X44796D01*
X43796Y241398D01*
X-25000Y-24900D02*
X425000D01*
Y525000D01*
X-25000D02*
X425000D01*
X-25000Y-24900D02*
Y525000D01*
D13*
X56535Y10630D02*
Y16929D01*
Y10630D02*
X60472D01*
Y16929D01*
X56535D02*
X60472D01*
X36850Y0D02*
X43150D01*
Y3937D01*
X36850D02*
X43150D01*
X36850Y0D02*
Y3937D01*
Y23622D02*
X43150D01*
Y27559D01*
X36850D02*
X43150D01*
X36850Y23622D02*
Y27559D01*
D27*
X55000Y80000D02*
G03*
X55000Y80000I-30000J0D01*
G01*
X39100Y260000D02*
X40000D01*
X60000D02*
X60900D01*
X40000D02*
Y263000D01*
X60000D01*
Y257000D02*
Y263000D01*
X40000Y257000D02*
X60000D01*
X40000D02*
Y260000D01*
X39100Y200000D02*
X40000D01*
X60000D02*
X60900D01*
X40000D02*
Y203000D01*
X60000D01*
Y197000D02*
Y203000D01*
X40000Y197000D02*
X60000D01*
X40000D02*
Y200000D01*
X39100Y170000D02*
X40000D01*
X60000D02*
X60900D01*
X40000D02*
Y173000D01*
X60000D01*
Y167000D02*
Y173000D01*
X40000Y167000D02*
X60000D01*
X40000D02*
Y170000D01*
X39100Y230000D02*
X40000D01*
X60000D02*
X60900D01*
X40000D02*
Y233000D01*
X60000D01*
Y227000D02*
Y233000D01*
X40000Y227000D02*
X60000D01*
X40000D02*
Y230000D01*
X365000Y320000D02*
Y330000D01*
X405000D01*
X365000Y320000D02*
X405000D01*
Y330000D01*
X365000Y290000D02*
Y300000D01*
X405000D01*
X365000Y290000D02*
X405000D01*
Y300000D01*
X365000Y255000D02*
Y265000D01*
X405000D01*
X365000Y255000D02*
X405000D01*
Y265000D01*
X365000Y225000D02*
Y235000D01*
X405000D01*
X365000Y225000D02*
X405000D01*
Y235000D01*
X365000Y195000D02*
Y205000D01*
X405000D01*
X365000Y195000D02*
X405000D01*
Y205000D01*
X365000Y165000D02*
Y175000D01*
X405000D01*
X365000Y165000D02*
X405000D01*
Y175000D01*
X365000Y135000D02*
Y145000D01*
X405000D01*
X365000Y135000D02*
X405000D01*
Y145000D01*
X365000Y100000D02*
Y110000D01*
X405000D01*
X365000Y100000D02*
X405000D01*
Y110000D01*
X365000Y70000D02*
Y80000D01*
X405000D01*
X365000Y70000D02*
X405000D01*
Y80000D01*
X365000Y40000D02*
Y50000D01*
X405000D01*
X365000Y40000D02*
X405000D01*
Y50000D01*
X40000Y455000D02*
X50000D01*
X40000D02*
Y505000D01*
X50000Y455000D02*
Y505000D01*
X40000D02*
X50000D01*
X74444Y455000D02*
X84444D01*
X74444D02*
Y505000D01*
X84444Y455000D02*
Y505000D01*
X74444D02*
X84444D01*
X108889Y455000D02*
X118889D01*
X108889D02*
Y505000D01*
X118889Y455000D02*
Y505000D01*
X108889D02*
X118889D01*
X143333Y455000D02*
X153333D01*
X143333D02*
Y505000D01*
X153333Y455000D02*
Y505000D01*
X143333D02*
X153333D01*
X177778Y455000D02*
X187778D01*
X177778D02*
Y505000D01*
X187778Y455000D02*
Y505000D01*
X177778D02*
X187778D01*
X212222Y455000D02*
X222222D01*
X212222D02*
Y505000D01*
X222222Y455000D02*
Y505000D01*
X212222D02*
X222222D01*
X246667Y455000D02*
X256667D01*
X246667D02*
Y505000D01*
X256667Y455000D02*
Y505000D01*
X246667D02*
X256667D01*
X281111Y455000D02*
X291111D01*
X281111D02*
Y505000D01*
X291111Y455000D02*
Y505000D01*
X281111D02*
X291111D01*
X315556Y455000D02*
X325555D01*
X315556D02*
Y505000D01*
X325555Y455000D02*
Y505000D01*
X315556D02*
X325555D01*
X350000Y455000D02*
X360000D01*
X350000D02*
Y505000D01*
X360000Y455000D02*
Y505000D01*
X350000D02*
X360000D01*
X-5000Y255000D02*
Y265000D01*
X25000D01*
Y255000D02*
Y265000D01*
X-5000Y255000D02*
X25000D01*
X-5000Y225000D02*
Y235000D01*
X25000D01*
Y225000D02*
Y235000D01*
X-5000Y225000D02*
X25000D01*
X-5000Y195000D02*
Y205000D01*
X25000D01*
Y195000D02*
Y205000D01*
X-5000Y195000D02*
X25000D01*
X-5000Y165000D02*
Y175000D01*
X25000D01*
Y165000D02*
Y175000D01*
X-5000Y165000D02*
X25000D01*
X340000Y325000D02*
X340900D01*
X319100D02*
X320000D01*
X340000Y322000D02*
Y325000D01*
X320000Y322000D02*
X340000D01*
X320000D02*
Y328000D01*
X340000D01*
Y325000D02*
Y328000D01*
Y293889D02*
X340900D01*
X319100D02*
X320000D01*
X340000Y290889D02*
Y293889D01*
X320000Y290889D02*
X340000D01*
X320000D02*
Y296889D01*
X340000D01*
Y293889D02*
Y296889D01*
Y262778D02*
X340900D01*
X319100D02*
X320000D01*
X340000Y259778D02*
Y262778D01*
X320000Y259778D02*
X340000D01*
X320000D02*
Y265778D01*
X340000D01*
Y262778D02*
Y265778D01*
Y231667D02*
X340900D01*
X319100D02*
X320000D01*
X340000Y228667D02*
Y231667D01*
X320000Y228667D02*
X340000D01*
X320000D02*
Y234667D01*
X340000D01*
Y231667D02*
Y234667D01*
Y200555D02*
X340900D01*
X319100D02*
X320000D01*
X340000Y197555D02*
Y200555D01*
X320000Y197555D02*
X340000D01*
X320000D02*
Y203555D01*
X340000D01*
Y200555D02*
Y203555D01*
Y169444D02*
X340900D01*
X319100D02*
X320000D01*
X340000Y166444D02*
Y169444D01*
X320000Y166444D02*
X340000D01*
X320000D02*
Y172444D01*
X340000D01*
Y169444D02*
Y172444D01*
Y138333D02*
X340900D01*
X319100D02*
X320000D01*
X340000Y135333D02*
Y138333D01*
X320000Y135333D02*
X340000D01*
X320000D02*
Y141333D01*
X340000D01*
Y138333D02*
Y141333D01*
Y107222D02*
X340900D01*
X319100D02*
X320000D01*
X340000Y104222D02*
Y107222D01*
X320000Y104222D02*
X340000D01*
X320000D02*
Y110222D01*
X340000D01*
Y107222D02*
Y110222D01*
Y76111D02*
X340900D01*
X319100D02*
X320000D01*
X340000Y73111D02*
Y76111D01*
X320000Y73111D02*
X340000D01*
X320000D02*
Y79111D01*
X340000D01*
Y76111D02*
Y79111D01*
Y45000D02*
X340900D01*
X319100D02*
X320000D01*
X340000Y42000D02*
Y45000D01*
X320000Y42000D02*
X340000D01*
X320000D02*
Y48000D01*
X340000D01*
Y45000D02*
Y48000D01*
X322500Y302500D02*
X357500D01*
Y317500D01*
X322500D02*
X357500D01*
X322500Y302500D02*
Y317500D01*
Y271389D02*
X357500D01*
Y286389D01*
X322500D02*
X357500D01*
X322500Y271389D02*
Y286389D01*
Y240278D02*
X357500D01*
Y255278D01*
X322500D02*
X357500D01*
X322500Y240278D02*
Y255278D01*
Y209167D02*
X357500D01*
Y224167D01*
X322500D02*
X357500D01*
X322500Y209167D02*
Y224167D01*
Y178056D02*
X357500D01*
Y193055D01*
X322500D02*
X357500D01*
X322500Y178056D02*
Y193055D01*
Y146944D02*
X357500D01*
Y161944D01*
X322500D02*
X357500D01*
X322500Y146944D02*
Y161944D01*
Y115833D02*
X357500D01*
Y130833D01*
X322500D02*
X357500D01*
X322500Y115833D02*
Y130833D01*
Y84722D02*
X357500D01*
Y99722D01*
X322500D02*
X357500D01*
X322500Y84722D02*
Y99722D01*
Y52500D02*
X357500D01*
Y67500D01*
X322500D02*
X357500D01*
X322500Y52500D02*
Y67500D01*
Y22500D02*
X357500D01*
Y37500D01*
X322500D02*
X357500D01*
X322500Y22500D02*
Y37500D01*
D28*
X30000Y305000D02*
G03*
X20009Y305303I-4999J31D01*
G01*
X1500Y375000D02*
X48500D01*
X1500Y305000D02*
Y375000D01*
Y305000D02*
X20000D01*
X30500D02*
X48500D01*
Y375000D01*
X45709Y28346D02*
X57717D01*
Y-28346D02*
Y6890D01*
X22284Y28346D02*
X33898D01*
X57717Y21063D02*
Y28346D01*
X22284Y-28346D02*
Y28346D01*
Y-28346D02*
X57717D01*
D29*
X40787Y31890D02*
G03*
X40787Y31890I-787J0D01*
G01*
D30*
X57015Y80051D02*
X60951D01*
X58983Y82019D02*
Y78083D01*
M02*
