G04 Layer_Physical_Order=1*
G04 Layer_Color=255*
%FSLAX25Y25*%
%MOIN*%
G70*
G01*
G75*
%ADD10C,0.01000*%
%ADD11C,0.02500*%
%ADD12C,0.10000*%
%ADD13C,0.00000*%
%ADD14C,0.05512*%
%ADD15C,0.04724*%
%ADD16R,0.04724X0.04724*%
%ADD17O,0.13200X0.06600*%
%ADD18P,0.07144X8X202.5*%
%ADD19P,0.06605X8X202.5*%
%ADD20P,0.06061X8X202.5*%
%ADD21C,0.25000*%
%ADD22R,0.05905X0.05905*%
%ADD23C,0.05905*%
%ADD24R,0.05905X0.05905*%
%ADD25O,0.05937X0.11874*%
%ADD26O,0.11874X0.05937*%
D10*
X320555Y470000D02*
X325500Y465056D01*
Y443000D02*
Y465056D01*
X253298Y370798D02*
X325500Y443000D01*
X320555Y480000D02*
X328000Y472555D01*
Y441500D02*
Y472555D01*
X263298Y376798D02*
X328000Y441500D01*
X60000Y214000D02*
X70000Y204000D01*
Y175000D02*
Y204000D01*
X65000Y170000D02*
X70000Y175000D01*
X21000Y288000D02*
X56500Y252500D01*
Y208500D02*
Y252500D01*
Y208500D02*
X65000Y200000D01*
X24000Y290000D02*
X60000Y254000D01*
Y214000D02*
Y254000D01*
X263298Y355100D02*
Y376798D01*
X234000Y412500D02*
X259000Y437500D01*
X234000Y355802D02*
Y412500D01*
X233298Y355100D02*
X234000Y355802D01*
X259000Y437500D02*
Y472667D01*
X254700Y440700D02*
Y456967D01*
X230000Y416000D02*
X254700Y440700D01*
X230000Y377500D02*
Y416000D01*
X251667Y480000D02*
X259000Y472667D01*
X251667Y470000D02*
X257000Y464667D01*
Y439500D02*
Y464667D01*
X231898Y414398D02*
X257000Y439500D01*
X157500Y372500D02*
Y384500D01*
X122500Y419500D02*
X157500Y384500D01*
X122500Y419500D02*
Y471389D01*
X120000Y418000D02*
X155500Y382500D01*
Y364500D02*
Y382500D01*
Y364500D02*
X163298Y356702D01*
X157500Y372500D02*
X173298Y356702D01*
X163298Y355100D02*
Y356702D01*
X120000Y418000D02*
Y463889D01*
X96000Y411500D02*
X122500Y385000D01*
Y355898D02*
Y385000D01*
Y355898D02*
X123298Y355100D01*
X97500Y416000D02*
X126996Y386504D01*
Y371402D02*
Y386504D01*
X124698Y363700D02*
Y385802D01*
X96600Y413900D02*
X124698Y385802D01*
X68600Y413900D02*
X96600D01*
X70000Y416000D02*
X97500D01*
X67000Y411500D02*
X96000D01*
X45000Y433500D02*
X67000Y411500D01*
X53000Y433000D02*
X70000Y416000D01*
X45000Y433500D02*
Y460000D01*
X53000Y433000D02*
Y472000D01*
X50000Y432500D02*
Y465000D01*
Y432500D02*
X68600Y413900D01*
X45000Y470000D02*
X50000Y465000D01*
X45000Y480000D02*
X53000Y472000D01*
X20000Y260000D02*
X35000D01*
X20000Y230000D02*
X35000D01*
X20000Y200000D02*
X35000D01*
X20000Y170000D02*
X35000D01*
X30000Y320000D02*
X40000Y330000D01*
X28000Y348000D02*
X40000Y360000D01*
X28000Y291000D02*
Y348000D01*
Y291000D02*
X65000Y254000D01*
Y230000D02*
Y254000D01*
X30000Y293000D02*
Y320000D01*
Y293000D02*
X63000Y260000D01*
X65000D01*
X10000Y340000D02*
X21000Y329000D01*
Y288000D02*
Y329000D01*
X24000Y290000D02*
Y356000D01*
X10000Y370000D02*
X24000Y356000D01*
X0Y260000D02*
Y310000D01*
X10000Y320000D01*
X0Y330000D02*
X10000Y320000D01*
X0Y330000D02*
Y340000D01*
X10000Y350000D01*
X385000Y330000D02*
X390000Y325000D01*
X350000Y330000D02*
X385000D01*
X345000Y325000D02*
X350000Y330000D01*
X345000Y293889D02*
X351111Y300000D01*
X385000D01*
X390000Y295000D01*
X345000Y262778D02*
X347222Y265000D01*
X385000D01*
X390000Y260000D01*
X345000Y231667D02*
X346667D01*
X350000Y235000D01*
X385000D01*
X390000Y230000D01*
X345000Y200555D02*
X349445Y205000D01*
X385000D01*
X390000Y200000D01*
X345000Y169444D02*
Y170000D01*
X350000Y175000D01*
X385000D01*
X390000Y170000D01*
X345000Y138333D02*
X351667Y145000D01*
X385000D01*
X390000Y140000D01*
X345000Y107222D02*
X350000Y112222D01*
X382778D01*
X390000Y105000D01*
X345000Y76111D02*
X346111D01*
X350000Y80000D01*
X385000D01*
X390000Y75000D01*
X345000Y45000D02*
X350000Y50000D01*
X385000D01*
X390000Y45000D01*
X350000Y30000D02*
X365000D01*
X380000Y45000D01*
X350000Y60000D02*
X365000D01*
X380000Y75000D01*
X350000Y92222D02*
X367222D01*
X380000Y105000D01*
X350000Y123333D02*
X363333D01*
X380000Y140000D01*
X350000Y154444D02*
X364444D01*
X380000Y170000D01*
X350000Y185556D02*
X365556D01*
X380000Y200000D01*
X350000Y216667D02*
X366667D01*
X380000Y230000D01*
X350000Y247778D02*
X367778D01*
X380000Y260000D01*
X350000Y278889D02*
X363889D01*
X380000Y295000D01*
X350000Y310000D02*
X365000D01*
X380000Y325000D01*
X330000Y310000D02*
X340000Y320000D01*
X365000D01*
X370000Y325000D01*
X330000Y278889D02*
X336111Y285000D01*
X360000D01*
X370000Y295000D01*
X330000Y247778D02*
X337222Y255000D01*
X365000D01*
X370000Y260000D01*
X330000Y216667D02*
X338333Y225000D01*
X365000D01*
X370000Y230000D01*
X330000Y185556D02*
X339444Y195000D01*
X365000D01*
X370000Y200000D01*
X330000Y154444D02*
X340556Y165000D01*
X365000D01*
X370000Y170000D01*
X330000Y123333D02*
X336667Y130000D01*
X360000D01*
X370000Y140000D01*
X330000Y92222D02*
X337778Y100000D01*
X365000D01*
X370000Y105000D01*
X330000Y60000D02*
X340000Y70000D01*
X365000D01*
X370000Y75000D01*
X330000Y30000D02*
X340000Y40000D01*
X365000D01*
X370000Y45000D01*
X295000Y65000D02*
X315000Y45000D01*
X295000Y65000D02*
Y80000D01*
X285900Y89100D02*
X295000Y80000D01*
X273298Y89100D02*
X285900D01*
X308889Y76111D02*
X315000D01*
X285900Y99100D02*
X308889Y76111D01*
X273298Y99100D02*
X285900D01*
X275176Y107222D02*
X315000D01*
X273298Y109100D02*
X275176Y107222D01*
X295767Y119100D02*
X315000Y138333D01*
X273298Y119100D02*
X295767D01*
X273298Y129100D02*
X294100D01*
X310000Y145000D01*
Y164444D01*
X315000Y169444D01*
X273298Y139100D02*
X294100D01*
X273298Y155100D02*
X273398Y155000D01*
X294100Y139100D02*
X307500Y152500D01*
Y193055D01*
X315000Y200555D01*
X305000Y221667D02*
X315000Y231667D01*
X273298Y165100D02*
X290100D01*
X273398Y155000D02*
X292500D01*
X305000Y167500D01*
Y221667D01*
X300000Y278889D02*
X315000Y293889D01*
X300000Y190000D02*
Y278889D01*
X285100Y175100D02*
X300000Y190000D01*
X273298Y175100D02*
X285100D01*
X290100Y165100D02*
X302500Y177500D01*
Y250278D01*
X315000Y262778D01*
X297500Y307500D02*
X315000Y325000D01*
X297500Y195000D02*
Y307500D01*
X287600Y185100D02*
X297500Y195000D01*
X273298Y185100D02*
X287600D01*
X124698Y363700D02*
X133298Y355100D01*
X126996Y371402D02*
X143298Y355100D01*
X113889Y421111D02*
Y460000D01*
Y421111D02*
X153298Y381702D01*
Y355100D02*
Y381702D01*
X113889Y470000D02*
X120000Y463889D01*
X113889Y480000D02*
X122500Y471389D01*
X182778Y467222D02*
Y470000D01*
Y480000D02*
X192500Y470278D01*
Y365898D02*
Y470278D01*
Y365898D02*
X203298Y355100D01*
X223298D02*
X231898Y363700D01*
Y414398D01*
X251667Y460000D02*
X254700Y456967D01*
X190000Y358398D02*
X193298Y355100D01*
X190000Y358398D02*
Y460000D01*
X182778Y467222D02*
X190000Y460000D01*
X183298Y355100D02*
X187500Y359302D01*
Y455278D01*
X182778Y460000D02*
X187500Y455278D01*
X213298Y355100D02*
Y360798D01*
X230000Y377500D01*
X173298Y355100D02*
Y356702D01*
X253298Y355100D02*
Y370798D01*
X243298Y355100D02*
Y365798D01*
X320555Y443055D01*
Y460000D01*
X-25000Y-24900D02*
X425000D01*
Y525000D01*
X-25000D02*
X425000D01*
X-25000Y-24900D02*
Y525000D01*
D11*
X10000Y80000D02*
X65100Y135100D01*
X83298D01*
Y145100D01*
X40000Y80000D02*
Y100000D01*
X65100Y125100D01*
X83298D01*
X137500Y179302D01*
Y265000D01*
X202500Y330000D01*
X258198D01*
X273298Y345100D01*
Y355100D01*
X83298Y135100D02*
X103298Y155100D01*
Y345100D01*
Y355100D01*
D12*
X0Y230000D02*
Y260000D01*
Y200000D02*
Y230000D01*
Y170000D02*
Y200000D01*
Y90000D02*
Y170000D01*
Y90000D02*
X10000Y80000D01*
Y31969D02*
X40000Y1969D01*
X10000Y31969D02*
Y80000D01*
X40000Y25591D02*
Y80000D01*
D13*
X56535Y10630D02*
Y16929D01*
Y10630D02*
X60472D01*
Y16929D01*
X56535D02*
X60472D01*
X36850Y0D02*
X43150D01*
Y3937D01*
X36850D02*
X43150D01*
X36850Y0D02*
Y3937D01*
Y23622D02*
X43150D01*
Y27559D01*
X36850D02*
X43150D01*
X36850Y23622D02*
Y27559D01*
D14*
X65000Y260000D02*
D03*
X35000D02*
D03*
X65000Y200000D02*
D03*
X35000D02*
D03*
X65000Y170000D02*
D03*
X35000D02*
D03*
X65000Y230000D02*
D03*
X35000D02*
D03*
X315000Y325000D02*
D03*
X345000D02*
D03*
X315000Y293889D02*
D03*
X345000D02*
D03*
X315000Y262778D02*
D03*
X345000D02*
D03*
X315000Y231667D02*
D03*
X345000D02*
D03*
X315000Y200555D02*
D03*
X345000D02*
D03*
X315000Y169444D02*
D03*
X345000D02*
D03*
X315000Y138333D02*
D03*
X345000D02*
D03*
X315000Y107222D02*
D03*
X345000D02*
D03*
X315000Y76111D02*
D03*
X345000D02*
D03*
X315000Y45000D02*
D03*
X345000D02*
D03*
D15*
X10000Y80000D02*
D03*
X350000Y310000D02*
D03*
X330000D02*
D03*
X350000Y278889D02*
D03*
X330000D02*
D03*
X350000Y247778D02*
D03*
X330000D02*
D03*
X350000Y216667D02*
D03*
X330000D02*
D03*
X350000Y185556D02*
D03*
X330000D02*
D03*
X350000Y154444D02*
D03*
X330000D02*
D03*
X350000Y123333D02*
D03*
X330000D02*
D03*
X350000Y92222D02*
D03*
X330000D02*
D03*
X350000Y60000D02*
D03*
X330000D02*
D03*
X350000Y30000D02*
D03*
X330000D02*
D03*
D16*
X40000Y80000D02*
D03*
D17*
X10000Y310000D02*
D03*
Y320000D02*
D03*
Y330000D02*
D03*
Y340000D02*
D03*
Y350000D02*
D03*
Y360000D02*
D03*
Y370000D02*
D03*
X40000Y310000D02*
D03*
Y370000D02*
D03*
Y360000D02*
D03*
Y350000D02*
D03*
Y340000D02*
D03*
Y330000D02*
D03*
Y320000D02*
D03*
D18*
X103298Y355100D02*
D03*
Y345100D02*
D03*
X113298Y355100D02*
D03*
Y345100D02*
D03*
X123298Y355100D02*
D03*
Y345100D02*
D03*
X133298Y355100D02*
D03*
Y345100D02*
D03*
X143298Y355100D02*
D03*
Y345100D02*
D03*
X153298Y355100D02*
D03*
Y345100D02*
D03*
X163298Y355100D02*
D03*
Y345100D02*
D03*
X173298Y355100D02*
D03*
Y345100D02*
D03*
X183298Y355100D02*
D03*
Y345100D02*
D03*
X193298Y355100D02*
D03*
Y345100D02*
D03*
X203298Y355100D02*
D03*
Y345100D02*
D03*
X213298Y355100D02*
D03*
Y345100D02*
D03*
X223298Y355100D02*
D03*
Y345100D02*
D03*
X233298Y355100D02*
D03*
Y345100D02*
D03*
X243298Y355100D02*
D03*
Y345100D02*
D03*
X253298Y355100D02*
D03*
Y345100D02*
D03*
X263298Y355100D02*
D03*
Y345100D02*
D03*
X273298Y355100D02*
D03*
Y345100D02*
D03*
D19*
X173298Y235600D02*
D03*
Y225600D02*
D03*
X183298Y235600D02*
D03*
Y225600D02*
D03*
X193298Y235600D02*
D03*
Y225600D02*
D03*
X141298Y67300D02*
D03*
Y77300D02*
D03*
X131298Y67300D02*
D03*
Y77300D02*
D03*
X121298Y67300D02*
D03*
Y77300D02*
D03*
D20*
X273298Y49100D02*
D03*
Y59100D02*
D03*
Y69100D02*
D03*
Y79100D02*
D03*
Y89100D02*
D03*
Y99100D02*
D03*
Y109100D02*
D03*
Y119100D02*
D03*
Y129100D02*
D03*
Y139100D02*
D03*
Y155100D02*
D03*
Y165100D02*
D03*
Y175100D02*
D03*
Y185100D02*
D03*
Y195100D02*
D03*
Y205100D02*
D03*
Y215100D02*
D03*
Y225100D02*
D03*
Y315100D02*
D03*
Y305100D02*
D03*
Y295100D02*
D03*
Y285100D02*
D03*
Y275100D02*
D03*
Y265100D02*
D03*
Y255100D02*
D03*
Y245100D02*
D03*
X83298Y155100D02*
D03*
Y145100D02*
D03*
Y135100D02*
D03*
Y125100D02*
D03*
Y115100D02*
D03*
Y105100D02*
D03*
Y95100D02*
D03*
Y85100D02*
D03*
Y245100D02*
D03*
Y235100D02*
D03*
Y225100D02*
D03*
Y215100D02*
D03*
Y205100D02*
D03*
Y195100D02*
D03*
Y185100D02*
D03*
Y175100D02*
D03*
Y335100D02*
D03*
Y325100D02*
D03*
Y315100D02*
D03*
Y305100D02*
D03*
Y295100D02*
D03*
Y285100D02*
D03*
Y275100D02*
D03*
Y265100D02*
D03*
D21*
X400000Y0D02*
D03*
X0D02*
D03*
Y500000D02*
D03*
X400000D02*
D03*
D22*
Y325000D02*
D03*
Y295000D02*
D03*
Y260000D02*
D03*
Y230000D02*
D03*
Y200000D02*
D03*
Y170000D02*
D03*
Y140000D02*
D03*
Y105000D02*
D03*
Y75000D02*
D03*
Y45000D02*
D03*
X0Y260000D02*
D03*
Y230000D02*
D03*
Y200000D02*
D03*
Y170000D02*
D03*
D23*
X390000Y325000D02*
D03*
X380000D02*
D03*
X370000D02*
D03*
X390000Y295000D02*
D03*
X380000D02*
D03*
X370000D02*
D03*
X390000Y260000D02*
D03*
X380000D02*
D03*
X370000D02*
D03*
X390000Y230000D02*
D03*
X380000D02*
D03*
X370000D02*
D03*
X390000Y200000D02*
D03*
X380000D02*
D03*
X370000D02*
D03*
X390000Y170000D02*
D03*
X380000D02*
D03*
X370000D02*
D03*
X390000Y140000D02*
D03*
X380000D02*
D03*
X370000D02*
D03*
X390000Y105000D02*
D03*
X380000D02*
D03*
X370000D02*
D03*
X390000Y75000D02*
D03*
X380000D02*
D03*
X370000D02*
D03*
X390000Y45000D02*
D03*
X380000D02*
D03*
X370000D02*
D03*
X45000Y490000D02*
D03*
Y480000D02*
D03*
Y470000D02*
D03*
Y460000D02*
D03*
X79444Y490000D02*
D03*
Y480000D02*
D03*
Y470000D02*
D03*
Y460000D02*
D03*
X113889Y490000D02*
D03*
Y480000D02*
D03*
Y470000D02*
D03*
Y460000D02*
D03*
X148333Y490000D02*
D03*
Y480000D02*
D03*
Y470000D02*
D03*
Y460000D02*
D03*
X182778Y490000D02*
D03*
Y480000D02*
D03*
Y470000D02*
D03*
Y460000D02*
D03*
X217222Y490000D02*
D03*
Y480000D02*
D03*
Y470000D02*
D03*
Y460000D02*
D03*
X251667Y490000D02*
D03*
Y480000D02*
D03*
Y470000D02*
D03*
Y460000D02*
D03*
X286111Y490000D02*
D03*
Y480000D02*
D03*
Y470000D02*
D03*
Y460000D02*
D03*
X320555Y490000D02*
D03*
Y480000D02*
D03*
Y470000D02*
D03*
Y460000D02*
D03*
X355000Y490000D02*
D03*
Y480000D02*
D03*
Y470000D02*
D03*
Y460000D02*
D03*
X20000Y260000D02*
D03*
X10000D02*
D03*
X20000Y230000D02*
D03*
X10000D02*
D03*
X20000Y200000D02*
D03*
X10000D02*
D03*
X20000Y170000D02*
D03*
X10000D02*
D03*
D24*
X45000Y500000D02*
D03*
X79444D02*
D03*
X113889D02*
D03*
X148333D02*
D03*
X182778D02*
D03*
X217222D02*
D03*
X251667D02*
D03*
X286111D02*
D03*
X320555D02*
D03*
X355000D02*
D03*
D25*
X58504Y13780D02*
D03*
D26*
X40000Y1969D02*
D03*
Y25591D02*
D03*
M02*
