G04 Layer_Physical_Order=2*
G04 Layer_Color=16711680*
%FSLAX25Y25*%
%MOIN*%
G70*
G01*
G75*
%ADD10C,0.01000*%
%ADD11C,0.02500*%
%ADD12C,0.10000*%
%ADD13C,0.00000*%
%ADD14C,0.05512*%
%ADD15C,0.04724*%
%ADD16R,0.04724X0.04724*%
%ADD17O,0.13200X0.06600*%
%ADD18P,0.07144X8X202.5*%
%ADD19P,0.06605X8X202.5*%
%ADD20P,0.06061X8X202.5*%
%ADD21C,0.25000*%
%ADD22R,0.05905X0.05905*%
%ADD23C,0.05905*%
%ADD24R,0.05905X0.05905*%
%ADD25O,0.05937X0.11874*%
%ADD26O,0.11874X0.05937*%
D10*
X79444Y470000D02*
X84500Y464944D01*
Y457203D02*
Y464944D01*
X82500Y455203D02*
X84500Y457203D01*
X82500Y415500D02*
Y455203D01*
X79444Y480000D02*
X86500Y472944D01*
Y414000D02*
Y472944D01*
Y414000D02*
X138398Y362102D01*
X217222Y470000D02*
X222500Y464722D01*
Y458500D02*
Y464722D01*
X205000Y441000D02*
X222500Y458500D01*
X227000Y290000D02*
X261900Y255100D01*
X78000Y290000D02*
X227000D01*
X50000Y318000D02*
X78000Y290000D01*
X221000Y300000D02*
X255900Y265100D01*
X76000Y300000D02*
X221000D01*
X53000Y323000D02*
X76000Y300000D01*
X252500Y412500D02*
X291500Y451500D01*
X286111Y470000D02*
X291500Y464611D01*
Y451500D02*
Y464611D01*
X287000Y480000D02*
X294000Y473000D01*
Y449500D02*
Y473000D01*
X254200Y409700D02*
X294000Y449500D01*
X286111Y480000D02*
X287000D01*
X243200Y409700D02*
X254200D01*
X240000Y412500D02*
X252500D01*
X238000Y404500D02*
X243200Y409700D01*
X238000Y349802D02*
Y404500D01*
X228000Y400500D02*
X240000Y412500D01*
X228000Y352202D02*
Y400500D01*
X237500Y415000D02*
X251000D01*
X218000Y395500D02*
X237500Y415000D01*
X218000Y349802D02*
Y395500D01*
X286111Y450111D02*
Y460000D01*
X251000Y415000D02*
X286111Y450111D01*
X33500Y365000D02*
X50400D01*
X28500Y360000D02*
X33500Y365000D01*
X10000Y360000D02*
X28500D01*
X50400Y365000D02*
X56000Y359400D01*
X243500Y94000D02*
X330000D01*
Y92222D02*
Y94000D01*
X142500Y195000D02*
X243500Y94000D01*
X355000Y426500D02*
Y460000D01*
X327000Y398500D02*
X355000Y426500D01*
X271000Y398500D02*
X327000D01*
X329000Y394000D02*
X365000Y430000D01*
X279000Y394000D02*
X329000D01*
X268500Y383500D02*
X279000Y394000D01*
X248500Y376000D02*
X271000Y398500D01*
X268500Y350302D02*
Y383500D01*
X263298Y345100D02*
X268500Y350302D01*
X258500Y378500D02*
X276100Y396100D01*
X258500Y350302D02*
Y378500D01*
X253298Y345100D02*
X258500Y350302D01*
X248500D02*
Y376000D01*
X243298Y345100D02*
X248500Y350302D01*
X233298Y345100D02*
X238000Y349802D01*
X223298Y347500D02*
X228000Y352202D01*
X223298Y345100D02*
Y347500D01*
X213298Y345100D02*
X218000Y349802D01*
X208500Y441000D02*
X225000Y457500D01*
X208500Y350302D02*
Y441000D01*
X203298Y345100D02*
X208500Y350302D01*
X198500Y356525D02*
X205000Y363025D01*
X198500Y350302D02*
Y356525D01*
X193298Y345100D02*
X198500Y350302D01*
X182500Y346000D02*
Y347500D01*
Y345898D02*
Y346000D01*
X188500Y352000D02*
Y427500D01*
X182500Y346000D02*
X188500Y352000D01*
Y427500D02*
X217222Y456222D01*
Y460000D01*
X205000Y363025D02*
Y441000D01*
X182778Y490000D02*
X217222D01*
Y480000D02*
X225000Y472222D01*
X182778Y500000D02*
X217222D01*
X251667D01*
X217222Y490000D02*
X251667D01*
X148333Y480000D02*
X155500Y472833D01*
Y370000D02*
Y472833D01*
Y370000D02*
X168000Y357500D01*
Y350398D02*
X173298Y345100D01*
X168000Y350398D02*
Y357500D01*
X153000Y364123D02*
X158000Y359123D01*
Y350398D02*
Y359123D01*
Y350398D02*
X163298Y345100D01*
X148500Y349898D02*
Y358500D01*
X150000Y360000D01*
Y458333D01*
X148333Y470000D02*
X153000Y465333D01*
Y364123D02*
Y465333D01*
X120000Y365500D02*
Y378000D01*
X82500Y415500D02*
X120000Y378000D01*
Y365500D02*
X128500Y357000D01*
X79444Y415556D02*
X118000Y377000D01*
Y350398D02*
Y377000D01*
Y350398D02*
X123298Y345100D01*
X138398Y350000D02*
Y362102D01*
X128500Y349898D02*
Y357000D01*
Y349898D02*
X133298Y345100D01*
X24500Y490000D02*
X45000D01*
X-10000Y455500D02*
X24500Y490000D01*
X-10000Y280000D02*
Y455500D01*
X20000Y310000D02*
X40000D01*
X10000Y320000D02*
X20000Y310000D01*
X31000Y331000D02*
X40000Y340000D01*
X31000Y319000D02*
Y331000D01*
Y319000D02*
X40000Y310000D01*
X231000Y281000D02*
X266900Y245100D01*
X273298D01*
X261900Y255100D02*
X273298D01*
X255900Y265100D02*
X273298D01*
X40000Y320000D02*
X79000Y281000D01*
X231000D01*
X40000Y350000D02*
X45000D01*
X50000Y345000D01*
Y318000D02*
Y345000D01*
X53000Y323000D02*
Y349000D01*
X47000Y355000D02*
X53000Y349000D01*
X10000Y330000D02*
X35000Y355000D01*
X47000D01*
X56000Y326000D02*
Y359400D01*
Y326000D02*
X72000Y310000D01*
X218000D01*
X252900Y275100D01*
X273298D01*
X250000Y30000D02*
X330000D01*
X212500Y67500D02*
X250000Y30000D01*
X212500Y67500D02*
Y112500D01*
X149900Y175100D02*
X212500Y112500D01*
X83298Y175100D02*
X149900D01*
X305000Y310000D02*
X330000D01*
X290000Y295000D02*
X305000Y310000D01*
X290000Y252500D02*
Y295000D01*
X277500Y240000D02*
X290000Y252500D01*
X260000Y240000D02*
X277500D01*
X224900Y275100D02*
X260000Y240000D01*
X83298Y275100D02*
X224900D01*
X83298Y185100D02*
X144900D01*
X217500Y112500D01*
Y70000D02*
Y112500D01*
Y70000D02*
X252500Y35000D01*
X285000D01*
X307500Y57500D01*
X327500D01*
X330000Y60000D01*
X83398Y195000D02*
X142500D01*
X83298Y195100D02*
X83398Y195000D01*
X83298Y205100D02*
X139900D01*
X230000Y115000D01*
X321667D01*
X330000Y123333D01*
X299444Y154444D02*
X330000D01*
X83398Y215000D02*
X137500D01*
X83298Y215100D02*
X83398Y215000D01*
X83298Y225100D02*
X137400D01*
X292500Y147500D02*
X299444Y154444D01*
X137500Y215000D02*
X205000Y147500D01*
X292500D01*
X137400Y225100D02*
X182500Y180000D01*
X324445D01*
X330000Y185556D01*
X323333Y210000D02*
X330000Y216667D01*
X157500Y210000D02*
X323333D01*
X132500Y235000D02*
X157500Y210000D01*
X83398Y235000D02*
X132500D01*
X83298Y235100D02*
X83398Y235000D01*
X320278Y247778D02*
X330000D01*
X305000Y232500D02*
X320278Y247778D01*
X237500Y232500D02*
X305000D01*
X220000Y250000D02*
X237500Y232500D01*
X88198Y250000D02*
X220000D01*
X83298Y245100D02*
X88198Y250000D01*
X83298Y265100D02*
X219900D01*
X247500Y237500D01*
X280000D01*
X321389Y278889D01*
X330000D01*
X45000Y500000D02*
X79444D01*
X113889D01*
X148333D01*
X182778D01*
X251667D02*
X286111D01*
X320555D01*
X355000D01*
X45000Y490000D02*
X79444D01*
X113889D01*
X148333D01*
X182778D01*
X251667D02*
X286111D01*
X320555D01*
X355000D01*
X-15000Y275000D02*
X0Y260000D01*
X-15000Y275000D02*
Y455000D01*
X30000Y500000D01*
X45000D01*
X-10000Y280000D02*
X10000Y260000D01*
X79444Y415556D02*
Y460000D01*
X138398Y350000D02*
X143298Y345100D01*
X225000Y457500D02*
Y472222D01*
X148500Y349898D02*
X153298Y345100D01*
X148333Y460000D02*
X150000Y458333D01*
X182500Y345898D02*
X183298Y345100D01*
X276100Y396100D02*
X328080D01*
X360000Y428020D01*
Y465000D01*
X355000Y470000D02*
X360000Y465000D01*
X355000Y480000D02*
X365000Y470000D01*
Y430000D02*
Y470000D01*
X-25000Y-24900D02*
X425000D01*
Y525000D01*
X-25000D02*
X425000D01*
X-25000Y-24900D02*
Y525000D01*
D11*
X400000Y45000D02*
Y75000D01*
Y105000D01*
Y140000D01*
Y170000D01*
Y200000D01*
Y230000D01*
Y260000D01*
Y295000D01*
Y325000D01*
X380000Y45000D02*
Y75000D01*
Y105000D01*
Y140000D01*
Y170000D01*
Y200000D01*
Y230000D01*
Y260000D01*
Y295000D01*
Y325000D01*
Y45000D02*
X390000Y35000D01*
X400000Y45000D01*
X40000Y1969D02*
X366968D01*
X390000Y25000D01*
Y35000D01*
D12*
X10000Y110000D02*
X40000Y80000D01*
X10000Y110000D02*
Y170000D01*
Y200000D01*
Y230000D01*
Y260000D01*
D13*
X56535Y10630D02*
Y16929D01*
Y10630D02*
X60472D01*
Y16929D01*
X56535D02*
X60472D01*
X36850Y0D02*
X43150D01*
Y3937D01*
X36850D02*
X43150D01*
X36850Y0D02*
Y3937D01*
Y23622D02*
X43150D01*
Y27559D01*
X36850D02*
X43150D01*
X36850Y23622D02*
Y27559D01*
D14*
X65000Y260000D02*
D03*
X35000D02*
D03*
X65000Y200000D02*
D03*
X35000D02*
D03*
X65000Y170000D02*
D03*
X35000D02*
D03*
X65000Y230000D02*
D03*
X35000D02*
D03*
X315000Y325000D02*
D03*
X345000D02*
D03*
X315000Y293889D02*
D03*
X345000D02*
D03*
X315000Y262778D02*
D03*
X345000D02*
D03*
X315000Y231667D02*
D03*
X345000D02*
D03*
X315000Y200555D02*
D03*
X345000D02*
D03*
X315000Y169444D02*
D03*
X345000D02*
D03*
X315000Y138333D02*
D03*
X345000D02*
D03*
X315000Y107222D02*
D03*
X345000D02*
D03*
X315000Y76111D02*
D03*
X345000D02*
D03*
X315000Y45000D02*
D03*
X345000D02*
D03*
D15*
X10000Y80000D02*
D03*
X350000Y310000D02*
D03*
X330000D02*
D03*
X350000Y278889D02*
D03*
X330000D02*
D03*
X350000Y247778D02*
D03*
X330000D02*
D03*
X350000Y216667D02*
D03*
X330000D02*
D03*
X350000Y185556D02*
D03*
X330000D02*
D03*
X350000Y154444D02*
D03*
X330000D02*
D03*
X350000Y123333D02*
D03*
X330000D02*
D03*
X350000Y92222D02*
D03*
X330000D02*
D03*
X350000Y60000D02*
D03*
X330000D02*
D03*
X350000Y30000D02*
D03*
X330000D02*
D03*
D16*
X40000Y80000D02*
D03*
D17*
X10000Y310000D02*
D03*
Y320000D02*
D03*
Y330000D02*
D03*
Y340000D02*
D03*
Y350000D02*
D03*
Y360000D02*
D03*
Y370000D02*
D03*
X40000Y310000D02*
D03*
Y370000D02*
D03*
Y360000D02*
D03*
Y350000D02*
D03*
Y340000D02*
D03*
Y330000D02*
D03*
Y320000D02*
D03*
D18*
X103298Y355100D02*
D03*
Y345100D02*
D03*
X113298Y355100D02*
D03*
Y345100D02*
D03*
X123298Y355100D02*
D03*
Y345100D02*
D03*
X133298Y355100D02*
D03*
Y345100D02*
D03*
X143298Y355100D02*
D03*
Y345100D02*
D03*
X153298Y355100D02*
D03*
Y345100D02*
D03*
X163298Y355100D02*
D03*
Y345100D02*
D03*
X173298Y355100D02*
D03*
Y345100D02*
D03*
X183298Y355100D02*
D03*
Y345100D02*
D03*
X193298Y355100D02*
D03*
Y345100D02*
D03*
X203298Y355100D02*
D03*
Y345100D02*
D03*
X213298Y355100D02*
D03*
Y345100D02*
D03*
X223298Y355100D02*
D03*
Y345100D02*
D03*
X233298Y355100D02*
D03*
Y345100D02*
D03*
X243298Y355100D02*
D03*
Y345100D02*
D03*
X253298Y355100D02*
D03*
Y345100D02*
D03*
X263298Y355100D02*
D03*
Y345100D02*
D03*
X273298Y355100D02*
D03*
Y345100D02*
D03*
D19*
X173298Y235600D02*
D03*
Y225600D02*
D03*
X183298Y235600D02*
D03*
Y225600D02*
D03*
X193298Y235600D02*
D03*
Y225600D02*
D03*
X141298Y67300D02*
D03*
Y77300D02*
D03*
X131298Y67300D02*
D03*
Y77300D02*
D03*
X121298Y67300D02*
D03*
Y77300D02*
D03*
D20*
X273298Y49100D02*
D03*
Y59100D02*
D03*
Y69100D02*
D03*
Y79100D02*
D03*
Y89100D02*
D03*
Y99100D02*
D03*
Y109100D02*
D03*
Y119100D02*
D03*
Y129100D02*
D03*
Y139100D02*
D03*
Y155100D02*
D03*
Y165100D02*
D03*
Y175100D02*
D03*
Y185100D02*
D03*
Y195100D02*
D03*
Y205100D02*
D03*
Y215100D02*
D03*
Y225100D02*
D03*
Y315100D02*
D03*
Y305100D02*
D03*
Y295100D02*
D03*
Y285100D02*
D03*
Y275100D02*
D03*
Y265100D02*
D03*
Y255100D02*
D03*
Y245100D02*
D03*
X83298Y155100D02*
D03*
Y145100D02*
D03*
Y135100D02*
D03*
Y125100D02*
D03*
Y115100D02*
D03*
Y105100D02*
D03*
Y95100D02*
D03*
Y85100D02*
D03*
Y245100D02*
D03*
Y235100D02*
D03*
Y225100D02*
D03*
Y215100D02*
D03*
Y205100D02*
D03*
Y195100D02*
D03*
Y185100D02*
D03*
Y175100D02*
D03*
Y335100D02*
D03*
Y325100D02*
D03*
Y315100D02*
D03*
Y305100D02*
D03*
Y295100D02*
D03*
Y285100D02*
D03*
Y275100D02*
D03*
Y265100D02*
D03*
D21*
X400000Y0D02*
D03*
X0D02*
D03*
Y500000D02*
D03*
X400000D02*
D03*
D22*
Y325000D02*
D03*
Y295000D02*
D03*
Y260000D02*
D03*
Y230000D02*
D03*
Y200000D02*
D03*
Y170000D02*
D03*
Y140000D02*
D03*
Y105000D02*
D03*
Y75000D02*
D03*
Y45000D02*
D03*
X0Y260000D02*
D03*
Y230000D02*
D03*
Y200000D02*
D03*
Y170000D02*
D03*
D23*
X390000Y325000D02*
D03*
X380000D02*
D03*
X370000D02*
D03*
X390000Y295000D02*
D03*
X380000D02*
D03*
X370000D02*
D03*
X390000Y260000D02*
D03*
X380000D02*
D03*
X370000D02*
D03*
X390000Y230000D02*
D03*
X380000D02*
D03*
X370000D02*
D03*
X390000Y200000D02*
D03*
X380000D02*
D03*
X370000D02*
D03*
X390000Y170000D02*
D03*
X380000D02*
D03*
X370000D02*
D03*
X390000Y140000D02*
D03*
X380000D02*
D03*
X370000D02*
D03*
X390000Y105000D02*
D03*
X380000D02*
D03*
X370000D02*
D03*
X390000Y75000D02*
D03*
X380000D02*
D03*
X370000D02*
D03*
X390000Y45000D02*
D03*
X380000D02*
D03*
X370000D02*
D03*
X45000Y490000D02*
D03*
Y480000D02*
D03*
Y470000D02*
D03*
Y460000D02*
D03*
X79444Y490000D02*
D03*
Y480000D02*
D03*
Y470000D02*
D03*
Y460000D02*
D03*
X113889Y490000D02*
D03*
Y480000D02*
D03*
Y470000D02*
D03*
Y460000D02*
D03*
X148333Y490000D02*
D03*
Y480000D02*
D03*
Y470000D02*
D03*
Y460000D02*
D03*
X182778Y490000D02*
D03*
Y480000D02*
D03*
Y470000D02*
D03*
Y460000D02*
D03*
X217222Y490000D02*
D03*
Y480000D02*
D03*
Y470000D02*
D03*
Y460000D02*
D03*
X251667Y490000D02*
D03*
Y480000D02*
D03*
Y470000D02*
D03*
Y460000D02*
D03*
X286111Y490000D02*
D03*
Y480000D02*
D03*
Y470000D02*
D03*
Y460000D02*
D03*
X320555Y490000D02*
D03*
Y480000D02*
D03*
Y470000D02*
D03*
Y460000D02*
D03*
X355000Y490000D02*
D03*
Y480000D02*
D03*
Y470000D02*
D03*
Y460000D02*
D03*
X20000Y260000D02*
D03*
X10000D02*
D03*
X20000Y230000D02*
D03*
X10000D02*
D03*
X20000Y200000D02*
D03*
X10000D02*
D03*
X20000Y170000D02*
D03*
X10000D02*
D03*
D24*
X45000Y500000D02*
D03*
X79444D02*
D03*
X113889D02*
D03*
X148333D02*
D03*
X182778D02*
D03*
X217222D02*
D03*
X251667D02*
D03*
X286111D02*
D03*
X320555D02*
D03*
X355000D02*
D03*
D25*
X58504Y13780D02*
D03*
D26*
X40000Y1969D02*
D03*
Y25591D02*
D03*
M02*
