G04 Layer_Color=32896*
%FSLAX25Y25*%
%MOIN*%
G70*
G01*
G75*
%ADD10C,0.01000*%
%ADD13C,0.00000*%
%ADD44C,0.00600*%
%ADD45C,0.01200*%
%ADD46C,0.01600*%
%ADD47R,0.02000X0.02000*%
D10*
X248398Y111302D02*
X243400D01*
Y108803D01*
X244233Y107970D01*
X245899D01*
X246732Y108803D01*
Y111302D01*
X243400Y106304D02*
X248398D01*
X246732Y104638D01*
X248398Y102971D01*
X243400D01*
X248398Y101305D02*
X243400D01*
X245066Y99639D01*
X243400Y97973D01*
X248398D01*
X243400Y96307D02*
X248398D01*
X245899D01*
Y92975D01*
X243400D01*
X248398D01*
X242400Y120303D02*
Y122303D01*
Y121303D01*
X247398D01*
X248398Y122303D01*
Y123302D01*
X247398Y124302D01*
X248398Y118304D02*
Y116305D01*
Y117304D01*
X242400D01*
X243400Y118304D01*
X248398Y190302D02*
X243400D01*
Y187803D01*
X244233Y186970D01*
X245899D01*
X246732Y187803D01*
Y190302D01*
X243400Y185304D02*
X248398D01*
X246732Y183637D01*
X248398Y181971D01*
X243400D01*
X248398Y180305D02*
X243400D01*
X245066Y178639D01*
X243400Y176973D01*
X248398D01*
X243400Y175307D02*
X248398D01*
Y171975D01*
X242400Y201303D02*
Y203303D01*
Y202303D01*
X247398D01*
X248398Y203303D01*
Y204302D01*
X247398Y205302D01*
X248398Y195305D02*
Y199304D01*
X244399Y195305D01*
X243400D01*
X242400Y196305D01*
Y198304D01*
X243400Y199304D01*
X265898Y372800D02*
X262566Y367802D01*
Y372800D02*
X265898Y367802D01*
X260900Y372800D02*
X259233D01*
X260067D01*
Y367802D01*
X260900D01*
X259233D01*
X254235Y372800D02*
X255901D01*
X256734Y371967D01*
Y368635D01*
X255901Y367802D01*
X254235D01*
X253402Y368635D01*
Y371967D01*
X254235Y372800D01*
X274566Y372798D02*
X276232D01*
X275399D01*
Y368633D01*
X276232Y367800D01*
X277065D01*
X277898Y368633D01*
X270400Y367800D02*
Y372798D01*
X272900Y370299D01*
X269567D01*
X181730Y214137D02*
X180897Y213304D01*
X179231D01*
X178398Y214137D01*
Y214970D01*
X179231Y215803D01*
X180897D01*
X181730Y216636D01*
Y217469D01*
X180897Y218302D01*
X179231D01*
X178398Y217469D01*
X183396Y218302D02*
Y213304D01*
X185896D01*
X186729Y214137D01*
Y215803D01*
X185896Y216636D01*
X183396D01*
X188395Y213304D02*
X190061D01*
X189228D01*
Y218302D01*
X188395D01*
X190061D01*
X181630Y205204D02*
X179764D01*
X180697D01*
Y209869D01*
X179764Y210802D01*
X178831D01*
X177898Y209869D01*
X187228Y205204D02*
X183496D01*
Y208003D01*
X185362Y207070D01*
X186295D01*
X187228Y208003D01*
Y209869D01*
X186295Y210802D01*
X184429D01*
X183496Y209869D01*
X77398Y75802D02*
Y70804D01*
X79897D01*
X80730Y71637D01*
Y73303D01*
X79897Y74136D01*
X77398D01*
X84896Y70804D02*
X83229D01*
X82396Y71637D01*
Y74969D01*
X83229Y75802D01*
X84896D01*
X85729Y74969D01*
Y71637D01*
X84896Y70804D01*
X87395D02*
Y75802D01*
X89061Y74136D01*
X90727Y75802D01*
Y70804D01*
X95725D02*
X92393D01*
Y75802D01*
X95725D01*
X92393Y73303D02*
X94059D01*
X97391Y75802D02*
Y70804D01*
X99891D01*
X100724Y71637D01*
Y73303D01*
X99891Y74136D01*
X97391D01*
X99058D02*
X100724Y75802D01*
X103896Y130499D02*
Y128299D01*
Y129399D01*
X98398D01*
X97298Y128299D01*
Y127200D01*
X98398Y126100D01*
Y132698D02*
X97298Y133798D01*
Y135997D01*
X98398Y137097D01*
X102796D01*
X103896Y135997D01*
Y133798D01*
X102796Y132698D01*
X101697D01*
X100597Y133798D01*
Y137097D01*
X120898Y55304D02*
X122564D01*
X121731D01*
Y60302D01*
X120898D01*
X122564D01*
X128396Y56137D02*
X127562Y55304D01*
X125896D01*
X125063Y56137D01*
Y59469D01*
X125896Y60302D01*
X127562D01*
X128396Y59469D01*
X133394Y56137D02*
X132561Y55304D01*
X130895D01*
X130062Y56137D01*
Y56970D01*
X130895Y57803D01*
X132561D01*
X133394Y58636D01*
Y59469D01*
X132561Y60302D01*
X130895D01*
X130062Y59469D01*
X135060Y60302D02*
Y55304D01*
X137559D01*
X138392Y56137D01*
Y57803D01*
X137559Y58636D01*
X135060D01*
X140059Y60302D02*
X141725D01*
X140892D01*
Y55304D01*
X140059Y56137D01*
X127230Y48304D02*
X125564D01*
X126397D01*
Y52469D01*
X125564Y53302D01*
X124731D01*
X123898Y52469D01*
X132229Y48304D02*
X130562Y49137D01*
X128896Y50803D01*
Y52469D01*
X129729Y53302D01*
X131396D01*
X132229Y52469D01*
Y51636D01*
X131396Y50803D01*
X128896D01*
X233233Y298470D02*
X232400Y299303D01*
Y300969D01*
X233233Y301802D01*
X236565D01*
X237398Y300969D01*
Y299303D01*
X236565Y298470D01*
X232400Y294304D02*
Y295971D01*
X233233Y296804D01*
X236565D01*
X237398Y295971D01*
Y294304D01*
X236565Y293471D01*
X233233D01*
X232400Y294304D01*
X237398Y291805D02*
X232400D01*
X234066Y290139D01*
X232400Y288473D01*
X237398D01*
Y286807D02*
X232400D01*
X234066Y285141D01*
X232400Y283475D01*
X237398D01*
X232400Y281808D02*
X236565D01*
X237398Y280975D01*
Y279309D01*
X236565Y278476D01*
X232400D01*
X237398Y276810D02*
X232400D01*
X237398Y273478D01*
X232400D01*
Y271812D02*
Y270146D01*
Y270979D01*
X237398D01*
Y271812D01*
Y270146D01*
X233233Y264314D02*
X232400Y265147D01*
Y266813D01*
X233233Y267646D01*
X236565D01*
X237398Y266813D01*
Y265147D01*
X236565Y264314D01*
X237398Y262648D02*
X234066D01*
X232400Y260982D01*
X234066Y259316D01*
X237398D01*
X234899D01*
Y262648D01*
X232400Y257650D02*
Y254317D01*
Y255983D01*
X237398D01*
X232400Y252651D02*
Y250985D01*
Y251818D01*
X237398D01*
Y252651D01*
Y250985D01*
X232400Y245987D02*
Y247653D01*
X233233Y248486D01*
X236565D01*
X237398Y247653D01*
Y245987D01*
X236565Y245154D01*
X233233D01*
X232400Y245987D01*
X237398Y243488D02*
X232400D01*
X237398Y240155D01*
X232400D01*
X222800Y296403D02*
Y298603D01*
Y297503D01*
X228298D01*
X229398Y298603D01*
Y299702D01*
X228298Y300802D01*
X223900Y294204D02*
X222800Y293105D01*
Y290905D01*
X223900Y289806D01*
X224999D01*
X226099Y290905D01*
Y292005D01*
Y290905D01*
X227199Y289806D01*
X228298D01*
X229398Y290905D01*
Y293105D01*
X228298Y294204D01*
X107398Y191302D02*
X110730D01*
X112396Y192968D01*
X110730Y194634D01*
X107398D01*
X109897D01*
Y191302D01*
X112396Y196300D02*
X107398D01*
Y198800D01*
X108231Y199633D01*
X111563D01*
X112396Y198800D01*
Y196300D01*
X111563Y204631D02*
X112396Y203798D01*
Y202132D01*
X111563Y201299D01*
X108231D01*
X107398Y202132D01*
Y203798D01*
X108231Y204631D01*
X112396Y206297D02*
X107398D01*
Y209629D01*
X110397Y179866D02*
Y178533D01*
Y179199D01*
X107064D01*
X106398Y178533D01*
Y177866D01*
X107064Y177200D01*
X110397Y181199D02*
Y183864D01*
X109730D01*
X107064Y181199D01*
X106398D01*
Y291302D02*
X109730D01*
X111396Y292968D01*
X109730Y294634D01*
X106398D01*
X108897D01*
Y291302D01*
X111396Y296300D02*
X106398D01*
Y298800D01*
X107231Y299633D01*
X110563D01*
X111396Y298800D01*
Y296300D01*
X110563Y304631D02*
X111396Y303798D01*
Y302132D01*
X110563Y301299D01*
X107231D01*
X106398Y302132D01*
Y303798D01*
X107231Y304631D01*
X111396Y306297D02*
X106398D01*
X108897D01*
Y309629D01*
X111396D01*
X106398D01*
X110897Y278468D02*
Y277135D01*
Y277801D01*
X107564D01*
X106898Y277135D01*
Y276468D01*
X107564Y275802D01*
X110230Y279801D02*
X110897Y280467D01*
Y281800D01*
X110230Y282467D01*
X109564D01*
X108897Y281800D01*
X108231Y282467D01*
X107564D01*
X106898Y281800D01*
Y280467D01*
X107564Y279801D01*
X108231D01*
X108897Y280467D01*
X109564Y279801D01*
X110230D01*
X108897Y280467D02*
Y281800D01*
X260798Y131667D02*
X261731Y132600D01*
X263597D01*
X264530Y131667D01*
Y127935D01*
X263597Y127002D01*
X261731D01*
X260798Y127935D01*
Y128868D01*
X261731Y129801D01*
X264530D01*
Y162002D02*
X262664Y162935D01*
X260798Y164801D01*
Y166667D01*
X261731Y167600D01*
X263597D01*
X264530Y166667D01*
Y165734D01*
X263597Y164801D01*
X260798D01*
Y152002D02*
X264530D01*
Y152935D01*
X260798Y156667D01*
Y157600D01*
Y192935D02*
X261731Y192002D01*
X263597D01*
X264530Y192935D01*
Y193868D01*
X263597Y194801D01*
X262664D01*
X263597D01*
X264530Y195734D01*
Y196667D01*
X263597Y197600D01*
X261731D01*
X260798Y196667D01*
X263597Y187600D02*
Y182002D01*
X260798Y184801D01*
X264530D01*
Y172002D02*
X260798D01*
Y174801D01*
X262664Y173868D01*
X263597D01*
X264530Y174801D01*
Y176667D01*
X263597Y177600D01*
X261731D01*
X260798Y176667D01*
Y222935D02*
X261731Y222002D01*
X263597D01*
X264530Y222935D01*
Y226667D01*
X263597Y227600D01*
X261731D01*
X260798Y226667D01*
Y222935D01*
Y217600D02*
X262664D01*
X261731D01*
Y212002D01*
X260798Y212935D01*
X264530Y207600D02*
X260798D01*
X264530Y203868D01*
Y202935D01*
X263597Y202002D01*
X261731D01*
X260798Y202935D01*
Y137935D02*
X261731Y137002D01*
X263597D01*
X264530Y137935D01*
Y138868D01*
X263597Y139801D01*
X264530Y140734D01*
Y141667D01*
X263597Y142600D01*
X261731D01*
X260798Y141667D01*
Y140734D01*
X261731Y139801D01*
X260798Y138868D01*
Y137935D01*
X261731Y139801D02*
X263597D01*
X257298Y247600D02*
X259164D01*
X258231D01*
Y242002D01*
X257298Y242935D01*
X264762Y247600D02*
Y242002D01*
X261963Y244801D01*
X265695D01*
X257298Y257600D02*
X259164D01*
X258231D01*
Y252002D01*
X257298Y252935D01*
X265695Y252002D02*
X261963D01*
Y254801D01*
X263829Y253868D01*
X264762D01*
X265695Y254801D01*
Y256667D01*
X264762Y257600D01*
X262896D01*
X261963Y256667D01*
X257298Y277600D02*
X259164D01*
X258231D01*
Y272002D01*
X257298Y272935D01*
X261963Y272002D02*
X265695D01*
Y272935D01*
X261963Y276667D01*
Y277600D01*
X257298Y287600D02*
X259164D01*
X258231D01*
Y282002D01*
X257298Y282935D01*
X261963D02*
X262896Y282002D01*
X264762D01*
X265695Y282935D01*
Y283868D01*
X264762Y284801D01*
X265695Y285734D01*
Y286667D01*
X264762Y287600D01*
X262896D01*
X261963Y286667D01*
Y285734D01*
X262896Y284801D01*
X261963Y283868D01*
Y282935D01*
X262896Y284801D02*
X264762D01*
X261030Y317600D02*
X257298D01*
X261030Y313868D01*
Y312935D01*
X260097Y312002D01*
X258231D01*
X257298Y312935D01*
X262896Y317600D02*
X264762D01*
X263829D01*
Y312002D01*
X262896Y312935D01*
X261030Y307600D02*
X257298D01*
X261030Y303868D01*
Y302935D01*
X260097Y302002D01*
X258231D01*
X257298Y302935D01*
X262896D02*
X263829Y302002D01*
X265695D01*
X266628Y302935D01*
Y306667D01*
X265695Y307600D01*
X263829D01*
X262896Y306667D01*
Y302935D01*
X240298Y212002D02*
X244030D01*
X242164D01*
Y217600D01*
X245896Y212002D02*
X249628Y217600D01*
Y212002D02*
X245896Y217600D01*
X240298Y227600D02*
Y222002D01*
X243097D01*
X244030Y222935D01*
Y224801D01*
X243097Y225734D01*
X240298D01*
X242164D02*
X244030Y227600D01*
X245896Y222002D02*
X249628Y227600D01*
Y222002D02*
X245896Y227600D01*
X240298Y277600D02*
Y272002D01*
X243097D01*
X244030Y272935D01*
Y274801D01*
X243097Y275734D01*
X240298D01*
X242164D02*
X244030Y277600D01*
X245896Y272002D02*
X249628Y277600D01*
Y272002D02*
X245896Y277600D01*
X251494D02*
X253360D01*
X252427D01*
Y272002D01*
X251494Y272935D01*
X91798Y187100D02*
X93664D01*
X92731D01*
Y181502D01*
X91798Y182435D01*
X257298Y267600D02*
X259164D01*
X258231D01*
Y262002D01*
X257298Y262935D01*
X265695Y262002D02*
X263829Y262935D01*
X261963Y264801D01*
Y266667D01*
X262896Y267600D01*
X264762D01*
X265695Y266667D01*
Y265734D01*
X264762Y264801D01*
X261963D01*
X257298Y297600D02*
X259164D01*
X258231D01*
Y292002D01*
X257298Y292935D01*
X261963Y296667D02*
X262896Y297600D01*
X264762D01*
X265695Y296667D01*
Y292935D01*
X264762Y292002D01*
X262896D01*
X261963Y292935D01*
Y293868D01*
X262896Y294801D01*
X265695D01*
X260798Y333832D02*
Y330100D01*
X264530Y333832D01*
X265463D01*
X266396Y332899D01*
Y331033D01*
X265463Y330100D01*
X260798Y339430D02*
Y335698D01*
X264530Y339430D01*
X265463D01*
X266396Y338497D01*
Y336631D01*
X265463Y335698D01*
X273966Y366201D02*
X276898D01*
Y364001D01*
X275432Y364734D01*
X274699D01*
X273966Y364001D01*
Y362535D01*
X274699Y361802D01*
X276165D01*
X276898Y362535D01*
X272499Y366201D02*
Y363268D01*
X271033Y361802D01*
X269567Y363268D01*
Y366201D01*
X253398Y155802D02*
X246800D01*
Y152503D01*
X247900Y151403D01*
X250099D01*
X251199Y152503D01*
Y155802D01*
X246800Y149204D02*
X253398D01*
X251199Y147005D01*
X253398Y144806D01*
X246800D01*
X253398Y142606D02*
X246800D01*
X248999Y140407D01*
X246800Y138208D01*
X253398D01*
X240798Y333832D02*
Y330100D01*
X244530Y333832D01*
X245463D01*
X246396Y332899D01*
Y331033D01*
X245463Y330100D01*
X246396Y339430D02*
X245463Y337564D01*
X243597Y335698D01*
X241731D01*
X240798Y336631D01*
Y338497D01*
X241731Y339430D01*
X242664D01*
X243597Y338497D01*
Y335698D01*
X230798Y333832D02*
Y330100D01*
X234530Y333832D01*
X235463D01*
X236396Y332899D01*
Y331033D01*
X235463Y330100D01*
Y335698D02*
X236396Y336631D01*
Y338497D01*
X235463Y339430D01*
X234530D01*
X233597Y338497D01*
X232664Y339430D01*
X231731D01*
X230798Y338497D01*
Y336631D01*
X231731Y335698D01*
X232664D01*
X233597Y336631D01*
X234530Y335698D01*
X235463D01*
X233597Y336631D02*
Y338497D01*
X240298Y262002D02*
X244030D01*
X242164D01*
Y267600D01*
X245896Y262002D02*
X249628Y267600D01*
Y262002D02*
X245896Y267600D01*
X251494D02*
X253360D01*
X252427D01*
Y262002D01*
X251494Y262935D01*
X215463Y330100D02*
X216396Y331033D01*
Y332899D01*
X215463Y333832D01*
X214530D01*
X213597Y332899D01*
Y331966D01*
Y332899D01*
X212664Y333832D01*
X211731D01*
X210798Y332899D01*
Y331033D01*
X211731Y330100D01*
X210798Y339430D02*
Y335698D01*
X214530Y339430D01*
X215463D01*
X216396Y338497D01*
Y336631D01*
X215463Y335698D01*
X205463Y330100D02*
X206396Y331033D01*
Y332899D01*
X205463Y333832D01*
X204530D01*
X203597Y332899D01*
Y331966D01*
Y332899D01*
X202664Y333832D01*
X201731D01*
X200798Y332899D01*
Y331033D01*
X201731Y330100D01*
X200798Y338497D02*
X206396D01*
X203597Y335698D01*
Y339430D01*
X215463Y361302D02*
X216396Y362235D01*
Y364101D01*
X215463Y365034D01*
X214530D01*
X213597Y364101D01*
Y363168D01*
Y364101D01*
X212664Y365034D01*
X211731D01*
X210798Y364101D01*
Y362235D01*
X211731Y361302D01*
X215463Y366900D02*
X216396Y367833D01*
Y369699D01*
X215463Y370632D01*
X214530D01*
X213597Y369699D01*
Y368766D01*
Y369699D01*
X212664Y370632D01*
X211731D01*
X210798Y369699D01*
Y367833D01*
X211731Y366900D01*
X205463Y361302D02*
X206396Y362235D01*
Y364101D01*
X205463Y365034D01*
X204530D01*
X203597Y364101D01*
Y363168D01*
Y364101D01*
X202664Y365034D01*
X201731D01*
X200798Y364101D01*
Y362235D01*
X201731Y361302D01*
X206396Y370632D02*
Y366900D01*
X203597D01*
X204530Y368766D01*
Y369699D01*
X203597Y370632D01*
X201731D01*
X200798Y369699D01*
Y367833D01*
X201731Y366900D01*
X170798Y332899D02*
X176396D01*
X173597Y330100D01*
Y333832D01*
X175463Y335698D02*
X176396Y336631D01*
Y338497D01*
X175463Y339430D01*
X171731D01*
X170798Y338497D01*
Y336631D01*
X171731Y335698D01*
X175463D01*
X160798Y332899D02*
X166396D01*
X163597Y330100D01*
Y333832D01*
X160798Y339430D02*
Y335698D01*
X164530Y339430D01*
X165463D01*
X166396Y338497D01*
Y336631D01*
X165463Y335698D01*
X170798Y364101D02*
X176396D01*
X173597Y361302D01*
Y365034D01*
X170798Y366900D02*
Y368766D01*
Y367833D01*
X176396D01*
X175463Y366900D01*
X160798Y364101D02*
X166396D01*
X163597Y361302D01*
Y365034D01*
X165463Y366900D02*
X166396Y367833D01*
Y369699D01*
X165463Y370632D01*
X164530D01*
X163597Y369699D01*
Y368766D01*
Y369699D01*
X162664Y370632D01*
X161731D01*
X160798Y369699D01*
Y367833D01*
X161731Y366900D01*
X185463Y330100D02*
X186396Y331033D01*
Y332899D01*
X185463Y333832D01*
X184530D01*
X183597Y332899D01*
Y331966D01*
Y332899D01*
X182664Y333832D01*
X181731D01*
X180798Y332899D01*
Y331033D01*
X181731Y330100D01*
X185463Y335698D02*
X186396Y336631D01*
Y338497D01*
X185463Y339430D01*
X184530D01*
X183597Y338497D01*
X182664Y339430D01*
X181731D01*
X180798Y338497D01*
Y336631D01*
X181731Y335698D01*
X182664D01*
X183597Y336631D01*
X184530Y335698D01*
X185463D01*
X183597Y336631D02*
Y338497D01*
X185463Y361302D02*
X186396Y362235D01*
Y364101D01*
X185463Y365034D01*
X184530D01*
X183597Y364101D01*
Y363168D01*
Y364101D01*
X182664Y365034D01*
X181731D01*
X180798Y364101D01*
Y362235D01*
X181731Y361302D01*
Y366900D02*
X180798Y367833D01*
Y369699D01*
X181731Y370632D01*
X185463D01*
X186396Y369699D01*
Y367833D01*
X185463Y366900D01*
X184530D01*
X183597Y367833D01*
Y370632D01*
X140798Y332899D02*
X146396D01*
X143597Y330100D01*
Y333832D01*
X146396Y339430D02*
X145463Y337564D01*
X143597Y335698D01*
X141731D01*
X140798Y336631D01*
Y338497D01*
X141731Y339430D01*
X142664D01*
X143597Y338497D01*
Y335698D01*
X130798Y332899D02*
X136396D01*
X133597Y330100D01*
Y333832D01*
X135463Y335698D02*
X136396Y336631D01*
Y338497D01*
X135463Y339430D01*
X134530D01*
X133597Y338497D01*
X132664Y339430D01*
X131731D01*
X130798Y338497D01*
Y336631D01*
X131731Y335698D01*
X132664D01*
X133597Y336631D01*
X134530Y335698D01*
X135463D01*
X133597Y336631D02*
Y338497D01*
X140798Y364101D02*
X146396D01*
X143597Y361302D01*
Y365034D01*
X146396Y366900D02*
Y370632D01*
X145463D01*
X141731Y366900D01*
X140798D01*
X130798Y364101D02*
X136396D01*
X133597Y361302D01*
Y365034D01*
X131731Y366900D02*
X130798Y367833D01*
Y369699D01*
X131731Y370632D01*
X135463D01*
X136396Y369699D01*
Y367833D01*
X135463Y366900D01*
X134530D01*
X133597Y367833D01*
Y370632D01*
X150798Y332899D02*
X156396D01*
X153597Y330100D01*
Y333832D01*
X150798Y338497D02*
X156396D01*
X153597Y335698D01*
Y339430D01*
X150798Y364101D02*
X156396D01*
X153597Y361302D01*
Y365034D01*
X156396Y370632D02*
Y366900D01*
X153597D01*
X154530Y368766D01*
Y369699D01*
X153597Y370632D01*
X151731D01*
X150798Y369699D01*
Y367833D01*
X151731Y366900D01*
X116396Y333832D02*
Y330100D01*
X113597D01*
X114530Y331966D01*
Y332899D01*
X113597Y333832D01*
X111731D01*
X110798Y332899D01*
Y331033D01*
X111731Y330100D01*
X110798Y339430D02*
Y335698D01*
X114530Y339430D01*
X115463D01*
X116396Y338497D01*
Y336631D01*
X115463Y335698D01*
X116396Y365034D02*
Y361302D01*
X113597D01*
X114530Y363168D01*
Y364101D01*
X113597Y365034D01*
X111731D01*
X110798Y364101D01*
Y362235D01*
X111731Y361302D01*
X115463Y366900D02*
X116396Y367833D01*
Y369699D01*
X115463Y370632D01*
X114530D01*
X113597Y369699D01*
Y368766D01*
Y369699D01*
X112664Y370632D01*
X111731D01*
X110798Y369699D01*
Y367833D01*
X111731Y366900D01*
X98698Y190200D02*
X103097D01*
X105296Y192399D01*
X103097Y194599D01*
X98698D01*
X101997D01*
Y190200D01*
X98698Y196798D02*
X105296D01*
X98698Y201197D01*
X105296D01*
X98698Y203396D02*
X103097D01*
X105296Y205595D01*
X103097Y207794D01*
X98698D01*
X101997D01*
Y203396D01*
X105296Y209994D02*
X98698D01*
Y214392D01*
X105296Y219890D02*
Y217691D01*
X104196Y216592D01*
X99798D01*
X98698Y217691D01*
Y219890D01*
X99798Y220990D01*
X104196D01*
X105296Y219890D01*
X104196Y227588D02*
X105296Y226488D01*
Y224289D01*
X104196Y223189D01*
X99798D01*
X98698Y224289D01*
Y226488D01*
X99798Y227588D01*
X101997D01*
Y225389D01*
X105296Y249581D02*
Y251780D01*
Y250680D01*
X98698D01*
Y249581D01*
Y251780D01*
Y255079D02*
X105296D01*
X98698Y259478D01*
X105296D01*
X196250Y221067D02*
Y219401D01*
Y220234D01*
X191252D01*
X192085Y221067D01*
X89398Y312901D02*
Y316900D01*
X91397D01*
X92064Y316234D01*
Y313568D01*
X91397Y312901D01*
X89398D01*
X93397Y316900D02*
Y314234D01*
X94730Y312901D01*
X96062Y314234D01*
Y316900D01*
Y314901D01*
X93397D01*
X100061Y313568D02*
X99395Y312901D01*
X98062D01*
X97395Y313568D01*
Y316234D01*
X98062Y316900D01*
X99395D01*
X100061Y316234D01*
X101394Y316900D02*
X102727D01*
X102061D01*
Y312901D01*
X101394Y313568D01*
X247646Y72483D02*
Y68751D01*
X249512Y66885D01*
X251378Y68751D01*
Y72483D01*
Y69684D01*
X247646D01*
X253244Y72483D02*
Y66885D01*
X256043D01*
X256976Y67818D01*
Y69684D01*
X256043Y70617D01*
X253244D01*
X255110D02*
X256976Y72483D01*
X262575Y66885D02*
X258842D01*
Y72483D01*
X262575D01*
X258842Y69684D02*
X260708D01*
X268173Y66885D02*
X264441D01*
Y69684D01*
X266307D01*
X264441D01*
Y72483D01*
X251378Y57818D02*
X250445Y56885D01*
X248579D01*
X247646Y57818D01*
Y58751D01*
X248579Y59684D01*
X250445D01*
X251378Y60617D01*
Y61550D01*
X250445Y62483D01*
X248579D01*
X247646Y61550D01*
X253244Y56885D02*
Y62483D01*
X256043D01*
X256976Y61550D01*
Y57818D01*
X256043Y56885D01*
X253244D01*
X258842Y62483D02*
Y58751D01*
X260708Y56885D01*
X262575Y58751D01*
Y62483D01*
Y59684D01*
X258842D01*
X264441Y62483D02*
X266307D01*
X265374D01*
Y56885D01*
X264441Y57818D01*
X251378Y48618D02*
X250445Y47685D01*
X248579D01*
X247646Y48618D01*
Y49551D01*
X248579Y50484D01*
X250445D01*
X251378Y51417D01*
Y52350D01*
X250445Y53283D01*
X248579D01*
X247646Y52350D01*
X256976Y48618D02*
X256043Y47685D01*
X254177D01*
X253244Y48618D01*
Y52350D01*
X254177Y53283D01*
X256043D01*
X256976Y52350D01*
X258842Y47685D02*
Y53283D01*
X262575D01*
X264441D02*
X266307D01*
X265374D01*
Y47685D01*
X264441Y48618D01*
X255798Y102600D02*
X257664D01*
X256731D01*
Y97002D01*
X255798Y97935D01*
X264195Y102600D02*
X260463D01*
X264195Y98868D01*
Y97935D01*
X263262Y97002D01*
X261396D01*
X260463Y97935D01*
X255798Y92600D02*
X257664D01*
X256731D01*
Y87002D01*
X255798Y87935D01*
X260463D02*
X261396Y87002D01*
X263262D01*
X264195Y87935D01*
Y88868D01*
X263262Y89801D01*
X262329D01*
X263262D01*
X264195Y90734D01*
Y91667D01*
X263262Y92600D01*
X261396D01*
X260463Y91667D01*
X256078Y78360D02*
X255145Y77427D01*
X253279D01*
X252346Y78360D01*
Y82092D01*
X253279Y83025D01*
X255145D01*
X256078Y82092D01*
Y80226D01*
X254212D01*
X257944Y83025D02*
Y77427D01*
X261676Y83025D01*
Y77427D01*
X263542D02*
Y83025D01*
X266341D01*
X267274Y82092D01*
Y78360D01*
X266341Y77427D01*
X263542D01*
X255798Y122600D02*
X257664D01*
X256731D01*
Y117002D01*
X255798Y117935D01*
X260463D02*
X261396Y117002D01*
X263262D01*
X264195Y117935D01*
Y121667D01*
X263262Y122600D01*
X261396D01*
X260463Y121667D01*
Y117935D01*
X240298Y257600D02*
Y252002D01*
X243097D01*
X244030Y252935D01*
Y254801D01*
X243097Y255734D01*
X240298D01*
X242164D02*
X244030Y257600D01*
X245896Y252002D02*
X249628Y257600D01*
Y252002D02*
X245896Y257600D01*
X251494Y252935D02*
X252427Y252002D01*
X254293D01*
X255226Y252935D01*
Y256667D01*
X254293Y257600D01*
X252427D01*
X251494Y256667D01*
Y252935D01*
X240298Y242002D02*
X244030D01*
X242164D01*
Y247600D01*
X245896Y242002D02*
X249628Y247600D01*
Y242002D02*
X245896Y247600D01*
X251494Y242935D02*
X252427Y242002D01*
X254293D01*
X255226Y242935D01*
Y246667D01*
X254293Y247600D01*
X252427D01*
X251494Y246667D01*
Y242935D01*
X240298Y282002D02*
X244030D01*
X242164D01*
Y287600D01*
X245896Y282002D02*
X249628Y287600D01*
Y282002D02*
X245896Y287600D01*
X255226D02*
X251494D01*
X255226Y283868D01*
Y282935D01*
X254293Y282002D01*
X252427D01*
X251494Y282935D01*
X244030Y312935D02*
X243097Y312002D01*
X241231D01*
X240298Y312935D01*
Y313868D01*
X241231Y314801D01*
X243097D01*
X244030Y315734D01*
Y316667D01*
X243097Y317600D01*
X241231D01*
X240298Y316667D01*
X249628Y312935D02*
X248695Y312002D01*
X246829D01*
X245896Y312935D01*
Y316667D01*
X246829Y317600D01*
X248695D01*
X249628Y316667D01*
X251494Y312002D02*
Y317600D01*
X255226D01*
X244030Y302935D02*
X243097Y302002D01*
X241231D01*
X240298Y302935D01*
Y303868D01*
X241231Y304801D01*
X243097D01*
X244030Y305734D01*
Y306667D01*
X243097Y307600D01*
X241231D01*
X240298Y306667D01*
X245896Y302002D02*
Y307600D01*
X248695D01*
X249628Y306667D01*
Y302935D01*
X248695Y302002D01*
X245896D01*
X251494Y307600D02*
Y303868D01*
X253360Y302002D01*
X255226Y303868D01*
Y307600D01*
Y304801D01*
X251494D01*
X165798Y321002D02*
Y327600D01*
X169097D01*
X170197Y326500D01*
Y322102D01*
X169097Y321002D01*
X165798D01*
X172396D02*
X174595D01*
X173495D01*
Y327600D01*
X172396D01*
X174595D01*
X182293Y322102D02*
X181193Y321002D01*
X178994D01*
X177894Y322102D01*
Y326500D01*
X178994Y327600D01*
X181193D01*
X182293Y326500D01*
Y324301D01*
X180093D01*
X184492Y321002D02*
X186691D01*
X185592D01*
Y327600D01*
X184492D01*
X186691D01*
X189990Y321002D02*
X194389D01*
X192190D01*
Y327600D01*
X196588D02*
Y323201D01*
X198787Y321002D01*
X200987Y323201D01*
Y327600D01*
Y324301D01*
X196588D01*
X203186Y321002D02*
Y327600D01*
X207585D01*
X90046Y92385D02*
X91912D01*
X90979D01*
Y97983D01*
X90046D01*
X91912D01*
X97510Y92385D02*
X95644D01*
X94711Y93318D01*
Y97050D01*
X95644Y97983D01*
X97510D01*
X98443Y97050D01*
Y93318D01*
X97510Y92385D01*
X100309Y97983D02*
Y92385D01*
X103108D01*
X104042Y93318D01*
Y95184D01*
X103108Y96117D01*
X100309D01*
X102175D02*
X104042Y97983D01*
X109640Y92385D02*
X105907D01*
Y97983D01*
X109640D01*
X105907Y95184D02*
X107774D01*
X115238Y92385D02*
X111506D01*
Y95184D01*
X113372D01*
X111506D01*
Y97983D01*
X90046Y113318D02*
X90979Y112385D01*
X92845D01*
X93778Y113318D01*
Y114251D01*
X92845Y115184D01*
X91912D01*
X92845D01*
X93778Y116117D01*
Y117050D01*
X92845Y117983D01*
X90979D01*
X90046Y117050D01*
X95644Y112385D02*
Y116117D01*
X97510Y117983D01*
X99376Y116117D01*
Y112385D01*
X101242Y113318D02*
X102175Y112385D01*
X104042D01*
X104974Y113318D01*
Y114251D01*
X104042Y115184D01*
X103108D01*
X104042D01*
X104974Y116117D01*
Y117050D01*
X104042Y117983D01*
X102175D01*
X101242Y117050D01*
X95714Y124780D02*
Y121048D01*
X92914D01*
X93847Y122914D01*
Y123847D01*
X92914Y124780D01*
X91048D01*
X90115Y123847D01*
Y121981D01*
X91048Y121048D01*
X95714Y126646D02*
X91981D01*
X90115Y128512D01*
X91981Y130378D01*
X95714D01*
Y150248D02*
X91981D01*
X90115Y152114D01*
X91981Y153980D01*
X95714D01*
Y155846D02*
Y157712D01*
Y156779D01*
X90115D01*
Y155846D01*
Y157712D01*
Y160511D02*
X95714D01*
X90115Y164243D01*
X95714D01*
X95530Y198100D02*
X91798D01*
X95530Y194368D01*
Y193435D01*
X94597Y192502D01*
X92731D01*
X91798Y193435D01*
Y173435D02*
X92731Y172502D01*
X94597D01*
X95530Y173435D01*
Y177167D01*
X94597Y178100D01*
X92731D01*
X91798Y177167D01*
Y173435D01*
X94597Y218100D02*
Y212502D01*
X91798Y215301D01*
X95530D01*
Y222002D02*
X91798D01*
Y224801D01*
X93664Y223868D01*
X94597D01*
X95530Y224801D01*
Y226667D01*
X94597Y227600D01*
X92731D01*
X91798Y226667D01*
Y242502D02*
X95530D01*
Y243435D01*
X91798Y247167D01*
Y248100D01*
Y277167D02*
X92731Y278100D01*
X94597D01*
X95530Y277167D01*
Y273435D01*
X94597Y272502D01*
X92731D01*
X91798Y273435D01*
Y274368D01*
X92731Y275301D01*
X95530D01*
X91798Y288100D02*
X93664D01*
X92731D01*
Y282502D01*
X91798Y283435D01*
X96463D02*
X97396Y282502D01*
X99262D01*
X100195Y283435D01*
Y287167D01*
X99262Y288100D01*
X97396D01*
X96463Y287167D01*
Y283435D01*
X92064Y323568D02*
X91397Y322901D01*
X90064D01*
X89398Y323568D01*
Y326234D01*
X90064Y326900D01*
X91397D01*
X92064Y326234D01*
X93397Y326900D02*
Y324234D01*
X94730Y322901D01*
X96062Y324234D01*
Y326900D01*
Y324901D01*
X93397D01*
X97395Y326900D02*
Y322901D01*
X100061Y326900D01*
Y322901D01*
X101394Y326900D02*
Y322901D01*
X103393D01*
X104060Y323568D01*
Y324901D01*
X103393Y325567D01*
X101394D01*
X102727D02*
X104060Y326900D01*
X105393Y322901D02*
X108059Y326900D01*
Y322901D02*
X105393Y326900D01*
X89398Y302901D02*
Y306900D01*
X91397D01*
X92064Y306234D01*
Y303568D01*
X91397Y302901D01*
X89398D01*
X93397Y306900D02*
Y304234D01*
X94730Y302901D01*
X96062Y304234D01*
Y306900D01*
Y304901D01*
X93397D01*
X100061Y303568D02*
X99395Y302901D01*
X98062D01*
X97395Y303568D01*
Y306234D01*
X98062Y306900D01*
X99395D01*
X100061Y306234D01*
X101394Y303568D02*
X102061Y302901D01*
X103393D01*
X104060Y303568D01*
Y306234D01*
X103393Y306900D01*
X102061D01*
X101394Y306234D01*
Y303568D01*
X92064Y333068D02*
X91397Y332401D01*
X90064D01*
X89398Y333068D01*
Y335734D01*
X90064Y336400D01*
X91397D01*
X92064Y335734D01*
X93397Y336400D02*
Y333734D01*
X94730Y332401D01*
X96062Y333734D01*
Y336400D01*
Y334401D01*
X93397D01*
X97395Y336400D02*
Y332401D01*
X100061Y336400D01*
Y332401D01*
X101394D02*
X104060D01*
X102727D01*
Y336400D01*
X105393Y332401D02*
X108059Y336400D01*
Y332401D02*
X105393Y336400D01*
X255798Y112600D02*
X257664D01*
X256731D01*
Y107002D01*
X255798Y107935D01*
X260463Y112600D02*
X262329D01*
X261396D01*
Y107002D01*
X260463Y107935D01*
X225463Y330100D02*
X226396Y331033D01*
Y332899D01*
X225463Y333832D01*
X224530D01*
X223597Y332899D01*
Y331966D01*
Y332899D01*
X222664Y333832D01*
X221731D01*
X220798Y332899D01*
Y331033D01*
X221731Y330100D01*
X225463Y335698D02*
X226396Y336631D01*
Y338497D01*
X225463Y339430D01*
X221731D01*
X220798Y338497D01*
Y336631D01*
X221731Y335698D01*
X225463D01*
Y361302D02*
X226396Y362235D01*
Y364101D01*
X225463Y365034D01*
X224530D01*
X223597Y364101D01*
Y363168D01*
Y364101D01*
X222664Y365034D01*
X221731D01*
X220798Y364101D01*
Y362235D01*
X221731Y361302D01*
X220798Y366900D02*
Y368766D01*
Y367833D01*
X226396D01*
X225463Y366900D01*
X195463Y330100D02*
X196396Y331033D01*
Y332899D01*
X195463Y333832D01*
X194530D01*
X193597Y332899D01*
Y331966D01*
Y332899D01*
X192664Y333832D01*
X191731D01*
X190798Y332899D01*
Y331033D01*
X191731Y330100D01*
X196396Y339430D02*
X195463Y337564D01*
X193597Y335698D01*
X191731D01*
X190798Y336631D01*
Y338497D01*
X191731Y339430D01*
X192664D01*
X193597Y338497D01*
Y335698D01*
X195463Y361302D02*
X196396Y362235D01*
Y364101D01*
X195463Y365034D01*
X194530D01*
X193597Y364101D01*
Y363168D01*
Y364101D01*
X192664Y365034D01*
X191731D01*
X190798Y364101D01*
Y362235D01*
X191731Y361302D01*
X196396Y366900D02*
Y370632D01*
X195463D01*
X191731Y366900D01*
X190798D01*
X240298Y297600D02*
Y292002D01*
X243097D01*
X244030Y292935D01*
Y294801D01*
X243097Y295734D01*
X240298D01*
X242164D02*
X244030Y297600D01*
X245896Y292002D02*
X249628Y297600D01*
Y292002D02*
X245896Y297600D01*
X251494Y292935D02*
X252427Y292002D01*
X254293D01*
X255226Y292935D01*
Y293868D01*
X254293Y294801D01*
X253360D01*
X254293D01*
X255226Y295734D01*
Y296667D01*
X254293Y297600D01*
X252427D01*
X251494Y296667D01*
X250798Y333832D02*
Y330100D01*
X254530Y333832D01*
X255463D01*
X256396Y332899D01*
Y331033D01*
X255463Y330100D01*
X250798Y338497D02*
X256396D01*
X253597Y335698D01*
Y339430D01*
X90046Y107983D02*
Y102385D01*
X92845D01*
X93778Y103318D01*
Y105184D01*
X92845Y106117D01*
X90046D01*
X91912D02*
X93778Y107983D01*
X99376Y102385D02*
X95644D01*
Y107983D01*
X99376D01*
X95644Y105184D02*
X97510D01*
X104974Y103318D02*
X104042Y102385D01*
X102175D01*
X101242Y103318D01*
Y104251D01*
X102175Y105184D01*
X104042D01*
X104974Y106117D01*
Y107050D01*
X104042Y107983D01*
X102175D01*
X101242Y107050D01*
X110573Y102385D02*
X106841D01*
Y107983D01*
X110573D01*
X106841Y105184D02*
X108707D01*
X112439Y102385D02*
X116171D01*
X114305D01*
Y107983D01*
X94780Y136780D02*
X95714Y135847D01*
Y133981D01*
X94780Y133048D01*
X91048D01*
X90115Y133981D01*
Y135847D01*
X91048Y136780D01*
X92914D01*
Y134914D01*
X90115Y138646D02*
X95714D01*
X90115Y142378D01*
X95714D01*
Y144244D02*
X90115D01*
Y147044D01*
X91048Y147977D01*
X94780D01*
X95714Y147044D01*
Y144244D01*
X91798Y203435D02*
X92731Y202502D01*
X94597D01*
X95530Y203435D01*
Y204368D01*
X94597Y205301D01*
X93664D01*
X94597D01*
X95530Y206234D01*
Y207167D01*
X94597Y208100D01*
X92731D01*
X91798Y207167D01*
X95530Y232002D02*
X93664Y232935D01*
X91798Y234801D01*
Y236667D01*
X92731Y237600D01*
X94597D01*
X95530Y236667D01*
Y235734D01*
X94597Y234801D01*
X91798D01*
X97963Y362832D02*
X98896Y361899D01*
Y360033D01*
X97963Y359100D01*
X94231D01*
X93298Y360033D01*
Y361899D01*
X94231Y362832D01*
X96097D01*
Y360966D01*
X93298Y364698D02*
X98896D01*
X93298Y368430D01*
X98896D01*
Y370296D02*
X93298D01*
Y373095D01*
X94231Y374028D01*
X97963D01*
X98896Y373095D01*
Y370296D01*
X91798Y263435D02*
X92731Y262502D01*
X94597D01*
X95530Y263435D01*
Y264368D01*
X94597Y265301D01*
X95530Y266234D01*
Y267167D01*
X94597Y268100D01*
X92731D01*
X91798Y267167D01*
Y266234D01*
X92731Y265301D01*
X91798Y264368D01*
Y263435D01*
X92731Y265301D02*
X94597D01*
X91798Y297300D02*
X93664D01*
X92731D01*
Y291702D01*
X91798Y292635D01*
X96463Y297300D02*
X98329D01*
X97396D01*
Y291702D01*
X96463Y292635D01*
X126396Y333832D02*
Y330100D01*
X123597D01*
X124530Y331966D01*
Y332899D01*
X123597Y333832D01*
X121731D01*
X120798Y332899D01*
Y331033D01*
X121731Y330100D01*
X125463Y335698D02*
X126396Y336631D01*
Y338497D01*
X125463Y339430D01*
X121731D01*
X120798Y338497D01*
Y336631D01*
X121731Y335698D01*
X125463D01*
X126396Y365034D02*
Y361302D01*
X123597D01*
X124530Y363168D01*
Y364101D01*
X123597Y365034D01*
X121731D01*
X120798Y364101D01*
Y362235D01*
X121731Y361302D01*
X120798Y366900D02*
Y368766D01*
Y367833D01*
X126396D01*
X125463Y366900D01*
X-25000Y-24900D02*
X425000D01*
Y525000D01*
X-25000D02*
X425000D01*
X-25000Y-24900D02*
Y525000D01*
D13*
X56535Y10630D02*
Y16929D01*
Y10630D02*
X60472D01*
Y16929D01*
X56535D02*
X60472D01*
X36850Y0D02*
X43150D01*
Y3937D01*
X36850D02*
X43150D01*
X36850Y0D02*
Y3937D01*
Y23622D02*
X43150D01*
Y27559D01*
X36850D02*
X43150D01*
X36850Y23622D02*
Y27559D01*
D44*
X98298Y342600D02*
Y357600D01*
X108298Y342600D02*
Y357600D01*
X118298Y342600D02*
Y357600D01*
X128298Y342600D02*
Y357600D01*
X138298Y342600D02*
Y357600D01*
X148298Y342600D02*
Y357600D01*
X158298Y342600D02*
Y357600D01*
X168298Y342600D02*
Y357600D01*
X178298Y342600D02*
Y357600D01*
X188298Y342600D02*
Y357600D01*
X198298Y342600D02*
Y357600D01*
X208298Y342600D02*
Y357600D01*
X218298Y342600D02*
Y357600D01*
X228298Y342600D02*
Y357600D01*
X238298Y342600D02*
Y357600D01*
X248298Y342600D02*
Y357600D01*
X258298Y342600D02*
Y357600D01*
X268298Y342600D02*
Y357600D01*
X215798Y340100D02*
X218298Y342600D01*
X210798Y340100D02*
X215798D01*
X208298Y342600D02*
X210798Y340100D01*
X205798D02*
X208298Y342600D01*
X200798Y340100D02*
X205798D01*
X198298Y342600D02*
X200798Y340100D01*
X195798D02*
X198298Y342600D01*
X190798Y340100D02*
X195798D01*
X188298Y342600D02*
X190798Y340100D01*
X185798D02*
X188298Y342600D01*
X180798Y340100D02*
X185798D01*
X178298Y342600D02*
X180798Y340100D01*
X175798D02*
X178298Y342600D01*
X170798Y340100D02*
X175798D01*
X168298Y342600D02*
X170798Y340100D01*
X165798D02*
X168298Y342600D01*
X160798Y340100D02*
X165798D01*
X158298Y342600D02*
X160798Y340100D01*
X155798D02*
X158298Y342600D01*
X150798Y340100D02*
X155798D01*
X148298Y342600D02*
X150798Y340100D01*
X145798D02*
X148298Y342600D01*
X140798Y340100D02*
X145798D01*
X138298Y342600D02*
X140798Y340100D01*
X135798D02*
X138298Y342600D01*
X130798Y340100D02*
X135798D01*
X128298Y342600D02*
X130798Y340100D01*
X125798D02*
X128298Y342600D01*
X120798Y340100D02*
X125798D01*
X118298Y342600D02*
X120798Y340100D01*
X115798D02*
X118298Y342600D01*
X110798Y340100D02*
X115798D01*
X108298Y342600D02*
X110798Y340100D01*
X105798D02*
X108298Y342600D01*
X100798Y340100D02*
X105798D01*
X98298Y342600D02*
X100798Y340100D01*
X98298Y357600D02*
X100798Y360100D01*
X105798D01*
X108298Y357600D01*
X110798Y360100D01*
X115798D01*
X118298Y357600D01*
X120798Y360100D01*
X125798D01*
X128298Y357600D01*
X130798Y360100D01*
X135798D01*
X138298Y357600D01*
X140798Y360100D01*
X145798D01*
X148298Y357600D01*
X150798Y360100D01*
X155798D01*
X158298Y357600D01*
X160798Y360100D01*
X165798D01*
X168298Y357600D01*
X170798Y360100D01*
X175798D01*
X178298Y357600D01*
X180798Y360100D01*
X185798D01*
X188298Y357600D01*
X190798Y360100D01*
X195798D01*
X198298Y357600D01*
X200798Y360100D01*
X205798D01*
X208298Y357600D01*
X210798Y360100D01*
X215798D01*
X218298Y357600D01*
X220798Y360100D01*
X225798D01*
X228298Y357600D01*
X230798Y360100D01*
X235798D01*
X238298Y357600D01*
X240798Y360100D01*
X245798D01*
X248298Y357600D01*
X250798Y360100D01*
X255798D01*
X258298Y357600D01*
X260798Y360100D01*
X265798D01*
X268298Y357600D01*
X270798Y360100D01*
X275798D01*
X278298Y357600D01*
Y342600D02*
Y357600D01*
X218298Y342600D02*
X220798Y340100D01*
X225798D01*
X228298Y342600D01*
X230798Y340100D01*
X235798D01*
X238298Y342600D01*
X240798Y340100D01*
X245798D01*
X248298Y342600D01*
X250798Y340100D01*
X255798D01*
X258298Y342600D01*
X260798Y340100D01*
X265798D01*
X268298Y342600D01*
X270798Y340100D01*
X275798D01*
X278298Y342600D01*
X170798Y220600D02*
X175798D01*
X168298Y223100D02*
Y238100D01*
X170798Y240600D01*
X175798D01*
X178298Y238100D01*
X168298Y223100D02*
X170798Y220600D01*
X175798D02*
X178298Y223100D01*
X190798Y220600D02*
X195798D01*
X180798D02*
X185798D01*
X178298Y223100D02*
Y238100D01*
X188298Y223100D02*
Y238100D01*
X178298D02*
X180798Y240600D01*
X185798D01*
X188298Y238100D01*
X190798Y240600D01*
X195798D01*
X198298Y238100D01*
Y223100D02*
Y238100D01*
X178298Y223100D02*
X180798Y220600D01*
X185798D02*
X188298Y223100D01*
X190798Y220600D01*
X195798D02*
X198298Y223100D01*
X278298Y46600D02*
Y51600D01*
X275798Y54100D02*
X278298Y51600D01*
X268298D02*
X270798Y54100D01*
X275798Y44100D02*
X278298Y46600D01*
X270798Y44100D02*
X275798D01*
X268298Y46600D02*
X270798Y44100D01*
X268298Y46600D02*
Y51600D01*
X278298Y136600D02*
Y141600D01*
X275798Y144100D02*
X278298Y141600D01*
X268298D02*
X270798Y144100D01*
X275798D01*
Y134100D02*
X278298Y131600D01*
Y126600D02*
Y131600D01*
X275798Y124100D02*
X278298Y126600D01*
X270798Y124100D02*
X275798D01*
X268298Y126600D02*
X270798Y124100D01*
X268298Y126600D02*
Y131600D01*
X270798Y134100D01*
X275798D02*
X278298Y136600D01*
X270798Y134100D02*
X275798D01*
X268298Y136600D02*
X270798Y134100D01*
X268298Y136600D02*
Y141600D01*
X278298Y106600D02*
Y111600D01*
X275798Y114100D02*
X278298Y111600D01*
X268298D02*
X270798Y114100D01*
X275798Y124100D02*
X278298Y121600D01*
Y116600D02*
Y121600D01*
X275798Y114100D02*
X278298Y116600D01*
X270798Y114100D02*
X275798D01*
X268298Y116600D02*
X270798Y114100D01*
X268298Y116600D02*
Y121600D01*
X270798Y124100D01*
X275798Y104100D02*
X278298Y101600D01*
Y96600D02*
Y101600D01*
X275798Y94100D02*
X278298Y96600D01*
X270798Y94100D02*
X275798D01*
X268298Y96600D02*
X270798Y94100D01*
X268298Y96600D02*
Y101600D01*
X270798Y104100D01*
X275798D02*
X278298Y106600D01*
X270798Y104100D02*
X275798D01*
X268298Y106600D02*
X270798Y104100D01*
X268298Y106600D02*
Y111600D01*
X278298Y76600D02*
Y81600D01*
X275798Y84100D02*
X278298Y81600D01*
X268298D02*
X270798Y84100D01*
X275798Y94100D02*
X278298Y91600D01*
Y86600D02*
Y91600D01*
X275798Y84100D02*
X278298Y86600D01*
X270798Y84100D02*
X275798D01*
X268298Y86600D02*
X270798Y84100D01*
X268298Y86600D02*
Y91600D01*
X270798Y94100D01*
X275798Y74100D02*
X278298Y71600D01*
Y66600D02*
Y71600D01*
X275798Y64100D02*
X278298Y66600D01*
X270798Y64100D02*
X275798D01*
X268298Y66600D02*
X270798Y64100D01*
X268298Y66600D02*
Y71600D01*
X270798Y74100D01*
X275798D02*
X278298Y76600D01*
X270798Y74100D02*
X275798D01*
X268298Y76600D02*
X270798Y74100D01*
X268298Y76600D02*
Y81600D01*
X275798Y64100D02*
X278298Y61600D01*
Y56600D02*
Y61600D01*
X275798Y54100D02*
X278298Y56600D01*
X270798Y54100D02*
X275798D01*
X268298Y56600D02*
X270798Y54100D01*
X268298Y56600D02*
Y61600D01*
X270798Y64100D01*
X278298Y152600D02*
Y157600D01*
X275798Y160100D02*
X278298Y157600D01*
X268298D02*
X270798Y160100D01*
X275798Y150100D02*
X278298Y152600D01*
X270798Y150100D02*
X275798D01*
X268298Y152600D02*
X270798Y150100D01*
X268298Y152600D02*
Y157600D01*
X278298Y222600D02*
Y227600D01*
X275798Y230100D02*
X278298Y227600D01*
X268298D02*
X270798Y230100D01*
X275798D01*
Y220100D02*
X278298Y217600D01*
Y212600D02*
Y217600D01*
X275798Y210100D02*
X278298Y212600D01*
X270798Y210100D02*
X275798D01*
X268298Y212600D02*
X270798Y210100D01*
X268298Y212600D02*
Y217600D01*
X270798Y220100D01*
X275798D02*
X278298Y222600D01*
X270798Y220100D02*
X275798D01*
X268298Y222600D02*
X270798Y220100D01*
X268298Y222600D02*
Y227600D01*
X278298Y192600D02*
Y197600D01*
X275798Y200100D02*
X278298Y197600D01*
X268298D02*
X270798Y200100D01*
X275798Y210100D02*
X278298Y207600D01*
Y202600D02*
Y207600D01*
X275798Y200100D02*
X278298Y202600D01*
X270798Y200100D02*
X275798D01*
X268298Y202600D02*
X270798Y200100D01*
X268298Y202600D02*
Y207600D01*
X270798Y210100D01*
X275798Y190100D02*
X278298Y187600D01*
Y182600D02*
Y187600D01*
X275798Y180100D02*
X278298Y182600D01*
X270798Y180100D02*
X275798D01*
X268298Y182600D02*
X270798Y180100D01*
X268298Y182600D02*
Y187600D01*
X270798Y190100D01*
X275798D02*
X278298Y192600D01*
X270798Y190100D02*
X275798D01*
X268298Y192600D02*
X270798Y190100D01*
X268298Y192600D02*
Y197600D01*
X278298Y162600D02*
Y167600D01*
X275798Y170100D02*
X278298Y167600D01*
X268298D02*
X270798Y170100D01*
X275798Y180100D02*
X278298Y177600D01*
Y172600D02*
Y177600D01*
X275798Y170100D02*
X278298Y172600D01*
X270798Y170100D02*
X275798D01*
X268298Y172600D02*
X270798Y170100D01*
X268298Y172600D02*
Y177600D01*
X270798Y180100D01*
X275798Y160100D02*
X278298Y162600D01*
X270798Y160100D02*
X275798D01*
X268298Y162600D02*
X270798Y160100D01*
X268298Y162600D02*
Y167600D01*
Y312600D02*
Y317600D01*
Y312600D02*
X270798Y310100D01*
X275798D02*
X278298Y312600D01*
X268298Y317600D02*
X270798Y320100D01*
X275798D01*
X278298Y317600D01*
Y312600D02*
Y317600D01*
X268298Y242600D02*
Y247600D01*
Y242600D02*
X270798Y240100D01*
X275798D02*
X278298Y242600D01*
X270798Y240100D02*
X275798D01*
X268298Y252600D02*
X270798Y250100D01*
X268298Y252600D02*
Y257600D01*
X270798Y260100D01*
X275798D01*
X278298Y257600D01*
Y252600D02*
Y257600D01*
X275798Y250100D02*
X278298Y252600D01*
X268298Y247600D02*
X270798Y250100D01*
X275798D01*
X278298Y247600D01*
Y242600D02*
Y247600D01*
X268298Y272600D02*
Y277600D01*
Y272600D02*
X270798Y270100D01*
X275798D02*
X278298Y272600D01*
X268298Y262600D02*
X270798Y260100D01*
X268298Y262600D02*
Y267600D01*
X270798Y270100D01*
X275798D01*
X278298Y267600D01*
Y262600D02*
Y267600D01*
X275798Y260100D02*
X278298Y262600D01*
X268298Y282600D02*
X270798Y280100D01*
X268298Y282600D02*
Y287600D01*
X270798Y290100D01*
X275798D01*
X278298Y287600D01*
Y282600D02*
Y287600D01*
X275798Y280100D02*
X278298Y282600D01*
X268298Y277600D02*
X270798Y280100D01*
X275798D01*
X278298Y277600D01*
Y272600D02*
Y277600D01*
X268298Y302600D02*
Y307600D01*
Y302600D02*
X270798Y300100D01*
X275798D02*
X278298Y302600D01*
X268298Y292600D02*
X270798Y290100D01*
X268298Y292600D02*
Y297600D01*
X270798Y300100D01*
X275798D01*
X278298Y297600D01*
Y292600D02*
Y297600D01*
X275798Y290100D02*
X278298Y292600D01*
X268298Y307600D02*
X270798Y310100D01*
X275798D01*
X278298Y307600D01*
Y302600D02*
Y307600D01*
X138798Y82300D02*
X143798D01*
X146298Y64800D02*
Y79800D01*
X143798Y62300D02*
X146298Y64800D01*
X138798Y62300D02*
X143798D01*
X136298Y64800D02*
X138798Y62300D01*
X143798Y82300D02*
X146298Y79800D01*
X136298D02*
X138798Y82300D01*
X118798D02*
X123798D01*
X128798D02*
X133798D01*
X136298Y64800D02*
Y79800D01*
X126298Y64800D02*
Y79800D01*
X133798Y62300D02*
X136298Y64800D01*
X128798Y62300D02*
X133798D01*
X126298Y64800D02*
X128798Y62300D01*
X123798D02*
X126298Y64800D01*
X118798Y62300D02*
X123798D01*
X116298Y64800D02*
X118798Y62300D01*
X116298Y64800D02*
Y79800D01*
X133798Y82300D02*
X136298Y79800D01*
X126298D02*
X128798Y82300D01*
X123798D02*
X126298Y79800D01*
X116298D02*
X118798Y82300D01*
X78298Y152600D02*
Y157600D01*
Y152600D02*
X80798Y150100D01*
X85798D02*
X88298Y152600D01*
X78298Y157600D02*
X80798Y160100D01*
X85798D01*
X88298Y157600D01*
Y152600D02*
Y157600D01*
X78298Y82600D02*
Y87600D01*
Y82600D02*
X80798Y80100D01*
X85798D02*
X88298Y82600D01*
X80798Y80100D02*
X85798D01*
X78298Y92600D02*
X80798Y90100D01*
X78298Y92600D02*
Y97600D01*
X80798Y100100D01*
X85798D01*
X88298Y97600D01*
Y92600D02*
Y97600D01*
X85798Y90100D02*
X88298Y92600D01*
X78298Y87600D02*
X80798Y90100D01*
X85798D01*
X88298Y87600D01*
Y82600D02*
Y87600D01*
X78298Y112600D02*
Y117600D01*
Y112600D02*
X80798Y110100D01*
X85798D02*
X88298Y112600D01*
X78298Y102600D02*
X80798Y100100D01*
X78298Y102600D02*
Y107600D01*
X80798Y110100D01*
X85798D01*
X88298Y107600D01*
Y102600D02*
Y107600D01*
X85798Y100100D02*
X88298Y102600D01*
X78298Y122600D02*
X80798Y120100D01*
X78298Y122600D02*
Y127600D01*
X80798Y130100D01*
X85798D01*
X88298Y127600D01*
Y122600D02*
Y127600D01*
X85798Y120100D02*
X88298Y122600D01*
X78298Y117600D02*
X80798Y120100D01*
X85798D01*
X88298Y117600D01*
Y112600D02*
Y117600D01*
X78298Y142600D02*
Y147600D01*
Y142600D02*
X80798Y140100D01*
X85798D02*
X88298Y142600D01*
X78298Y132600D02*
X80798Y130100D01*
X78298Y132600D02*
Y137600D01*
X80798Y140100D01*
X85798D01*
X88298Y137600D01*
Y132600D02*
Y137600D01*
X85798Y130100D02*
X88298Y132600D01*
X78298Y147600D02*
X80798Y150100D01*
X85798D01*
X88298Y147600D01*
Y142600D02*
Y147600D01*
X78298Y242600D02*
Y247600D01*
Y242600D02*
X80798Y240100D01*
X85798D02*
X88298Y242600D01*
X78298Y247600D02*
X80798Y250100D01*
X85798D01*
X88298Y247600D01*
Y242600D02*
Y247600D01*
X78298Y172600D02*
Y177600D01*
Y172600D02*
X80798Y170100D01*
X85798D02*
X88298Y172600D01*
X80798Y170100D02*
X85798D01*
X78298Y182600D02*
X80798Y180100D01*
X78298Y182600D02*
Y187600D01*
X80798Y190100D01*
X85798D01*
X88298Y187600D01*
Y182600D02*
Y187600D01*
X85798Y180100D02*
X88298Y182600D01*
X78298Y177600D02*
X80798Y180100D01*
X85798D01*
X88298Y177600D01*
Y172600D02*
Y177600D01*
X78298Y202600D02*
Y207600D01*
Y202600D02*
X80798Y200100D01*
X85798D02*
X88298Y202600D01*
X78298Y192600D02*
X80798Y190100D01*
X78298Y192600D02*
Y197600D01*
X80798Y200100D01*
X85798D01*
X88298Y197600D01*
Y192600D02*
Y197600D01*
X85798Y190100D02*
X88298Y192600D01*
X78298Y212600D02*
X80798Y210100D01*
X78298Y212600D02*
Y217600D01*
X80798Y220100D01*
X85798D01*
X88298Y217600D01*
Y212600D02*
Y217600D01*
X85798Y210100D02*
X88298Y212600D01*
X78298Y207600D02*
X80798Y210100D01*
X85798D01*
X88298Y207600D01*
Y202600D02*
Y207600D01*
X78298Y232600D02*
Y237600D01*
Y232600D02*
X80798Y230100D01*
X85798D02*
X88298Y232600D01*
X78298Y222600D02*
X80798Y220100D01*
X78298Y222600D02*
Y227600D01*
X80798Y230100D01*
X85798D01*
X88298Y227600D01*
Y222600D02*
Y227600D01*
X85798Y220100D02*
X88298Y222600D01*
X78298Y237600D02*
X80798Y240100D01*
X85798D01*
X88298Y237600D01*
Y232600D02*
Y237600D01*
X78298Y332600D02*
Y337600D01*
Y332600D02*
X80798Y330100D01*
X85798D02*
X88298Y332600D01*
X78298Y337600D02*
X80798Y340100D01*
X85798D01*
X88298Y337600D01*
Y332600D02*
Y337600D01*
X78298Y262600D02*
Y267600D01*
Y262600D02*
X80798Y260100D01*
X85798D02*
X88298Y262600D01*
X80798Y260100D02*
X85798D01*
X78298Y272600D02*
X80798Y270100D01*
X78298Y272600D02*
Y277600D01*
X80798Y280100D01*
X85798D01*
X88298Y277600D01*
Y272600D02*
Y277600D01*
X85798Y270100D02*
X88298Y272600D01*
X78298Y267600D02*
X80798Y270100D01*
X85798D01*
X88298Y267600D01*
Y262600D02*
Y267600D01*
X78298Y292600D02*
Y297600D01*
Y292600D02*
X80798Y290100D01*
X85798D02*
X88298Y292600D01*
X78298Y282600D02*
X80798Y280100D01*
X78298Y282600D02*
Y287600D01*
X80798Y290100D01*
X85798D01*
X88298Y287600D01*
Y282600D02*
Y287600D01*
X85798Y280100D02*
X88298Y282600D01*
X78298Y302600D02*
X80798Y300100D01*
X78298Y302600D02*
Y307600D01*
X80798Y310100D01*
X85798D01*
X88298Y307600D01*
Y302600D02*
Y307600D01*
X85798Y300100D02*
X88298Y302600D01*
X78298Y297600D02*
X80798Y300100D01*
X85798D01*
X88298Y297600D01*
Y292600D02*
Y297600D01*
X78298Y322600D02*
Y327600D01*
Y322600D02*
X80798Y320100D01*
X85798D02*
X88298Y322600D01*
X78298Y312600D02*
X80798Y310100D01*
X78298Y312600D02*
Y317600D01*
X80798Y320100D01*
X85798D01*
X88298Y317600D01*
Y312600D02*
Y317600D01*
X85798Y310100D02*
X88298Y312600D01*
X78298Y327600D02*
X80798Y330100D01*
X85798D01*
X88298Y327600D01*
Y322600D02*
Y327600D01*
D45*
X278298Y345100D02*
X280798D01*
X278298Y355100D02*
X280798D01*
X100198Y299500D02*
X102498Y297200D01*
X93798Y345100D02*
X95798D01*
X93798Y355100D02*
X95798D01*
X280798Y345100D02*
Y355100D01*
X99698Y172800D02*
X102498Y175600D01*
Y187600D01*
X93798Y345100D02*
Y355100D01*
X102498Y265302D02*
Y297200D01*
X234798Y220100D02*
X239298Y215600D01*
X259298Y324600D02*
X263298Y328600D01*
X250798Y94100D02*
X254298Y90600D01*
X234798Y303600D02*
Y310600D01*
X239298Y315100D01*
X113798Y328600D02*
X117798Y324600D01*
X250798Y157100D02*
Y201100D01*
X234798Y220100D02*
Y237802D01*
X250798Y94100D02*
Y135100D01*
Y201100D02*
X254798Y205100D01*
X205298Y324600D02*
X259298D01*
X117798D02*
X163798D01*
D46*
X253298Y215100D02*
Y217600D01*
Y215100D02*
X255798D01*
X253298Y217600D02*
X255798Y215100D01*
X253298Y212600D02*
Y215100D01*
Y212600D02*
X255798Y215100D01*
X258298Y225100D02*
Y227600D01*
Y222600D02*
Y225100D01*
X253298Y217600D02*
X258298Y215100D01*
X255798Y225100D02*
X258298D01*
X253298D02*
X258298Y227600D01*
X255798Y225100D02*
X258298Y227600D01*
X253298Y212600D02*
X258298Y215100D01*
X253298Y225100D02*
X258298Y222600D01*
X255798Y225100D02*
X258298Y222600D01*
D47*
X103298Y345100D02*
D03*
Y355100D02*
D03*
X113298Y345100D02*
D03*
Y355100D02*
D03*
X123298Y345100D02*
D03*
Y355100D02*
D03*
X133298Y345100D02*
D03*
Y355100D02*
D03*
X143298Y345100D02*
D03*
Y355100D02*
D03*
X153298Y345100D02*
D03*
Y355100D02*
D03*
X163298Y345100D02*
D03*
Y355100D02*
D03*
X173298Y345100D02*
D03*
Y355100D02*
D03*
X183298Y345100D02*
D03*
Y355100D02*
D03*
X193298Y345100D02*
D03*
Y355100D02*
D03*
X203298Y345100D02*
D03*
Y355100D02*
D03*
X213298Y345100D02*
D03*
Y355100D02*
D03*
X223298Y345100D02*
D03*
X233298D02*
D03*
X243298D02*
D03*
X223298Y355100D02*
D03*
X233298D02*
D03*
X243298D02*
D03*
X253298Y345100D02*
D03*
Y355100D02*
D03*
X263298Y345100D02*
D03*
Y355100D02*
D03*
X273298D02*
D03*
Y345100D02*
D03*
X173298Y225600D02*
D03*
Y235600D02*
D03*
X183298Y225600D02*
D03*
Y235600D02*
D03*
X193298D02*
D03*
Y225600D02*
D03*
X273298Y49100D02*
D03*
Y139100D02*
D03*
Y129100D02*
D03*
Y119100D02*
D03*
Y109100D02*
D03*
Y99100D02*
D03*
Y89100D02*
D03*
Y79100D02*
D03*
Y69100D02*
D03*
Y59100D02*
D03*
Y155100D02*
D03*
Y225100D02*
D03*
Y215100D02*
D03*
Y205100D02*
D03*
Y195100D02*
D03*
Y185100D02*
D03*
Y175100D02*
D03*
Y165100D02*
D03*
Y315100D02*
D03*
Y245100D02*
D03*
Y255100D02*
D03*
Y265100D02*
D03*
Y275100D02*
D03*
Y285100D02*
D03*
Y295100D02*
D03*
Y305100D02*
D03*
X141298Y77300D02*
D03*
Y67300D02*
D03*
X131298Y77300D02*
D03*
Y67300D02*
D03*
X121298D02*
D03*
Y77300D02*
D03*
X83298Y155100D02*
D03*
Y85100D02*
D03*
Y95100D02*
D03*
Y105100D02*
D03*
Y115100D02*
D03*
Y125100D02*
D03*
Y135100D02*
D03*
Y145100D02*
D03*
Y245100D02*
D03*
Y175100D02*
D03*
Y185100D02*
D03*
Y195100D02*
D03*
Y205100D02*
D03*
Y215100D02*
D03*
Y225100D02*
D03*
Y235100D02*
D03*
Y335100D02*
D03*
Y265100D02*
D03*
Y275100D02*
D03*
Y285100D02*
D03*
Y295100D02*
D03*
Y305100D02*
D03*
Y315100D02*
D03*
Y325100D02*
D03*
M02*
