M48
;Layer_Color=9474304
;FILE_FORMAT=2:5
INCH,LZ
;TYPE=PLATED
T1F00S00C0.02756
T2F00S00C0.03346
T3F00S00C0.03543
T4F00S00C0.03740
T5F00S00C0.03937
T6F00S00C0.16500
%
T01
X033Y003
X035
Y006
X033
X004Y008
X001
X033Y0092222
X035
Y0123333
X033
Y0154444
X035
Y0185556
X033
Y0216667
X035
Y0247778
X033
Y0278889
X035
Y031
X033
T02
X0273298Y00491
Y00591
Y00691
Y00791
X0315Y0076111
X0345
Y0045
X0315
X0083298Y00851
Y00951
Y01051
Y01151
Y01251
Y01351
Y01451
Y01551
Y01751
Y01851
Y01951
Y02051
Y02151
Y02251
Y02351
X0065Y023
Y02
X0035
Y017
X0065
X0035Y023
X0273298Y02251
Y02151
Y02051
Y01951
Y01851
Y01751
Y01651
Y01551
Y01391
Y01291
Y01191
Y01091
Y00991
Y00891
X0315Y0107222
X0345
Y0138333
X0315
Y0169444
X0345
Y0200555
X0315
Y0231667
X0345
Y0262778
X0315
Y0293889
X0345
Y0325
X0315
X0273298Y03151
Y03051
Y02951
Y02851
Y02751
Y02651
Y02551
Y02451
X0083298
Y02651
Y02751
Y02851
Y02951
Y03051
Y03151
Y03251
Y03351
X0065Y026
X0035
T03
X037Y0045
X038
X039
X04
Y0075
X039
X038
X037
X002Y017
X001
X0
Y02
X001
X002
Y023
X001
X0
X037
X038
X039
X04
Y02
X039
X038
X037
Y017
X038
X039
X04
Y014
X039
X038
X037
Y0105
X038
X039
X04
Y026
X039
X038
X037
Y0295
X038
X039
X04
Y0325
X039
X038
X037
X002Y026
X001
X0
X0045Y046
Y047
Y048
Y049
Y05
X0079444
Y049
Y048
Y047
Y046
X0113889
Y047
Y048
Y049
Y05
X0148333
Y049
Y048
Y047
Y046
X0182778
Y047
Y048
Y049
Y05
X0217222
Y049
Y048
Y047
Y046
X0251667
Y047
Y048
Y049
Y05
X0286111
Y049
Y048
Y047
Y046
X0320555
Y047
Y048
Y049
Y05
X0355
Y049
Y048
Y047
Y046
T04
X0121298Y00673
X0131298
X0141298
Y00773
X0131298
X0121298
X0173298Y02256
Y02356
X0183298
Y02256
X0193298
Y02356
X0273298Y03451
Y03551
X0263298
X0253298
X0243298
X0233298
X0223298
X0213298
X0203298
X0193298
X0183298
X0173298
X0163298
X0153298
X0143298
X0133298
X0123298
Y03451
X0133298
X0143298
X0153298
X0163298
X0173298
X0183298
X0193298
X0203298
X0213298
X0223298
X0233298
X0243298
X0253298
X0263298
X0113298
X0103298
Y03551
X0113298
T05
X004Y0001969
Y0025591
X0058504Y001378
X004Y031
Y032
Y033
Y034
Y035
Y036
Y037
X001
Y036
Y035
Y034
Y033
Y032
Y031
T06
X04Y0
X0
Y05
X04
M30
